SplineFontDB: 3.0
FontName: Voces-Regular
FullName: Voces
FamilyName: Voces
Weight: Book
Copyright: Copyright (c) 2012, Ana Paula Megda (www.anamegda.com), Copyright (c) 2012, Pablo Ugerman (www.ugrdesign.com.ar), with Reserved Font Names "Voces", "Voceso Pro", "Voces UGR"
Version: 1.001
ItalicAngle: 0
UnderlinePosition: -50
UnderlineWidth: 50
Ascent: 800
Descent: 200
sfntRevision: 0x00010042
LayerCount: 2
Layer: 0 1 "Back"  1
Layer: 1 1 "Fore"  0
XUID: [1021 504 1118436994 2978801]
FSType: 0
OS2Version: 2
OS2_WeightWidthSlopeOnly: 0
OS2_UseTypoMetrics: 1
CreationTime: 1329481918
ModificationTime: 1329506948
PfmFamily: 17
TTFWeight: 400
TTFWidth: 5
LineGap: 0
VLineGap: 0
Panose: 2 11 0 0 0 0 0 0 0 0
OS2TypoAscent: 214
OS2TypoAOffset: 1
OS2TypoDescent: -135
OS2TypoDOffset: 1
OS2TypoLinegap: 0
OS2WinAscent: 0
OS2WinAOffset: 1
OS2WinDescent: 0
OS2WinDOffset: 1
HheadAscent: 0
HheadAOffset: 1
HheadDescent: 0
HheadDOffset: 1
OS2SubXSize: 700
OS2SubYSize: 650
OS2SubXOff: 0
OS2SubYOff: 140
OS2SupXSize: 700
OS2SupYSize: 650
OS2SupXOff: 0
OS2SupYOff: 477
OS2StrikeYSize: 50
OS2StrikeYPos: 250
OS2Vendor: 'UGRD'
OS2CodePages: 20000193.00000000
OS2UnicodeRanges: 00000077.00000000.00000000.00000000
Lookup: 258 0 0 "'kern' Horizontal Kerning in Latin lookup 0"  {"'kern' Horizontal Kerning in Latin lookup 0 subtable"  } ['kern' ('DFLT' <'dflt' > 'latn' <'dflt' > ) ]
DEI: 91125
TtTable: prep
PUSHW_1
 511
SCANCTRL
PUSHB_1
 4
SCANTYPE
EndTTInstrs
ShortTable: maxp 16
  1
  0
  682
  69
  7
  0
  0
  2
  0
  1
  1
  0
  64
  0
  0
  0
EndShort

StartChar: exclam
Encoding: 33 33 4
Width: 262
GlyphClass: 2
Flags: W
LayerCount: 2
Fore
SplineSet
60 59 m 128,-1,1
 60 88 60 88 81 109 c 128,-1,2
 102 130 102 130 131 130 c 128,-1,3
 160 130 160 130 181 109 c 128,-1,4
 202 88 202 88 202 59 c 128,-1,5
 202 30 202 30 181 9 c 128,-1,6
 160 -12 160 -12 131 -12 c 128,-1,7
 102 -12 102 -12 81 9 c 128,-1,0
 60 30 60 30 60 59 c 128,-1,1
71 700 m 1,8,-1
 191 700 l 1,9,-1
 171 236 l 1,10,-1
 91 236 l 1,11,-1
 71 700 l 1,8,-1
EndSplineSet
EndChar

StartChar: quotedbl
Encoding: 34 34 5
Width: 309
GlyphClass: 2
Flags: W
LayerCount: 2
Fore
SplineSet
25 764 m 1,0,-1
 98 764 l 2,1,2
 132 764 132 764 132 728 c 0,3,4
 132 720 132 720 130 710 c 2,5,-1
 96 500 l 1,6,-1
 25 503 l 1,7,-1
 25 764 l 1,0,-1
197 764 m 1,8,-1
 270 764 l 2,9,10
 304 764 304 764 304 728 c 0,11,12
 304 720 304 720 302 710 c 2,13,-1
 268 500 l 1,14,-1
 197 503 l 1,15,-1
 197 764 l 1,8,-1
EndSplineSet
EndChar

StartChar: numbersign
Encoding: 35 35 6
Width: 738
GlyphClass: 2
Flags: W
LayerCount: 2
Fore
SplineSet
60 204 m 1,0,-1
 60 277 l 1,1,-1
 208 277 l 1,2,-1
 229 432 l 1,3,-1
 103 432 l 1,4,-1
 103 505 l 1,5,-1
 239 505 l 1,6,-1
 266 700 l 1,7,-1
 345 700 l 1,8,-1
 318 505 l 1,9,-1
 469 505 l 1,10,-1
 496 700 l 1,11,-1
 575 700 l 1,12,-1
 548 505 l 1,13,-1
 678 505 l 1,14,-1
 678 432 l 1,15,-1
 538 432 l 1,16,-1
 516 277 l 1,17,-1
 645 277 l 1,18,-1
 645 204 l 1,19,-1
 506 204 l 1,20,-1
 478 0 l 1,21,-1
 400 0 l 1,22,-1
 428 204 l 1,23,-1
 276 204 l 1,24,-1
 248 0 l 1,25,-1
 170 0 l 1,26,-1
 198 204 l 1,27,-1
 60 204 l 1,0,-1
308 432 m 1,28,-1
 286 277 l 1,29,-1
 438 277 l 1,30,-1
 459 432 l 1,31,-1
 308 432 l 1,28,-1
EndSplineSet
EndChar

StartChar: dollar
Encoding: 36 36 7
Width: 517
GlyphClass: 2
Flags: W
LayerCount: 2
Fore
SplineSet
267 74 m 0,0,1
 314 74 314 74 344.5 97.5 c 128,-1,2
 375 121 375 121 375 163 c 0,3,4
 375 228 375 228 274 275 c 1,5,-1
 182 319 l 1,6,7
 70 371 70 371 70 475 c 0,8,9
 70 547 70 547 122.5 591 c 128,-1,10
 175 635 175 635 250 644 c 1,11,-1
 247 751 l 1,12,-1
 331 751 l 1,13,-1
 326 645 l 1,14,15
 379 639 379 639 456 610 c 1,16,-1
 432 543 l 1,17,18
 347 576 347 576 282 576 c 0,19,20
 172 576 172 576 172 493 c 0,21,22
 172 463 172 463 192 442.5 c 128,-1,23
 212 422 212 422 253 402 c 2,24,-1
 360 349 l 2,25,26
 478 291 478 291 478 186 c 0,27,28
 478 108 478 108 432.5 63.5 c 128,-1,29
 387 19 387 19 319 6 c 1,30,-1
 324 -113 l 1,31,-1
 240 -113 l 1,32,-1
 243 1 l 1,33,34
 153 6 153 6 61 48 c 1,35,-1
 91 118 l 1,36,37
 189 74 189 74 267 74 c 0,0,1
EndSplineSet
EndChar

StartChar: percent
Encoding: 37 37 8
Width: 798
GlyphClass: 2
Flags: W
LayerCount: 2
Fore
SplineSet
352 538 m 0,0,1
 352 364 352 364 213.5 364 c 128,-1,2
 75 364 75 364 75 538 c 0,3,4
 75 620 75 620 104 666 c 128,-1,5
 133 712 133 712 213 712 c 0,6,7
 298 712 298 712 327 659 c 0,8,9
 352 613 352 613 352 538 c 0,0,1
213 661 m 128,-1,11
 148 661 148 661 148 538 c 128,-1,12
 148 415 148 415 213 415 c 128,-1,13
 278 415 278 415 278 538 c 128,-1,10
 278 661 278 661 213 661 c 128,-1,11
723 162 m 0,14,15
 723 -12 723 -12 584.5 -12 c 128,-1,16
 446 -12 446 -12 446 162 c 0,17,18
 446 244 446 244 475 290 c 128,-1,19
 504 336 504 336 584 336 c 0,20,21
 669 336 669 336 698 283 c 0,22,23
 723 237 723 237 723 162 c 0,14,15
584 285 m 128,-1,25
 519 285 519 285 519 162 c 128,-1,26
 519 39 519 39 584 39 c 128,-1,27
 649 39 649 39 649 162 c 128,-1,24
 649 285 649 285 584 285 c 128,-1,25
224 0 m 1,28,-1
 133 0 l 1,29,-1
 574 700 l 1,30,-1
 665 700 l 1,31,-1
 224 0 l 1,28,-1
EndSplineSet
EndChar

StartChar: ampersand
Encoding: 38 38 9
Width: 733
GlyphClass: 2
Flags: W
LayerCount: 2
Fore
SplineSet
227 605.5 m 128,-1,1
 203 582 203 582 203 544 c 128,-1,2
 203 506 203 506 241 460.5 c 128,-1,3
 279 415 279 415 358 352 c 2,4,-1
 494 244 l 1,5,6
 505 300 505 300 505 361 c 2,7,-1
 505 396 l 1,8,-1
 597 396 l 1,9,-1
 597 349 l 2,10,11
 597 252 597 252 575 179 c 1,12,-1
 733 54 l 1,13,-1
 664 -12 l 1,14,-1
 535 93 l 1,15,16
 461 -13 461 -13 296 -13 c 0,17,18
 191 -13 191 -13 124 43 c 128,-1,19
 57 99 57 99 57 194 c 0,20,21
 57 309 57 309 192 377 c 1,22,23
 100 469 100 469 100 549 c 128,-1,24
 100 629 100 629 161 670.5 c 128,-1,25
 222 712 222 712 299.5 712 c 128,-1,26
 377 712 377 712 468 677 c 1,27,-1
 438 599 l 1,28,29
 354 629 354 629 302.5 629 c 128,-1,0
 251 629 251 629 227 605.5 c 128,-1,1
309 66 m 0,30,31
 412 66 412 66 461 153 c 1,32,-1
 261 316 l 1,33,34
 213 304 213 304 187 269 c 128,-1,35
 161 234 161 234 161 186 c 128,-1,36
 161 138 161 138 202 102 c 128,-1,37
 243 66 243 66 309 66 c 0,30,31
EndSplineSet
EndChar

StartChar: quotesingle
Encoding: 39 39 10
Width: 137
GlyphClass: 2
Flags: W
LayerCount: 2
Fore
SplineSet
25 764 m 1,0,-1
 98 764 l 2,1,2
 132 764 132 764 132 728 c 0,3,4
 132 720 132 720 130 710 c 2,5,-1
 96 500 l 1,6,-1
 25 503 l 1,7,-1
 25 764 l 1,0,-1
EndSplineSet
EndChar

StartChar: parenleft
Encoding: 40 40 11
Width: 298
GlyphClass: 2
Flags: W
LayerCount: 2
Fore
SplineSet
155 267 m 128,-1,1
 155 180 155 180 163 109 c 128,-1,2
 171 38 171 38 179.5 -3.5 c 128,-1,3
 188 -45 188 -45 207.5 -87.5 c 128,-1,4
 227 -130 227 -130 236.5 -145 c 128,-1,5
 246 -160 246 -160 268 -193 c 1,6,-1
 211 -232 l 1,7,8
 124 -148 124 -148 86 -32.5 c 128,-1,9
 48 83 48 83 48 267 c 128,-1,10
 48 451 48 451 86 567 c 128,-1,11
 124 683 124 683 211 767 c 1,12,-1
 268 728 l 1,13,14
 245 695 245 695 236 680 c 128,-1,15
 227 665 227 665 207.5 622 c 128,-1,16
 188 579 188 579 179.5 537.5 c 128,-1,17
 171 496 171 496 163 425 c 128,-1,0
 155 354 155 354 155 267 c 128,-1,1
EndSplineSet
EndChar

StartChar: parenright
Encoding: 41 41 12
Width: 300
GlyphClass: 2
Flags: W
LayerCount: 2
Fore
SplineSet
143 267 m 128,-1,1
 143 354 143 354 135 425 c 128,-1,2
 127 496 127 496 118.5 537.5 c 128,-1,3
 110 579 110 579 90.5 622 c 128,-1,4
 71 665 71 665 62 680 c 128,-1,5
 53 695 53 695 30 728 c 1,6,-1
 87 767 l 1,7,8
 174 683 174 683 212 567 c 128,-1,9
 250 451 250 451 250 267 c 128,-1,10
 250 83 250 83 212 -32.5 c 128,-1,11
 174 -148 174 -148 87 -232 c 1,12,-1
 30 -193 l 1,13,14
 52 -160 52 -160 61.5 -145 c 128,-1,15
 71 -130 71 -130 90.5 -87.5 c 128,-1,16
 110 -45 110 -45 118.5 -3.5 c 128,-1,17
 127 38 127 38 135 109 c 128,-1,0
 143 180 143 180 143 267 c 128,-1,1
EndSplineSet
EndChar

StartChar: asterisk
Encoding: 42 42 13
Width: 351
GlyphClass: 2
Flags: W
LayerCount: 2
Fore
SplineSet
346 614 m 0,0,1
 346 590 346 590 309 584 c 2,2,-1
 207 567 l 1,3,-1
 280 493 l 2,4,5
 296 477 296 477 296 463.5 c 128,-1,6
 296 450 296 450 285 442 c 2,7,-1
 271 431 l 2,8,9
 265 426 265 426 256 426 c 0,10,11
 237 426 237 426 223 452 c 2,12,-1
 176 543 l 1,13,-1
 128 451 l 2,14,15
 115 425 115 425 97 425 c 0,16,17
 88 425 88 425 81 431 c 1,18,-1
 66 441 l 2,19,20
 55 448 55 448 55 461.5 c 128,-1,21
 55 475 55 475 71 493 c 1,22,-1
 143 565 l 1,23,-1
 40 583 l 2,24,25
 6 588 6 588 6 612 c 0,26,27
 6 618 6 618 7 621 c 2,28,-1
 12 639 l 1,29,30
 18 656 18 656 34.5 656 c 128,-1,31
 51 656 51 656 63 650 c 2,32,-1
 156 602 l 1,33,-1
 140 707 l 2,34,35
 139 712 139 712 139 717 c 0,36,37
 139 751 139 751 166 752 c 1,38,-1
 184 752 l 2,39,40
 211 752 211 752 211 717 c 0,41,42
 211 712 211 712 210 707 c 2,43,-1
 194 604 l 1,44,-1
 288 651 l 2,45,46
 302 658 302 658 316.5 658 c 128,-1,47
 331 658 331 658 338 640 c 2,48,-1
 344 623 l 2,49,50
 346 617 346 617 346 614 c 0,0,1
EndSplineSet
EndChar

StartChar: plus
Encoding: 43 43 14
Width: 602
GlyphClass: 2
Flags: W
LayerCount: 2
Fore
SplineSet
552 407 m 1,0,-1
 552 331 l 1,1,-1
 338 331 l 1,2,-1
 338 104 l 1,3,-1
 259 104 l 1,4,-1
 259 331 l 1,5,-1
 50 331 l 1,6,-1
 50 407 l 1,7,-1
 259 407 l 1,8,-1
 259 635 l 1,9,-1
 338 635 l 1,10,-1
 338 407 l 1,11,-1
 552 407 l 1,0,-1
EndSplineSet
EndChar

StartChar: comma
Encoding: 44 44 15
Width: 266
GlyphClass: 2
Flags: W
LayerCount: 2
Fore
SplineSet
175 80.5 m 128,-1,1
 186 69 186 69 186 56 c 128,-1,2
 186 43 186 43 184 36 c 2,3,-1
 163 -51 l 2,4,5
 155 -83 155 -83 102 -157 c 1,6,-1
 84 -181 l 1,7,-1
 19 -151 l 1,8,9
 63 -54 63 -54 70 -30.5 c 128,-1,10
 77 -7 77 -7 78 10 c 2,11,-1
 82 96 l 1,12,-1
 143 93 l 2,13,0
 164 92 164 92 175 80.5 c 128,-1,1
EndSplineSet
EndChar

StartChar: hyphen
Encoding: 45 45 16
Width: 340
GlyphClass: 2
Flags: W
LayerCount: 2
Fore
SplineSet
50 225 m 1,0,-1
 50 302 l 1,1,-1
 290 302 l 1,2,-1
 290 225 l 1,3,-1
 50 225 l 1,0,-1
EndSplineSet
EndChar

StartChar: period
Encoding: 46 46 17
Width: 272
GlyphClass: 2
Flags: W
LayerCount: 2
Fore
SplineSet
65 59 m 128,-1,1
 65 88 65 88 86 109 c 128,-1,2
 107 130 107 130 136 130 c 128,-1,3
 165 130 165 130 186 109 c 128,-1,4
 207 88 207 88 207 59 c 128,-1,5
 207 30 207 30 186 9 c 128,-1,6
 165 -12 165 -12 136 -12 c 128,-1,7
 107 -12 107 -12 86 9 c 128,-1,0
 65 30 65 30 65 59 c 128,-1,1
EndSplineSet
EndChar

StartChar: slash
Encoding: 47 47 18
Width: 378
GlyphClass: 2
Flags: W
LayerCount: 2
Fore
SplineSet
71 -208 m 1,0,-1
 -24 -208 l 1,1,-1
 283 740 l 1,2,-1
 378 740 l 1,3,-1
 71 -208 l 1,0,-1
EndSplineSet
EndChar

StartChar: zero
Encoding: 48 48 19
Width: 659
GlyphClass: 2
Flags: W
LayerCount: 2
Fore
SplineSet
599 349 m 0,0,1
 599 -12 599 -12 328 -12 c 0,2,3
 172 -12 172 -12 112 97 c 0,4,5
 60 193 60 193 60 349 c 0,6,7
 60 560 60 560 136 642 c 0,8,9
 200 712 200 712 328 712 c 128,-1,10
 456 712 456 712 520 642 c 0,11,12
 599 557 599 557 599 349 c 0,0,1
329 647 m 128,-1,14
 286 647 286 647 255 627.5 c 128,-1,15
 224 608 224 608 207 579.5 c 128,-1,16
 190 551 190 551 180 508 c 0,17,18
 166 444 166 444 166 354 c 0,19,20
 166 203 166 203 202 128 c 128,-1,21
 238 53 238 53 329 53 c 128,-1,22
 420 53 420 53 455.5 127.5 c 128,-1,23
 491 202 491 202 491 354 c 0,24,25
 491 510 491 510 450 580 c 0,26,27
 434 608 434 608 403 627.5 c 128,-1,13
 372 647 372 647 329 647 c 128,-1,14
EndSplineSet
EndChar

StartChar: one
Encoding: 49 49 20
Width: 338
GlyphClass: 2
Flags: W
LayerCount: 2
Fore
SplineSet
238 0 m 1,0,-1
 141 0 l 1,1,-1
 141 621 l 1,2,-1
 13 621 l 1,3,-1
 10 673 l 1,4,-1
 181 710 l 2,5,6
 191 712 191 712 202.5 712 c 128,-1,7
 214 712 214 712 226 702.5 c 128,-1,8
 238 693 238 693 238 676 c 2,9,-1
 238 0 l 1,0,-1
EndSplineSet
EndChar

StartChar: two
Encoding: 50 50 21
Width: 567
GlyphClass: 2
Flags: W
LayerCount: 2
Fore
SplineSet
326 83 m 2,0,-1
 517 83 l 1,1,-1
 517 0 l 1,2,-1
 50 0 l 1,3,-1
 50 76 l 1,4,5
 156 188 156 188 220.5 252.5 c 128,-1,6
 285 317 285 317 317 353 c 128,-1,7
 349 389 349 389 362 412 c 0,8,9
 391 465 391 465 391 519.5 c 128,-1,10
 391 574 391 574 357.5 606 c 128,-1,11
 324 638 324 638 272 638 c 0,12,13
 198 638 198 638 102 606 c 1,14,-1
 77 668 l 1,15,16
 180 712 180 712 278.5 712 c 128,-1,17
 377 712 377 712 436.5 664 c 128,-1,18
 496 616 496 616 496 521 c 0,19,20
 496 458 496 458 470 411 c 0,21,22
 456 384 456 384 445.5 365 c 128,-1,23
 435 346 435 346 409.5 317.5 c 128,-1,24
 384 289 384 289 371.5 276 c 128,-1,25
 359 263 359 263 326.5 231 c 128,-1,26
 294 199 294 199 283 188 c 2,27,-1
 180 87 l 1,28,-1
 187 71 l 1,29,30
 260 83 260 83 326 83 c 2,0,-1
EndSplineSet
EndChar

StartChar: three
Encoding: 51 51 22
Width: 513
GlyphClass: 2
Flags: W
LayerCount: 2
Fore
SplineSet
316.5 94.5 m 128,-1,1
 357 128 357 128 357 191.5 c 128,-1,2
 357 255 357 255 312.5 293 c 128,-1,3
 268 331 268 331 192 333 c 1,4,-1
 192 399 l 1,5,6
 260 401 260 401 301 432.5 c 128,-1,7
 342 464 342 464 342 523 c 128,-1,8
 342 582 342 582 310 611 c 128,-1,9
 278 640 278 640 216.5 640 c 128,-1,10
 155 640 155 640 98 614 c 1,11,-1
 75 676 l 1,12,13
 143 712 143 712 236.5 712 c 128,-1,14
 330 712 330 712 386.5 665.5 c 128,-1,15
 443 619 443 619 443 530 c 0,16,17
 443 478 443 478 412 433.5 c 128,-1,18
 381 389 381 389 330 375 c 1,19,-1
 330 359 l 1,20,21
 393 345 393 345 425.5 296 c 128,-1,22
 458 247 458 247 458 193 c 0,23,24
 458 100 458 100 389 44 c 128,-1,25
 320 -12 320 -12 221.5 -12 c 128,-1,26
 123 -12 123 -12 39 28 c 1,27,-1
 64 91 l 1,28,29
 135 61 135 61 205.5 61 c 128,-1,0
 276 61 276 61 316.5 94.5 c 128,-1,1
EndSplineSet
EndChar

StartChar: four
Encoding: 52 52 23
Width: 545
GlyphClass: 2
Flags: W
LayerCount: 2
Fore
SplineSet
445 700 m 1,0,-1
 445 231 l 1,1,-1
 515 231 l 1,2,-1
 515 156 l 1,3,-1
 445 156 l 1,4,-1
 445 0 l 1,5,-1
 345 0 l 1,6,-1
 345 156 l 1,7,-1
 10 156 l 1,8,-1
 10 221 l 1,9,-1
 362 700 l 1,10,-1
 445 700 l 1,0,-1
346 439 m 2,11,12
 346 490 346 490 355 536 c 2,13,-1
 358 552 l 1,14,-1
 342 555 l 1,15,16
 317 506 317 506 280 455 c 2,17,-1
 178 316 l 2,18,19
 144 270 144 270 114 243 c 2,20,-1
 104 234 l 1,21,-1
 107 218 l 1,22,23
 160 230 160 230 206 230 c 2,24,-1
 346 231 l 1,25,-1
 346 439 l 2,11,12
EndSplineSet
EndChar

StartChar: five
Encoding: 53 53 24
Width: 564
GlyphClass: 2
Flags: W
LayerCount: 2
Fore
SplineSet
80 94 m 1,0,1
 153 61 153 61 230 61 c 128,-1,2
 307 61 307 61 349 104 c 128,-1,3
 391 147 391 147 391 218.5 c 128,-1,4
 391 290 391 290 341 324.5 c 128,-1,5
 291 359 291 359 188 363 c 2,6,-1
 88 367 l 1,7,-1
 88 700 l 1,8,-1
 457 700 l 1,9,-1
 457 625 l 1,10,-1
 193 625 l 1,11,-1
 193 437 l 1,12,13
 247 435 247 435 283.5 431 c 128,-1,14
 320 427 320 427 365.5 413.5 c 128,-1,15
 411 400 411 400 438.5 377.5 c 128,-1,16
 466 355 466 355 485 313 c 128,-1,17
 504 271 504 271 504 213 c 0,18,19
 504 105 504 105 429 46.5 c 128,-1,20
 354 -12 354 -12 248.5 -12 c 128,-1,21
 143 -12 143 -12 55 32 c 1,22,-1
 80 94 l 1,0,1
EndSplineSet
EndChar

StartChar: six
Encoding: 54 54 25
Width: 619
GlyphClass: 2
Flags: W
LayerCount: 2
Fore
SplineSet
182 352 m 1,0,1
 226 440 226 440 337 440 c 128,-1,2
 448 440 448 440 508.5 380 c 128,-1,3
 569 320 569 320 569 215 c 128,-1,4
 569 110 569 110 506 49 c 128,-1,5
 443 -12 443 -12 328 -12 c 0,6,7
 170 -12 170 -12 112 89 c 0,8,9
 83 138 83 138 71.5 195 c 128,-1,10
 60 252 60 252 60 325 c 128,-1,11
 60 398 60 398 80 464.5 c 128,-1,12
 100 531 100 531 138.5 587.5 c 128,-1,13
 177 644 177 644 240.5 678 c 128,-1,14
 304 712 304 712 381.5 712 c 128,-1,15
 459 712 459 712 511 688 c 1,16,-1
 492 620 l 1,17,18
 446 638 446 638 383.5 638 c 128,-1,19
 321 638 321 638 278 609.5 c 128,-1,20
 235 581 235 581 212 535 c 0,21,22
 170 449 170 449 166 352 c 1,23,-1
 182 352 l 1,0,1
329 53 m 0,24,25
 469 53 469 53 469 214 c 0,26,27
 469 284 469 284 434.5 329 c 128,-1,28
 400 374 400 374 325.5 374 c 128,-1,29
 251 374 251 374 218 332.5 c 128,-1,30
 185 291 185 291 185 214 c 0,31,32
 185 53 185 53 329 53 c 0,24,25
EndSplineSet
EndChar

StartChar: seven
Encoding: 55 55 26
Width: 530
GlyphClass: 2
Flags: W
LayerCount: 2
Fore
SplineSet
276 618 m 2,0,-1
 30 618 l 1,1,-1
 30 700 l 1,2,-1
 500 700 l 1,3,-1
 500 620 l 1,4,-1
 171 0 l 1,5,-1
 64 0 l 1,6,-1
 332 498 l 2,7,8
 363 557 363 557 396 608 c 1,9,-1
 405 621 l 1,10,-1
 396 637 l 1,11,12
 350 618 350 618 276 618 c 2,0,-1
EndSplineSet
EndChar

StartChar: eight
Encoding: 56 56 27
Width: 611
GlyphClass: 2
Flags: W
LayerCount: 2
Fore
SplineSet
306 -12 m 128,-1,1
 191 -12 191 -12 120.5 41.5 c 128,-1,2
 50 95 50 95 50 194 c 0,3,4
 50 250 50 250 80.5 294.5 c 128,-1,5
 111 339 111 339 163 354 c 1,6,-1
 163 370 l 1,7,8
 70 409 70 409 70 521 c 0,9,10
 70 619 70 619 135.5 665.5 c 128,-1,11
 201 712 201 712 306.5 712 c 128,-1,12
 412 712 412 712 476.5 665.5 c 128,-1,13
 541 619 541 619 541 521 c 0,14,15
 541 409 541 409 448 370 c 1,16,-1
 448 354 l 1,17,18
 500 339 500 339 530.5 294.5 c 128,-1,19
 561 250 561 250 561 194 c 0,20,21
 561 95 561 95 491 41.5 c 128,-1,0
 421 -12 421 -12 306 -12 c 128,-1,1
457 186 m 128,-1,23
 457 247 457 247 420 287 c 128,-1,24
 383 327 383 327 307 327 c 128,-1,25
 231 327 231 327 192.5 286.5 c 128,-1,26
 154 246 154 246 154 186 c 128,-1,27
 154 126 154 126 193.5 91 c 128,-1,28
 233 56 233 56 306.5 56 c 128,-1,29
 380 56 380 56 418.5 90.5 c 128,-1,22
 457 125 457 125 457 186 c 128,-1,23
307 645 m 128,-1,31
 249 645 249 645 211.5 613.5 c 128,-1,32
 174 582 174 582 174 524.5 c 128,-1,33
 174 467 174 467 207.5 430.5 c 128,-1,34
 241 394 241 394 307 394 c 128,-1,35
 373 394 373 394 405 430.5 c 128,-1,36
 437 467 437 467 437 525 c 128,-1,37
 437 583 437 583 401 614 c 128,-1,30
 365 645 365 645 307 645 c 128,-1,31
EndSplineSet
EndChar

StartChar: nine
Encoding: 57 57 28
Width: 619
GlyphClass: 2
Flags: W
LayerCount: 2
Fore
SplineSet
453 346 m 1,0,-1
 437 346 l 1,1,2
 396 258 396 258 283.5 258 c 128,-1,3
 171 258 171 258 110.5 318 c 128,-1,4
 50 378 50 378 50 483 c 128,-1,5
 50 588 50 588 112 650 c 128,-1,6
 174 712 174 712 291 712 c 0,7,8
 472 712 472 712 528 566 c 0,9,10
 559 484 559 484 559 350 c 0,11,12
 559 -12 559 -12 267 -12 c 0,13,14
 166 -12 166 -12 84 39 c 1,15,-1
 109 101 l 1,16,17
 188 62 188 62 275.5 62.5 c 128,-1,18
 363 63 363 63 408 130.5 c 128,-1,19
 453 198 453 198 453 346 c 1,0,-1
150 484 m 128,-1,21
 150 414 150 414 184.5 369 c 128,-1,22
 219 324 219 324 293.5 324 c 128,-1,23
 368 324 368 324 401 365.5 c 128,-1,24
 434 407 434 407 434 484 c 0,25,26
 434 643 434 643 293 647 c 1,27,28
 208 647 208 647 177 597 c 0,29,20
 150 554 150 554 150 484 c 128,-1,21
EndSplineSet
EndChar

StartChar: colon
Encoding: 58 58 29
Width: 258
GlyphClass: 2
Flags: W
LayerCount: 2
Fore
SplineSet
64 358 m 128,-1,1
 64 385 64 385 83 404 c 128,-1,2
 102 423 102 423 129 423 c 128,-1,3
 156 423 156 423 175 404 c 128,-1,4
 194 385 194 385 194 358 c 128,-1,5
 194 331 194 331 175 312 c 128,-1,6
 156 293 156 293 129 293 c 128,-1,7
 102 293 102 293 83 312 c 128,-1,0
 64 331 64 331 64 358 c 128,-1,1
64 53 m 128,-1,9
 64 80 64 80 83 99 c 128,-1,10
 102 118 102 118 129 118 c 128,-1,11
 156 118 156 118 175 99 c 128,-1,12
 194 80 194 80 194 53 c 128,-1,13
 194 26 194 26 175 7 c 128,-1,14
 156 -12 156 -12 129 -12 c 128,-1,15
 102 -12 102 -12 83 7 c 128,-1,8
 64 26 64 26 64 53 c 128,-1,9
EndSplineSet
EndChar

StartChar: semicolon
Encoding: 59 59 30
Width: 258
GlyphClass: 2
Flags: W
LayerCount: 2
Fore
SplineSet
68 333 m 128,-1,1
 68 360 68 360 87 379 c 128,-1,2
 106 398 106 398 133 398 c 128,-1,3
 160 398 160 398 179 379 c 128,-1,4
 198 360 198 360 198 333 c 128,-1,5
 198 306 198 306 179 287 c 128,-1,6
 160 268 160 268 133 268 c 128,-1,7
 106 268 106 268 87 287 c 128,-1,0
 68 306 68 306 68 333 c 128,-1,1
179 80.5 m 128,-1,9
 190 69 190 69 190 56 c 128,-1,10
 190 43 190 43 188 36 c 2,11,-1
 167 -51 l 2,12,13
 159 -83 159 -83 106 -157 c 1,14,-1
 88 -181 l 1,15,-1
 23 -151 l 1,16,17
 67 -54 67 -54 74 -30.5 c 128,-1,18
 81 -7 81 -7 82 10 c 2,19,-1
 86 96 l 1,20,-1
 147 93 l 2,21,8
 168 92 168 92 179 80.5 c 128,-1,9
EndSplineSet
EndChar

StartChar: less
Encoding: 60 60 31
Width: 575
GlyphClass: 2
Flags: W
LayerCount: 2
Fore
SplineSet
276 285 m 1,0,-1
 530 152 l 1,1,-1
 501 89 l 1,2,-1
 50 299 l 1,3,-1
 50 377 l 1,4,-1
 501 587 l 1,5,-1
 530 524 l 1,6,-1
 276 392 l 1,7,8
 230 372 230 372 172 352 c 1,9,-1
 152 346 l 1,10,-1
 152 330 l 1,11,12
 224 308 224 308 276 285 c 1,0,-1
EndSplineSet
EndChar

StartChar: equal
Encoding: 61 61 32
Width: 616
GlyphClass: 2
Flags: W
LayerCount: 2
Fore
SplineSet
549 476 m 1,0,-1
 549 400 l 1,1,-1
 67 400 l 1,2,-1
 67 476 l 1,3,-1
 549 476 l 1,0,-1
549 276 m 1,4,-1
 549 200 l 1,5,-1
 67 200 l 1,6,-1
 67 276 l 1,7,-1
 549 276 l 1,4,-1
EndSplineSet
EndChar

StartChar: greater
Encoding: 62 62 33
Width: 575
GlyphClass: 2
Flags: W
LayerCount: 2
Fore
SplineSet
45 152 m 1,0,-1
 299 285 l 2,1,2
 339 307 339 307 403 324 c 1,3,-1
 423 330 l 1,4,-1
 423 346 l 1,5,6
 349 366 349 366 299 392 c 2,7,-1
 45 524 l 1,8,-1
 74 587 l 1,9,-1
 525 377 l 1,10,-1
 525 299 l 1,11,-1
 74 89 l 1,12,-1
 45 152 l 1,0,-1
EndSplineSet
EndChar

StartChar: question
Encoding: 63 63 34
Width: 371
GlyphClass: 2
Flags: W
LayerCount: 2
Fore
SplineSet
167 211 m 1,0,-1
 87 211 l 1,1,-1
 87 258 l 2,2,3
 87 323 87 323 145 374 c 0,4,5
 169 396 169 396 193 418 c 0,6,7
 251 469 251 469 251 522.5 c 128,-1,8
 251 576 251 576 220 605.5 c 128,-1,9
 189 635 189 635 138.5 635 c 128,-1,10
 88 635 88 635 23 609 c 1,11,-1
 0 672 l 1,12,13
 85 712 85 712 152 712 c 0,14,15
 244 712 244 712 297.5 666.5 c 128,-1,16
 351 621 351 621 351 534 c 0,17,18
 351 492 351 492 332 454.5 c 128,-1,19
 313 417 313 417 286 391 c 128,-1,20
 259 365 259 365 232 341 c 0,21,22
 167 283 167 283 167 237 c 2,23,-1
 167 211 l 1,0,-1
61 59 m 128,-1,25
 61 88 61 88 82 109 c 128,-1,26
 103 130 103 130 132 130 c 128,-1,27
 161 130 161 130 182 109 c 128,-1,28
 203 88 203 88 203 59 c 128,-1,29
 203 30 203 30 182 9 c 128,-1,30
 161 -12 161 -12 132 -12 c 128,-1,31
 103 -12 103 -12 82 9 c 128,-1,24
 61 30 61 30 61 59 c 128,-1,25
EndSplineSet
EndChar

StartChar: at
Encoding: 64 64 35
Width: 789
GlyphClass: 2
Flags: W
LayerCount: 2
Fore
SplineSet
598.5 508 m 128,-1,1
 526 581 526 581 396.5 581 c 128,-1,2
 267 581 267 581 199.5 501 c 128,-1,3
 132 421 132 421 132 287.5 c 128,-1,4
 132 154 132 154 199.5 73.5 c 128,-1,5
 267 -7 267 -7 394 -7 c 0,6,7
 469 -7 469 -7 550 20 c 1,8,-1
 572 -38 l 1,9,10
 486 -74 486 -74 393 -74 c 0,11,12
 231 -74 231 -74 136.5 24 c 128,-1,13
 42 122 42 122 42 289 c 128,-1,14
 42 456 42 456 138 552.5 c 128,-1,15
 234 649 234 649 396 649 c 128,-1,16
 558 649 558 649 655 561 c 128,-1,17
 752 473 752 473 752 324 c 0,18,19
 752 219 752 219 700.5 155.5 c 128,-1,20
 649 92 649 92 582.5 92 c 128,-1,21
 516 92 516 92 487 137 c 1,22,-1
 473 137 l 1,23,24
 432 92 432 92 364 92 c 128,-1,25
 296 92 296 92 255 145 c 128,-1,26
 214 198 214 198 214 281.5 c 128,-1,27
 214 365 214 365 261.5 422.5 c 128,-1,28
 309 480 309 480 390 480 c 0,29,30
 448 480 448 480 478 440 c 1,31,-1
 490 440 l 1,32,-1
 499 458 l 2,33,34
 509 477 509 477 546 477 c 2,35,-1
 568 477 l 1,36,-1
 555 395 l 1,37,-1
 555 196 l 2,38,39
 555 153 555 153 593 153 c 0,40,41
 628 153 628 153 649.5 185.5 c 128,-1,42
 671 218 671 218 671 309 c 0,43,0
 671 435 671 435 598.5 508 c 128,-1,1
306 281 m 0,44,45
 306 153 306 153 385 153 c 0,46,47
 418 153 418 153 445 170 c 128,-1,48
 472 187 472 187 472 217 c 2,49,-1
 472 395 l 1,50,51
 447 417 447 417 400 417 c 128,-1,52
 353 417 353 417 329.5 379 c 128,-1,53
 306 341 306 341 306 281 c 0,44,45
EndSplineSet
EndChar

StartChar: A
Encoding: 65 65 36
Width: 634
GlyphClass: 2
Flags: W
LayerCount: 2
Fore
SplineSet
397 700 m 1,0,-1
 621 0 l 1,1,-1
 521 0 l 1,2,-1
 461 186 l 1,3,-1
 179 186 l 1,4,-1
 113 0 l 1,5,-1
 13 0 l 1,6,-1
 263 700 l 1,7,-1
 397 700 l 1,0,-1
273 451 m 2,8,-1
 208 268 l 1,9,-1
 435 268 l 1,10,-1
 377 451 l 2,11,12
 354 524 354 524 341 590 c 2,13,-1
 336 615 l 1,14,-1
 320 615 l 1,15,16
 299 524 299 524 273 451 c 2,8,-1
EndSplineSet
EndChar

StartChar: B
Encoding: 66 66 37
Width: 611
GlyphClass: 2
Flags: W
LayerCount: 2
Fore
SplineSet
281 0 m 2,0,-1
 100 0 l 1,1,-1
 100 700 l 1,2,-1
 280 700 l 2,3,4
 512 700 512 700 512 523 c 0,5,6
 512 482 512 482 488 444.5 c 128,-1,7
 464 407 464 407 417 386 c 1,8,-1
 417 370 l 1,9,10
 491 348 491 348 523.5 308.5 c 128,-1,11
 556 269 556 269 556 202 c 0,12,13
 556 86 556 86 486.5 43 c 128,-1,14
 417 0 417 0 281 0 c 2,0,-1
289 332 m 2,15,-1
 200 332 l 1,16,-1
 200 70 l 1,17,-1
 281 70 l 2,18,19
 370 70 370 70 415.5 98 c 128,-1,20
 461 126 461 126 461 202 c 0,21,22
 461 262 461 262 415 297 c 128,-1,23
 369 332 369 332 289 332 c 2,15,-1
417 521 m 0,24,25
 417 635 417 635 270 635 c 2,26,-1
 200 635 l 1,27,-1
 200 399 l 1,28,-1
 269 399 l 2,29,30
 337 399 337 399 377 429 c 128,-1,31
 417 459 417 459 417 521 c 0,24,25
EndSplineSet
EndChar

StartChar: C
Encoding: 67 67 38
Width: 570
GlyphClass: 2
Flags: W
LayerCount: 2
Fore
SplineSet
517 607 m 1,0,1
 428 634 428 634 368.5 634 c 128,-1,2
 309 634 309 634 269 612.5 c 128,-1,3
 229 591 229 591 207.5 551 c 128,-1,4
 186 511 186 511 176.5 462.5 c 128,-1,5
 167 414 167 414 167 350 c 128,-1,6
 167 286 167 286 176.5 237.5 c 128,-1,7
 186 189 186 189 208 149 c 0,8,9
 252 66 252 66 365 66 c 0,10,11
 425 66 425 66 520 97 c 1,12,-1
 540 24 l 1,13,14
 456 -12 456 -12 364 -12 c 0,15,16
 60 -12 60 -12 60 350 c 128,-1,17
 60 712 60 712 365 712 c 0,18,19
 444 712 444 712 537 677 c 1,20,-1
 517 607 l 1,0,1
EndSplineSet
EndChar

StartChar: D
Encoding: 68 68 39
Width: 686
GlyphClass: 2
Flags: W
LayerCount: 2
Fore
SplineSet
185 80 m 1,0,-1
 303 80 l 2,1,2
 421 80 421 80 469.5 151.5 c 128,-1,3
 518 223 518 223 518 350 c 0,4,5
 518 624 518 624 301 624 c 2,6,-1
 185 624 l 1,7,-1
 185 80 l 1,0,-1
300 0 m 2,8,-1
 85 0 l 1,9,-1
 85 700 l 1,10,-1
 300 700 l 2,11,12
 464 700 464 700 543.5 609 c 128,-1,13
 623 518 623 518 623 350 c 0,14,15
 623 0 623 0 300 0 c 2,8,-1
EndSplineSet
EndChar

StartChar: E
Encoding: 69 69 40
Width: 572
GlyphClass: 2
Flags: W
LayerCount: 2
Fore
SplineSet
512 0 m 1,0,-1
 95 0 l 1,1,-1
 95 700 l 1,2,-1
 512 700 l 1,3,-1
 512 617 l 1,4,-1
 195 617 l 1,5,-1
 195 416 l 1,6,-1
 482 416 l 1,7,-1
 482 332 l 1,8,-1
 195 332 l 1,9,-1
 195 83 l 1,10,-1
 512 83 l 1,11,-1
 512 0 l 1,0,-1
EndSplineSet
EndChar

StartChar: F
Encoding: 70 70 41
Width: 557
GlyphClass: 2
Flags: W
LayerCount: 2
Fore
SplineSet
195 0 m 1,0,-1
 95 0 l 1,1,-1
 95 700 l 1,2,-1
 517 700 l 1,3,-1
 517 616 l 1,4,-1
 195 616 l 1,5,-1
 195 396 l 1,6,-1
 487 396 l 1,7,-1
 487 312 l 1,8,-1
 195 312 l 1,9,-1
 195 0 l 1,0,-1
EndSplineSet
EndChar

StartChar: G
Encoding: 71 71 42
Width: 642
GlyphClass: 2
Flags: W
LayerCount: 2
Fore
SplineSet
352 -12 m 0,0,1
 203 -12 203 -12 131.5 83 c 128,-1,2
 60 178 60 178 60 350 c 0,3,4
 60 712 60 712 371 712 c 0,5,6
 463 712 463 712 554 679 c 1,7,-1
 534 609 l 1,8,9
 431 634 431 634 372 634 c 128,-1,10
 313 634 313 634 272 612.5 c 128,-1,11
 231 591 231 591 209 551 c 0,12,13
 167 475 167 475 167 346 c 128,-1,14
 167 217 167 217 210 141.5 c 128,-1,15
 253 66 253 66 358 66 c 0,16,17
 440 66 440 66 485 120 c 1,18,-1
 485 273 l 1,19,-1
 347 273 l 1,20,-1
 347 351 l 1,21,-1
 582 351 l 1,22,-1
 582 -8 l 1,23,-1
 563 -8 l 2,24,25
 535 -8 535 -8 520 18 c 2,26,-1
 506 44 l 1,27,-1
 490 44 l 1,28,29
 468 17 468 17 427.5 2.5 c 128,-1,30
 387 -12 387 -12 352 -12 c 0,0,1
EndSplineSet
EndChar

StartChar: H
Encoding: 72 72 43
Width: 730
GlyphClass: 2
Flags: W
LayerCount: 2
Fore
SplineSet
195 0 m 1,0,-1
 95 0 l 1,1,-1
 95 700 l 1,2,-1
 195 700 l 1,3,-1
 195 396 l 1,4,-1
 534 396 l 1,5,-1
 534 700 l 1,6,-1
 634 700 l 1,7,-1
 634 0 l 1,8,-1
 534 0 l 1,9,-1
 534 312 l 1,10,-1
 195 312 l 1,11,-1
 195 0 l 1,0,-1
EndSplineSet
EndChar

StartChar: I
Encoding: 73 73 44
Width: 278
GlyphClass: 2
Flags: W
LayerCount: 2
Fore
SplineSet
189 0 m 1,0,-1
 89 0 l 1,1,-1
 89 700 l 1,2,-1
 189 700 l 1,3,-1
 189 0 l 1,0,-1
EndSplineSet
EndChar

StartChar: J
Encoding: 74 74 45
Width: 288
GlyphClass: 2
Flags: W
LayerCount: 2
Fore
SplineSet
-10 -138 m 1,0,-1
 -10 -65 l 1,1,2
 49 -65 49 -65 74.5 -37 c 128,-1,3
 100 -9 100 -9 100 63 c 2,4,-1
 100 699 l 1,5,-1
 200 699 l 1,6,-1
 200 76 l 2,7,8
 200 -40 200 -40 152 -89 c 128,-1,9
 104 -138 104 -138 10 -138 c 2,10,-1
 -10 -138 l 1,0,-1
EndSplineSet
EndChar

StartChar: K
Encoding: 75 75 46
Width: 590
GlyphClass: 2
Flags: W
LayerCount: 2
Fore
SplineSet
563 700 m 1,0,-1
 320 373 l 1,1,-1
 579 -1 l 1,2,-1
 472 -15 l 1,3,-1
 218 366 l 1,4,-1
 451 700 l 1,5,-1
 563 700 l 1,0,-1
195 0 m 1,6,-1
 95 0 l 1,7,-1
 95 700 l 1,8,-1
 195 700 l 1,9,-1
 195 0 l 1,6,-1
EndSplineSet
EndChar

StartChar: L
Encoding: 76 76 47
Width: 507
GlyphClass: 2
Flags: W
LayerCount: 2
Fore
SplineSet
87 0 m 1,0,-1
 87 700 l 1,1,-1
 187 700 l 1,2,-1
 187 86 l 1,3,-1
 487 86 l 1,4,-1
 487 0 l 1,5,-1
 87 0 l 1,0,-1
EndSplineSet
EndChar

StartChar: M
Encoding: 77 77 48
Width: 910
GlyphClass: 2
Flags: W
LayerCount: 2
Fore
SplineSet
819 700 m 1,0,-1
 819 0 l 1,1,-1
 719 0 l 1,2,-1
 719 489 l 1,3,-1
 728 608 l 1,4,-1
 712 611 l 1,5,6
 692 525 692 525 675 480 c 2,7,-1
 493 0 l 1,8,-1
 416 0 l 1,9,-1
 235 480 l 2,10,11
 222 512 222 512 204 588 c 1,12,-1
 198 611 l 1,13,-1
 182 608 l 1,14,15
 191 521 191 521 191 489 c 2,16,-1
 191 0 l 1,17,-1
 91 0 l 1,18,-1
 91 700 l 1,19,-1
 248 700 l 1,20,-1
 417 251 l 2,21,22
 440 192 440 192 444 111 c 1,23,-1
 446 85 l 1,24,-1
 464 85 l 1,25,26
 467 181 467 181 493 251 c 2,27,-1
 662 700 l 1,28,-1
 819 700 l 1,0,-1
EndSplineSet
EndChar

StartChar: N
Encoding: 78 78 49
Width: 724
GlyphClass: 2
Flags: W
LayerCount: 2
Fore
SplineSet
190 449 m 2,0,-1
 190 0 l 1,1,-1
 90 0 l 1,2,-1
 90 700 l 1,3,-1
 180 700 l 1,4,-1
 482 252 l 2,5,6
 508 215 508 215 526 148 c 1,7,-1
 532 127 l 1,8,-1
 548 130 l 1,9,10
 534 216 534 216 534 248 c 2,11,-1
 534 700 l 1,12,-1
 634 700 l 1,13,-1
 634 0 l 1,14,-1
 544 0 l 1,15,-1
 240 449 l 2,16,17
 214 487 214 487 198 550 c 1,18,-1
 192 571 l 1,19,-1
 176 568 l 1,20,21
 190 481 190 481 190 449 c 2,0,-1
EndSplineSet
EndChar

StartChar: O
Encoding: 79 79 50
Width: 735
GlyphClass: 2
Flags: W
LayerCount: 2
Fore
SplineSet
675 350 m 0,0,1
 675 -12 675 -12 367.5 -12 c 128,-1,2
 60 -12 60 -12 60 350 c 128,-1,3
 60 712 60 712 367 712 c 0,4,5
 524 712 524 712 599.5 618 c 128,-1,6
 675 524 675 524 675 350 c 0,0,1
368 66 m 0,7,8
 570 66 570 66 570 350 c 128,-1,9
 570 634 570 634 368 634 c 0,10,11
 254 634 254 634 208 551 c 0,12,13
 167 476 167 476 167 350 c 0,14,15
 167 142 167 142 270 88 c 0,16,17
 311 66 311 66 368 66 c 0,7,8
EndSplineSet
EndChar

StartChar: P
Encoding: 80 80 51
Width: 559
GlyphClass: 2
Flags: W
LayerCount: 2
Fore
SplineSet
188 0 m 1,0,-1
 88 0 l 1,1,-1
 88 700 l 1,2,-1
 307 700 l 2,3,4
 419 700 419 700 478 644.5 c 128,-1,5
 537 589 537 589 537 479 c 0,6,7
 537 258 537 258 267 258 c 2,8,-1
 188 258 l 1,9,-1
 188 0 l 1,0,-1
188 334 m 1,10,-1
 284 334 l 2,11,12
 358 334 358 334 399.5 371 c 128,-1,13
 441 408 441 408 441 479 c 0,14,15
 441 626 441 626 299 626 c 2,16,-1
 188 626 l 1,17,-1
 188 334 l 1,10,-1
EndSplineSet
EndChar

StartChar: Q
Encoding: 81 81 52
Width: 735
GlyphClass: 2
Flags: W
LayerCount: 2
Fore
SplineSet
675 350 m 0,0,1
 675 129 675 129 557 41 c 1,2,-1
 638 -46 l 1,3,-1
 590 -79 l 2,4,5
 579 -86 579 -86 567 -86 c 0,6,7
 540 -86 540 -86 520 -59 c 2,8,-1
 474 2 l 1,9,10
 426 -12 426 -12 367 -12 c 0,11,12
 60 -12 60 -12 60 350 c 128,-1,13
 60 712 60 712 367 712 c 0,14,15
 524 712 524 712 599.5 618 c 128,-1,16
 675 524 675 524 675 350 c 0,0,1
570 350 m 0,17,18
 570 634 570 634 368 634 c 0,19,20
 254 634 254 634 208 551 c 0,21,22
 167 476 167 476 167 350 c 0,23,24
 167 142 167 142 270 88 c 0,25,26
 311 66 311 66 356.5 66 c 128,-1,27
 402 66 402 66 422 71 c 1,28,-1
 350 169 l 1,29,-1
 405 206 l 1,30,-1
 495 108 l 1,31,32
 570 175 570 175 570 350 c 0,17,18
EndSplineSet
EndChar

StartChar: R
Encoding: 82 82 53
Width: 610
GlyphClass: 2
Flags: W
LayerCount: 2
Fore
SplineSet
188 0 m 1,0,-1
 88 0 l 1,1,-1
 88 700 l 1,2,-1
 307 700 l 2,3,4
 419 700 419 700 478 647.5 c 128,-1,5
 537 595 537 595 537 491 c 0,6,7
 537 345 537 345 411 298 c 1,8,-1
 595 0 l 1,9,-1
 484 0 l 1,10,-1
 320 278 l 1,11,12
 286 276 286 276 267 276 c 2,13,-1
 188 276 l 1,14,-1
 188 0 l 1,0,-1
188 352 m 1,15,-1
 284 352 l 2,16,17
 441 352 441 352 441 491 c 0,18,19
 441 626 441 626 299 626 c 2,20,-1
 188 626 l 1,21,-1
 188 352 l 1,15,-1
EndSplineSet
EndChar

StartChar: S
Encoding: 83 83 54
Width: 547
GlyphClass: 2
Flags: W
LayerCount: 2
Fore
SplineSet
267 67 m 0,0,1
 318 67 318 67 352.5 95 c 128,-1,2
 387 123 387 123 387 171 c 0,3,4
 387 245 387 245 279 296 c 2,5,-1
 177 344 l 2,6,7
 52 403 52 403 52 519 c 0,8,9
 52 608 52 608 122 660 c 128,-1,10
 192 712 192 712 286 712 c 0,11,12
 365 712 365 712 424 691 c 0,13,14
 443 684 443 684 478 670 c 1,15,-1
 451 599 l 1,16,17
 354 635 354 635 284 635 c 0,18,19
 160 635 160 635 160 540 c 0,20,21
 160 505 160 505 180.5 481.5 c 128,-1,22
 201 458 201 458 245 437 c 2,23,-1
 365 378 l 2,24,25
 498 312 498 312 498 196 c 0,26,27
 498 141 498 141 477 99 c 128,-1,28
 456 57 456 57 421 34 c 0,29,30
 351 -12 351 -12 254 -12 c 128,-1,31
 157 -12 157 -12 37 41 c 1,32,-1
 69 116 l 1,33,34
 179 67 179 67 267 67 c 0,0,1
EndSplineSet
EndChar

StartChar: T
Encoding: 84 84 55
Width: 535
GlyphClass: 2
Flags: W
LayerCount: 2
Fore
SplineSet
317 0 m 1,0,-1
 216 0 l 1,1,-1
 216 611 l 1,2,-1
 3 611 l 1,3,-1
 3 700 l 1,4,-1
 532 700 l 1,5,-1
 532 611 l 1,6,-1
 317 611 l 1,7,-1
 317 0 l 1,0,-1
EndSplineSet
EndChar

StartChar: U
Encoding: 85 85 56
Width: 694
GlyphClass: 2
Flags: W
LayerCount: 2
Fore
SplineSet
614 700 m 1,0,-1
 614 260 l 2,1,2
 614 -12 614 -12 347 -12 c 128,-1,3
 80 -12 80 -12 80 260 c 2,4,-1
 80 700 l 1,5,-1
 180 700 l 1,6,-1
 180 280 l 2,7,8
 180 178 180 178 215 124.5 c 128,-1,9
 250 71 250 71 347 71 c 128,-1,10
 444 71 444 71 479 124.5 c 128,-1,11
 514 178 514 178 514 280 c 2,12,-1
 514 700 l 1,13,-1
 614 700 l 1,0,-1
EndSplineSet
EndChar

StartChar: V
Encoding: 86 86 57
Width: 614
GlyphClass: 2
Flags: W
LayerCount: 2
Fore
SplineSet
611 700 m 1,0,-1
 359 0 l 1,1,-1
 229 0 l 1,2,-1
 3 700 l 1,3,-1
 103 700 l 1,4,-1
 247 247 l 2,5,6
 267 183 267 183 282 108 c 2,7,-1
 287 83 l 1,8,-1
 305 83 l 1,9,10
 325 174 325 174 351 247 c 2,11,-1
 511 700 l 1,12,-1
 611 700 l 1,0,-1
EndSplineSet
EndChar

StartChar: W
Encoding: 87 87 58
Width: 918
GlyphClass: 2
Flags: W
LayerCount: 2
Fore
SplineSet
430 461 m 2,0,-1
 323 0 l 1,1,-1
 186 0 l 1,2,-1
 7 700 l 1,3,-1
 113 700 l 1,4,-1
 226 229 l 2,5,6
 241 165 241 165 246 106 c 1,7,-1
 247 85 l 1,8,-1
 263 85 l 1,9,10
 269 164 269 164 284 229 c 2,11,-1
 391 700 l 1,12,-1
 527 700 l 1,13,-1
 634 229 l 2,14,15
 646 178 646 178 653 106 c 2,16,-1
 655 85 l 1,17,-1
 671 85 l 1,18,19
 676 164 676 164 692 229 c 2,20,-1
 805 700 l 1,21,-1
 911 700 l 1,22,-1
 732 0 l 1,23,-1
 595 0 l 1,24,-1
 488 461 l 2,25,26
 476 512 476 512 469 584 c 2,27,-1
 467 605 l 1,28,-1
 451 605 l 1,29,30
 445 526 445 526 430 461 c 2,0,-1
EndSplineSet
EndChar

StartChar: X
Encoding: 88 88 59
Width: 581
GlyphClass: 2
Flags: W
LayerCount: 2
Fore
SplineSet
302 280 m 1,0,-1
 286 280 l 1,1,2
 265 229 265 229 223 163 c 2,3,-1
 120 0 l 1,4,-1
 4 0 l 1,5,-1
 246 363 l 1,6,-1
 43 700 l 1,7,-1
 154 700 l 1,8,-1
 239 542 l 1,9,-1
 288 440 l 1,10,-1
 304 440 l 1,11,12
 326 491 326 491 357 542 c 2,13,-1
 450 700 l 1,14,-1
 561 700 l 1,15,-1
 346 363 l 1,16,-1
 567 0 l 1,17,-1
 451 0 l 1,18,-1
 361 163 l 1,19,-1
 302 280 l 1,0,-1
EndSplineSet
EndChar

StartChar: Y
Encoding: 89 89 60
Width: 560
GlyphClass: 2
Flags: W
LayerCount: 2
Fore
SplineSet
325 0 m 1,0,-1
 227 0 l 1,1,-1
 227 263 l 1,2,-1
 3 700 l 1,3,-1
 109 700 l 1,4,-1
 238 429 l 2,5,6
 258 387 258 387 266 339 c 1,7,-1
 268 323 l 1,8,-1
 284 323 l 1,9,10
 293 382 293 382 316 429 c 2,11,-1
 451 700 l 1,12,-1
 557 700 l 1,13,-1
 325 263 l 1,14,-1
 325 0 l 1,0,-1
EndSplineSet
EndChar

StartChar: Z
Encoding: 90 90 61
Width: 545
GlyphClass: 2
Flags: W
LayerCount: 2
Fore
SplineSet
242 86 m 2,0,-1
 515 86 l 1,1,-1
 515 0 l 1,2,-1
 25 0 l 1,3,-1
 25 86 l 1,4,-1
 321 529 l 2,5,6
 349 571 349 571 386 608 c 2,7,-1
 399 621 l 1,8,-1
 390 637 l 1,9,10
 341 618 341 618 290 618 c 2,11,-1
 53 618 l 1,12,-1
 53 700 l 1,13,-1
 494 700 l 1,14,-1
 494 618 l 1,15,-1
 195 175 l 2,16,17
 169 136 169 136 130 95 c 1,18,-1
 117 82 l 1,19,-1
 126 66 l 1,20,21
 170 86 170 86 242 86 c 2,0,-1
EndSplineSet
EndChar

StartChar: bracketleft
Encoding: 91 91 62
Width: 322
GlyphClass: 2
Flags: W
LayerCount: 2
Fore
SplineSet
90 -148 m 1,0,-1
 90 767 l 1,1,-1
 292 767 l 1,2,-1
 292 687 l 1,3,-1
 182 687 l 1,4,-1
 182 -68 l 1,5,-1
 292 -68 l 1,6,-1
 292 -148 l 1,7,-1
 90 -148 l 1,0,-1
EndSplineSet
EndChar

StartChar: backslash
Encoding: 92 92 63
Width: 353
GlyphClass: 2
Flags: W
LayerCount: 2
Fore
SplineSet
377 -208 m 1,0,-1
 282 -208 l 1,1,-1
 -25 740 l 1,2,-1
 70 740 l 1,3,-1
 377 -208 l 1,0,-1
EndSplineSet
EndChar

StartChar: bracketright
Encoding: 93 93 64
Width: 322
GlyphClass: 2
Flags: W
LayerCount: 2
Fore
SplineSet
232 767 m 1,0,-1
 232 -148 l 1,1,-1
 30 -148 l 1,2,-1
 30 -68 l 1,3,-1
 140 -68 l 1,4,-1
 140 687 l 1,5,-1
 30 687 l 1,6,-1
 30 767 l 1,7,-1
 232 767 l 1,0,-1
EndSplineSet
EndChar

StartChar: asciicircum
Encoding: 94 94 65
Width: 550
GlyphClass: 2
Flags: W
LayerCount: 2
Fore
SplineSet
451 179 m 1,0,-1
 334 365 l 1,1,2
 306 405 306 405 290 468 c 1,3,-1
 284 489 l 1,4,-1
 268 489 l 1,5,6
 250 410 250 410 218 365 c 1,7,-1
 101 179 l 1,8,-1
 60 200 l 1,9,-1
 251 581 l 1,10,-1
 301 581 l 1,11,-1
 492 200 l 1,12,-1
 451 179 l 1,0,-1
EndSplineSet
EndChar

StartChar: underscore
Encoding: 95 95 66
Width: 656
GlyphClass: 2
Flags: W
LayerCount: 2
Fore
SplineSet
20 0 m 1,0,-1
 20 71 l 1,1,-1
 634 71 l 1,2,-1
 634 0 l 1,3,-1
 20 0 l 1,0,-1
EndSplineSet
EndChar

StartChar: grave
Encoding: 96 96 67
Width: 308
GlyphClass: 2
Flags: W
LayerCount: 2
Fore
SplineSet
30 712 m 0,0,1
 30 723 30 723 37 733 c 2,2,-1
 69 778 l 1,3,-1
 269 633 l 1,4,-1
 238 588 l 1,5,-1
 64 670 l 2,6,7
 30 685 30 685 30 712 c 0,0,1
EndSplineSet
EndChar

StartChar: a
Encoding: 97 97 68
Width: 564
GlyphClass: 2
Flags: W
LayerCount: 2
Fore
SplineSet
476 358 m 2,0,-1
 476 123 l 2,1,2
 476 89 476 89 483 74.5 c 128,-1,3
 490 60 490 60 514 53 c 1,4,-1
 500 -7 l 1,5,6
 493 -12 493 -12 469.5 -11.5 c 128,-1,7
 446 -11 446 -11 431 -2.5 c 128,-1,8
 416 6 416 6 402 31 c 2,9,-1
 387 58 l 1,10,-1
 371 58 l 1,11,12
 318 -12 318 -12 224 -12 c 0,13,14
 147 -12 147 -12 102 28.5 c 128,-1,15
 57 69 57 69 57 146 c 128,-1,16
 57 223 57 223 107 261 c 128,-1,17
 157 299 157 299 263 307 c 2,18,-1
 377 316 l 1,19,-1
 377 349 l 2,20,21
 377 409 377 409 351 434.5 c 128,-1,22
 325 460 325 460 264.5 460 c 128,-1,23
 204 460 204 460 114 438 c 1,24,-1
 96 497 l 1,25,26
 130 510 130 510 182 519 c 128,-1,27
 234 528 234 528 272 528 c 0,28,29
 373 528 373 528 424.5 487.5 c 128,-1,30
 476 447 476 447 476 358 c 2,0,-1
377 165 m 2,31,-1
 377 254 l 1,32,-1
 281 247 l 2,33,34
 159 238 159 238 159 150 c 0,35,36
 159 56 159 56 253 56 c 0,37,38
 306 56 306 56 341.5 81.5 c 128,-1,39
 377 107 377 107 377 165 c 2,31,-1
EndSplineSet
EndChar

StartChar: b
Encoding: 98 98 69
Width: 583
GlyphClass: 2
Flags: W
LayerCount: 2
Fore
SplineSet
327 528 m 128,-1,1
 429 528 429 528 481 457.5 c 128,-1,2
 533 387 533 387 533 258 c 128,-1,3
 533 129 533 129 473.5 58.5 c 128,-1,4
 414 -12 414 -12 291 -12 c 0,5,6
 217 -12 217 -12 78 18 c 1,7,-1
 78 740 l 1,8,-1
 178 740 l 1,9,-1
 178 550 l 2,10,11
 178 505 178 505 166 466 c 2,12,-1
 162 453 l 1,13,-1
 178 444 l 1,14,0
 225 528 225 528 327 528 c 128,-1,1
367.5 446 m 128,-1,16
 342 460 342 460 296 460 c 128,-1,17
 250 460 250 460 214 434 c 128,-1,18
 178 408 178 408 178 350 c 2,19,-1
 178 73 l 1,20,21
 226 55 226 55 276.5 55 c 128,-1,22
 327 55 327 55 357 69.5 c 128,-1,23
 387 84 387 84 402 113.5 c 128,-1,24
 417 143 417 143 422 176 c 128,-1,25
 427 209 427 209 427 259 c 128,-1,26
 427 309 427 309 422.5 341.5 c 128,-1,27
 418 374 418 374 405.5 403 c 128,-1,15
 393 432 393 432 367.5 446 c 128,-1,16
EndSplineSet
EndChar

StartChar: c
Encoding: 99 99 70
Width: 463
GlyphClass: 2
Flags: W
LayerCount: 2
Fore
SplineSet
191 110.5 m 128,-1,1
 226 57 226 57 292.5 57 c 128,-1,2
 359 57 359 57 418 75 c 1,3,-1
 438 14 l 1,4,5
 377 -12 377 -12 298 -12 c 0,6,7
 50 -12 50 -12 50 258 c 128,-1,8
 50 528 50 528 298 528 c 0,9,10
 377 528 377 528 438 502 c 1,11,-1
 418 443 l 1,12,13
 365 460 365 460 295.5 460 c 128,-1,14
 226 460 226 460 191 406 c 128,-1,15
 156 352 156 352 156 258 c 128,-1,0
 156 164 156 164 191 110.5 c 128,-1,1
EndSplineSet
EndChar

StartChar: d
Encoding: 100 100 71
Width: 582
GlyphClass: 2
Flags: W
LayerCount: 2
Fore
SplineSet
186 407 m 128,-1,1
 156 354 156 354 156 258 c 128,-1,2
 156 162 156 162 184.5 109 c 128,-1,3
 213 56 213 56 284.5 56 c 128,-1,4
 356 56 356 56 402 96 c 1,5,-1
 402 440 l 1,6,7
 356 460 356 460 286 460 c 128,-1,0
 216 460 216 460 186 407 c 128,-1,1
263 -12 m 0,8,9
 157 -12 157 -12 103.5 58 c 128,-1,10
 50 128 50 128 50 256 c 128,-1,11
 50 384 50 384 112 456 c 128,-1,12
 174 528 174 528 289 528 c 0,13,14
 338 528 338 528 386 510 c 2,15,-1
 402 504 l 1,16,-1
 402 740 l 1,17,-1
 502 740 l 1,18,-1
 502 103 l 1,19,-1
 526 -8 l 1,20,-1
 478 -8 l 2,21,22
 450 -8 450 -8 435 18 c 2,23,-1
 421 44 l 1,24,-1
 405 44 l 1,25,26
 382 12 382 12 349 0 c 128,-1,27
 316 -12 316 -12 263 -12 c 0,8,9
EndSplineSet
EndChar

StartChar: e
Encoding: 101 101 72
Width: 538
GlyphClass: 2
Flags: W
LayerCount: 2
Fore
SplineSet
474 27 m 1,0,1
 382 -12 382 -12 287 -12 c 0,2,3
 171 -12 171 -12 110.5 60.5 c 128,-1,4
 50 133 50 133 50 256 c 128,-1,5
 50 379 50 379 108 453.5 c 128,-1,6
 166 528 166 528 277 528 c 0,7,8
 493 528 493 528 493 273 c 2,9,-1
 493 236 l 1,10,-1
 156 236 l 1,11,12
 156 59 156 59 297 59 c 0,13,14
 371 59 371 59 454 87 c 1,15,-1
 474 27 l 1,0,1
393 298 m 1,16,17
 393 375 393 375 368 417.5 c 128,-1,18
 343 460 343 460 276.5 460 c 128,-1,19
 210 460 210 460 184.5 418 c 128,-1,20
 159 376 159 376 156 298 c 1,21,-1
 393 298 l 1,16,17
EndSplineSet
EndChar

StartChar: f
Encoding: 102 102 73
Width: 369
GlyphClass: 2
Flags: W
LayerCount: 2
Fore
SplineSet
116 556 m 2,0,1
 116 661 116 661 160.5 706.5 c 128,-1,2
 205 752 205 752 307 752 c 0,3,4
 348 752 348 752 389 745 c 1,5,-1
 378 680 l 1,6,7
 349 684 349 684 308 684 c 0,8,9
 216 684 216 684 216 575 c 2,10,-1
 216 516 l 1,11,-1
 364 516 l 1,12,-1
 364 448 l 1,13,-1
 216 448 l 1,14,-1
 216 0 l 1,15,-1
 116 0 l 1,16,-1
 116 448 l 1,17,-1
 40 448 l 1,18,-1
 40 483 l 1,19,-1
 116 516 l 1,20,-1
 116 556 l 2,0,1
EndSplineSet
EndChar

StartChar: g
Encoding: 103 103 74
Width: 580
GlyphClass: 2
Flags: W
LayerCount: 2
Fore
SplineSet
402 73 m 1,0,1
 354 -12 354 -12 257 -12 c 128,-1,2
 160 -12 160 -12 105 59.5 c 128,-1,3
 50 131 50 131 50 258 c 128,-1,4
 50 385 50 385 111 456.5 c 128,-1,5
 172 528 172 528 289 528 c 0,6,7
 363 528 363 528 502 498 c 1,8,-1
 502 -23 l 2,9,10
 502 -114 502 -114 438 -167 c 128,-1,11
 374 -220 374 -220 269.5 -220 c 128,-1,12
 165 -220 165 -220 71 -175 c 1,13,-1
 94 -111 l 1,14,15
 99 -113 99 -113 117.5 -120 c 128,-1,16
 136 -127 136 -127 143 -130 c 128,-1,17
 150 -133 150 -133 167 -138 c 128,-1,18
 184 -143 184 -143 195 -146 c 0,19,20
 224 -152 224 -152 253 -152 c 0,21,22
 324 -152 324 -152 362.5 -115 c 128,-1,23
 401 -78 401 -78 404 -17 c 0,24,25
 406 18 406 18 415 52 c 2,26,-1
 418 64 l 1,27,-1
 402 73 l 1,0,1
287 56 m 0,28,29
 332 56 332 56 367 82 c 128,-1,30
 402 108 402 108 402 166 c 2,31,-1
 402 448 l 1,32,33
 342 460 342 460 290 460 c 0,34,35
 217 460 217 460 186.5 407 c 128,-1,36
 156 354 156 354 156 257 c 0,37,38
 156 165 156 165 176 116 c 0,39,40
 201 56 201 56 287 56 c 0,28,29
EndSplineSet
EndChar

StartChar: h
Encoding: 104 104 75
Width: 599
GlyphClass: 2
Flags: W
LayerCount: 2
Fore
SplineSet
316 528 m 0,0,1
 421 528 421 528 469 478 c 128,-1,2
 517 428 517 428 517 319 c 2,3,-1
 517 0 l 1,4,-1
 417 0 l 1,5,-1
 417 318 l 2,6,7
 417 386 417 386 393.5 423 c 128,-1,8
 370 460 370 460 310 460 c 128,-1,9
 250 460 250 460 214 434 c 128,-1,10
 178 408 178 408 178 350 c 2,11,-1
 178 0 l 1,12,-1
 78 0 l 1,13,-1
 78 740 l 1,14,-1
 178 740 l 1,15,-1
 178 550 l 2,16,17
 178 505 178 505 166 466 c 2,18,-1
 162 453 l 1,19,-1
 178 444 l 1,20,21
 201 486 201 486 239 507 c 128,-1,22
 277 528 277 528 316 528 c 0,0,1
EndSplineSet
EndChar

StartChar: i
Encoding: 105 105 76
Width: 264
GlyphClass: 2
Flags: W
LayerCount: 2
Fore
SplineSet
182 0 m 1,0,-1
 82 0 l 1,1,-1
 82 516 l 1,2,-1
 182 516 l 1,3,-1
 182 0 l 1,0,-1
70 691 m 128,-1,5
 70 717 70 717 88 735 c 128,-1,6
 106 753 106 753 132 753 c 128,-1,7
 158 753 158 753 176 735 c 128,-1,8
 194 717 194 717 194 691 c 128,-1,9
 194 665 194 665 176 647 c 128,-1,10
 158 629 158 629 132 629 c 128,-1,11
 106 629 106 629 88 647 c 128,-1,4
 70 665 70 665 70 691 c 128,-1,5
EndSplineSet
EndChar

StartChar: j
Encoding: 106 106 77
Width: 269
GlyphClass: 2
Flags: W
LayerCount: 2
Fore
SplineSet
-2 -220 m 2,0,-1
 -23 -220 l 1,1,-1
 -23 -147 l 1,2,3
 34 -147 34 -147 60.5 -116.5 c 128,-1,4
 87 -86 87 -86 87 -14 c 2,5,-1
 87 516 l 1,6,-1
 187 516 l 1,7,-1
 187 -5 l 2,8,9
 187 -122 187 -122 138.5 -171 c 128,-1,10
 90 -220 90 -220 -2 -220 c 2,0,-1
75 691 m 128,-1,12
 75 717 75 717 93 735 c 128,-1,13
 111 753 111 753 137 753 c 128,-1,14
 163 753 163 753 181 735 c 128,-1,15
 199 717 199 717 199 691 c 128,-1,16
 199 665 199 665 181 647 c 128,-1,17
 163 629 163 629 137 629 c 128,-1,18
 111 629 111 629 93 647 c 128,-1,11
 75 665 75 665 75 691 c 128,-1,12
EndSplineSet
EndChar

StartChar: k
Encoding: 107 107 78
Width: 566
GlyphClass: 2
Flags: W
LayerCount: 2
Fore
SplineSet
178 740 m 1,0,-1
 178 0 l 1,1,-1
 78 0 l 1,2,-1
 78 740 l 1,3,-1
 178 740 l 1,0,-1
524 516 m 1,4,-1
 311 308 l 1,5,-1
 556 -1 l 1,6,-1
 440 -15 l 1,7,-1
 200 308 l 1,8,-1
 386 516 l 1,9,-1
 524 516 l 1,4,-1
EndSplineSet
EndChar

StartChar: l
Encoding: 108 108 79
Width: 266
GlyphClass: 2
Flags: W
LayerCount: 2
Fore
SplineSet
183 0 m 1,0,-1
 83 0 l 1,1,-1
 83 740 l 1,2,-1
 183 740 l 1,3,-1
 183 0 l 1,0,-1
EndSplineSet
EndChar

StartChar: m
Encoding: 109 109 80
Width: 905
GlyphClass: 2
Flags: W
LayerCount: 2
Fore
SplineSet
320 528 m 0,0,1
 417 528 417 528 465 472 c 1,2,-1
 481 472 l 1,3,4
 512 505 512 505 540.5 516.5 c 128,-1,5
 569 528 569 528 613 528 c 0,6,7
 717 528 717 528 769.5 475 c 128,-1,8
 822 422 822 422 822 320 c 2,9,-1
 822 0 l 1,10,-1
 722 0 l 1,11,-1
 722 319 l 2,12,13
 722 460 722 460 610 460 c 0,14,15
 544 460 544 460 494 418 c 1,16,17
 508 376 508 376 508 320 c 2,18,-1
 508 0 l 1,19,-1
 408 0 l 1,20,-1
 408 319 l 2,21,22
 408 387 408 387 387.5 423.5 c 128,-1,23
 367 460 367 460 302 460 c 128,-1,24
 237 460 237 460 190 422 c 1,25,-1
 190 0 l 1,26,-1
 90 0 l 1,27,-1
 90 415 l 1,28,-1
 67 524 l 1,29,-1
 116 524 l 2,30,31
 143 524 143 524 158 498 c 2,32,-1
 172 472 l 1,33,-1
 188 472 l 1,34,35
 219 505 219 505 247.5 516.5 c 128,-1,36
 276 528 276 528 320 528 c 0,0,1
EndSplineSet
EndChar

StartChar: n
Encoding: 110 110 81
Width: 611
GlyphClass: 2
Flags: W
LayerCount: 2
Fore
SplineSet
116 524 m 2,0,1
 143 524 143 524 158 498 c 2,2,-1
 172 472 l 1,3,-1
 188 472 l 1,4,5
 219 505 219 505 248 516.5 c 128,-1,6
 277 528 277 528 327 528 c 0,7,8
 432 528 432 528 480 478 c 128,-1,9
 528 428 528 428 528 319 c 2,10,-1
 528 0 l 1,11,-1
 428 0 l 1,12,-1
 428 318 l 2,13,14
 428 386 428 386 405 423 c 128,-1,15
 382 460 382 460 311.5 460 c 128,-1,16
 241 460 241 460 190 422 c 1,17,-1
 190 0 l 1,18,-1
 90 0 l 1,19,-1
 90 415 l 1,20,-1
 67 524 l 1,21,-1
 116 524 l 2,0,1
EndSplineSet
EndChar

StartChar: o
Encoding: 111 111 82
Width: 583
GlyphClass: 2
Flags: W
LayerCount: 2
Fore
SplineSet
533 258 m 128,-1,1
 533 129 533 129 473 58.5 c 128,-1,2
 413 -12 413 -12 291.5 -12 c 128,-1,3
 170 -12 170 -12 110 58.5 c 128,-1,4
 50 129 50 129 50 258 c 128,-1,5
 50 387 50 387 110 457.5 c 128,-1,6
 170 528 170 528 291.5 528 c 128,-1,7
 413 528 413 528 473 457.5 c 128,-1,0
 533 387 533 387 533 258 c 128,-1,1
156 258 m 128,-1,9
 156 56 156 56 291.5 56 c 128,-1,10
 427 56 427 56 427 258 c 128,-1,11
 427 460 427 460 291.5 460 c 128,-1,8
 156 460 156 460 156 258 c 128,-1,9
EndSplineSet
EndChar

StartChar: p
Encoding: 112 112 83
Width: 593
GlyphClass: 2
Flags: W
LayerCount: 2
Fore
SplineSet
311 460 m 128,-1,1
 247 460 247 460 191 422 c 1,2,-1
 191 71 l 1,3,4
 237 56 237 56 308 56 c 128,-1,5
 379 56 379 56 410 110 c 128,-1,6
 441 164 441 164 441 272 c 128,-1,7
 441 380 441 380 408 420 c 128,-1,0
 375 460 375 460 311 460 c 128,-1,1
337 528 m 0,8,9
 433 528 433 528 488 457.5 c 128,-1,10
 543 387 543 387 543 260 c 128,-1,11
 543 133 543 133 482 60.5 c 128,-1,12
 421 -12 421 -12 304 -12 c 0,13,14
 255 -12 255 -12 207 -2 c 1,15,-1
 191 2 l 1,16,-1
 191 -208 l 1,17,-1
 91 -208 l 1,18,-1
 91 413 l 1,19,-1
 67 524 l 1,20,-1
 116 524 l 2,21,22
 143 524 143 524 158 498 c 2,23,-1
 172 472 l 1,24,-1
 188 472 l 1,25,26
 219 506 219 506 249.5 517 c 128,-1,27
 280 528 280 528 337 528 c 0,8,9
EndSplineSet
EndChar

StartChar: q
Encoding: 113 113 84
Width: 580
GlyphClass: 2
Flags: W
LayerCount: 2
Fore
SplineSet
402 73 m 1,0,1
 354 -12 354 -12 257 -12 c 128,-1,2
 160 -12 160 -12 105 59.5 c 128,-1,3
 50 131 50 131 50 258 c 128,-1,4
 50 385 50 385 111 456.5 c 128,-1,5
 172 528 172 528 289 528 c 0,6,7
 363 528 363 528 502 498 c 1,8,-1
 502 -210 l 1,9,-1
 402 -210 l 1,10,-1
 402 -33 l 2,11,12
 402 12 402 12 414 51 c 2,13,-1
 418 64 l 1,14,-1
 402 73 l 1,0,1
402 167 m 2,15,-1
 402 447 l 1,16,17
 344 460 344 460 290 460 c 0,18,19
 217 460 217 460 186.5 407 c 128,-1,20
 156 354 156 354 156 257 c 0,21,22
 156 165 156 165 176 116 c 0,23,24
 201 56 201 56 283 56 c 0,25,26
 332 56 332 56 367 82.5 c 128,-1,27
 402 109 402 109 402 167 c 2,15,-1
EndSplineSet
EndChar

StartChar: r
Encoding: 114 114 85
Width: 361
GlyphClass: 2
Flags: W
LayerCount: 2
Fore
SplineSet
114 524 m 2,0,1
 141 524 141 524 156 498 c 2,2,-1
 170 472 l 1,3,-1
 186 472 l 1,4,5
 209 505 209 505 236.5 516.5 c 128,-1,6
 264 528 264 528 300.5 528 c 128,-1,7
 337 528 337 528 341 526 c 1,8,-1
 341 444 l 1,9,-1
 300 444 l 2,10,11
 222 444 222 444 190 411 c 1,12,-1
 190 0 l 1,13,-1
 90 0 l 1,14,-1
 90 415 l 1,15,-1
 67 524 l 1,16,-1
 114 524 l 2,0,1
EndSplineSet
EndChar

StartChar: s
Encoding: 115 115 86
Width: 503
GlyphClass: 2
Flags: W
LayerCount: 2
Fore
SplineSet
436 145 m 0,0,1
 436 65 436 65 382 26.5 c 128,-1,2
 328 -12 328 -12 240.5 -12 c 128,-1,3
 153 -12 153 -12 60 34 c 1,4,-1
 86 96 l 1,5,6
 179 56 179 56 235 56 c 0,7,8
 339 56 339 56 339 131 c 0,9,10
 339 159 339 159 323 176 c 128,-1,11
 307 193 307 193 258 213 c 2,12,-1
 195 238 l 1,13,14
 83 281 83 281 83 377 c 0,15,16
 83 447 83 447 136 487.5 c 128,-1,17
 189 528 189 528 264 528 c 128,-1,18
 339 528 339 528 423 496 c 1,19,-1
 402 433 l 1,20,21
 331 460 331 460 266 460 c 0,22,23
 174 460 174 460 174 390 c 0,24,25
 174 362 174 362 193 346.5 c 128,-1,26
 212 331 212 331 261 310 c 2,27,-1
 329 280 l 2,28,29
 384 256 384 256 410 225.5 c 128,-1,30
 436 195 436 195 436 145 c 0,0,1
EndSplineSet
EndChar

StartChar: t
Encoding: 116 116 87
Width: 395
GlyphClass: 2
Flags: W
LayerCount: 2
Fore
SplineSet
167 641 m 2,0,-1
 199 641 l 1,1,-1
 199 516 l 1,2,-1
 347 516 l 1,3,-1
 347 447 l 1,4,-1
 199 447 l 1,5,-1
 199 145 l 2,6,7
 199 103 199 103 214.5 81 c 128,-1,8
 230 59 230 59 271 59 c 128,-1,9
 312 59 312 59 352 67 c 1,10,-1
 365 1 l 1,11,12
 332 -12 332 -12 270 -12 c 0,13,14
 175 -12 175 -12 137 29.5 c 128,-1,15
 99 71 99 71 99 164 c 2,16,-1
 99 447 l 1,17,-1
 23 447 l 1,18,-1
 23 482 l 1,19,-1
 99 516 l 1,20,-1
 112 584 l 2,21,22
 122 641 122 641 167 641 c 2,0,-1
EndSplineSet
EndChar

StartChar: u
Encoding: 117 117 88
Width: 599
GlyphClass: 2
Flags: W
LayerCount: 2
Fore
SplineSet
261 -12 m 0,0,1
 169 -12 169 -12 126 39.5 c 128,-1,2
 83 91 83 91 83 197 c 2,3,-1
 83 516 l 1,4,-1
 183 516 l 1,5,-1
 183 198 l 2,6,7
 183 56 183 56 282 56 c 0,8,9
 355 56 355 56 409 94 c 1,10,-1
 409 516 l 1,11,-1
 509 516 l 1,12,-1
 509 101 l 1,13,-1
 532 -8 l 1,14,-1
 483 -8 l 2,15,16
 456 -8 456 -8 441 18 c 2,17,-1
 427 44 l 1,18,-1
 411 44 l 1,19,20
 380 11 380 11 348 -0.5 c 128,-1,21
 316 -12 316 -12 261 -12 c 0,0,1
EndSplineSet
EndChar

StartChar: v
Encoding: 118 118 89
Width: 538
GlyphClass: 2
Flags: W
LayerCount: 2
Fore
SplineSet
309 206 m 2,0,-1
 419 516 l 1,1,-1
 518 516 l 1,2,-1
 324 0 l 1,3,-1
 214 0 l 1,4,-1
 20 516 l 1,5,-1
 119 516 l 1,6,-1
 229 206 l 2,7,8
 246 156 246 156 257 104 c 2,9,-1
 261 85 l 1,10,-1
 277 85 l 1,11,12
 290 153 290 153 309 206 c 2,0,-1
EndSplineSet
EndChar

StartChar: w
Encoding: 119 119 90
Width: 826
GlyphClass: 2
Flags: W
LayerCount: 2
Fore
SplineSet
549 0 m 1,0,-1
 446 289 l 2,1,2
 429 335 429 335 423 405 c 2,3,-1
 421 427 l 1,4,-1
 405 427 l 1,5,6
 400 346 400 346 380 289 c 2,7,-1
 277 0 l 1,8,-1
 182 0 l 1,9,-1
 22 516 l 1,10,-1
 115 516 l 1,11,-1
 196 223 l 2,12,13
 210 176 210 176 220 105 c 2,14,-1
 223 84 l 1,15,-1
 239 84 l 1,16,17
 246 164 246 164 267 223 c 2,18,-1
 369 516 l 1,19,-1
 457 516 l 1,20,-1
 559 223 l 2,21,22
 577 172 577 172 584 106 c 1,23,-1
 587 84 l 1,24,-1
 603 84 l 1,25,26
 613 162 613 162 630 223 c 2,27,-1
 711 516 l 1,28,-1
 804 516 l 1,29,-1
 644 0 l 1,30,-1
 549 0 l 1,0,-1
EndSplineSet
EndChar

StartChar: x
Encoding: 120 120 91
Width: 539
GlyphClass: 2
Flags: W
LayerCount: 2
Fore
SplineSet
415 0 m 1,0,-1
 328 124 l 1,1,2
 295 173 295 173 282 200 c 2,3,-1
 277 210 l 1,4,-1
 261 210 l 1,5,6
 245 173 245 173 211 124 c 2,7,-1
 124 0 l 1,8,-1
 10 0 l 1,9,-1
 217 275 l 1,10,-1
 36 516 l 1,11,-1
 147 516 l 1,12,-1
 219 415 l 2,13,14
 244 379 244 379 256 350 c 1,15,-1
 261 340 l 1,16,-1
 277 340 l 1,17,18
 294 377 294 377 320 415 c 2,19,-1
 391 516 l 1,20,-1
 503 516 l 1,21,-1
 321 275 l 1,22,-1
 529 0 l 1,23,-1
 415 0 l 1,0,-1
EndSplineSet
EndChar

StartChar: y
Encoding: 121 121 92
Width: 511
GlyphClass: 2
Flags: W
LayerCount: 2
Fore
SplineSet
296 251 m 2,0,-1
 395 516 l 1,1,-1
 494 516 l 1,2,-1
 211 -208 l 1,3,-1
 108 -208 l 1,4,-1
 207 19 l 1,5,-1
 20 516 l 1,6,-1
 121 516 l 1,7,-1
 215 251 l 2,8,9
 232 201 232 201 243 148 c 2,10,-1
 247 130 l 1,11,-1
 263 130 l 1,12,13
 276 198 276 198 296 251 c 2,0,-1
EndSplineSet
EndChar

StartChar: z
Encoding: 122 122 93
Width: 457
GlyphClass: 2
Flags: W
LayerCount: 2
Fore
SplineSet
207 74 m 2,0,-1
 442 74 l 1,1,-1
 442 0 l 1,2,-1
 5 0 l 1,3,-1
 5 74 l 1,4,-1
 255 363 l 1,5,-1
 330 442 l 1,6,-1
 321 458 l 1,7,8
 274 442 274 442 224 442 c 2,9,-1
 35 442 l 1,10,-1
 35 516 l 1,11,-1
 432 516 l 1,12,-1
 432 442 l 1,13,-1
 182 153 l 1,14,-1
 109 75 l 1,15,-1
 116 60 l 1,16,17
 171 74 171 74 207 74 c 2,0,-1
EndSplineSet
EndChar

StartChar: braceleft
Encoding: 123 123 94
Width: 428
GlyphClass: 2
Flags: W
LayerCount: 2
Fore
SplineSet
386 -134 m 1,0,-1
 360 -134 l 2,1,2
 268 -134 268 -134 219.5 -85 c 128,-1,3
 171 -36 171 -36 171 81 c 2,4,-1
 171 141 l 2,5,6
 171 194 171 194 141 222 c 128,-1,7
 111 250 111 250 62 250 c 1,8,-1
 62 329 l 1,9,10
 111 329 111 329 141 357 c 128,-1,11
 171 385 171 385 171 438 c 2,12,-1
 171 498 l 2,13,14
 171 615 171 615 219.5 664 c 128,-1,15
 268 713 268 713 360 713 c 2,16,-1
 386 713 l 1,17,-1
 386 645 l 1,18,19
 320 645 320 645 291 621.5 c 128,-1,20
 262 598 262 598 262 538 c 2,21,-1
 262 478 l 2,22,23
 262 392 262 392 240.5 351 c 128,-1,24
 219 310 219 310 153 297 c 1,25,-1
 153 281 l 1,26,27
 219 274 219 274 240 236 c 128,-1,28
 261 198 261 198 261 111 c 2,29,-1
 261 38 l 2,30,31
 261 -20 261 -20 291 -43 c 128,-1,32
 321 -66 321 -66 386 -66 c 1,33,-1
 386 -134 l 1,0,-1
EndSplineSet
EndChar

StartChar: bar
Encoding: 124 124 95
Width: 270
GlyphClass: 2
Flags: W
LayerCount: 2
Fore
SplineSet
180 -208 m 1,0,-1
 90 -208 l 1,1,-1
 90 740 l 1,2,-1
 180 740 l 1,3,-1
 180 -208 l 1,0,-1
EndSplineSet
EndChar

StartChar: braceright
Encoding: 125 125 96
Width: 428
GlyphClass: 2
Flags: W
LayerCount: 2
Fore
SplineSet
68 -134 m 2,0,-1
 42 -134 l 1,1,-1
 42 -66 l 1,2,3
 107 -66 107 -66 137 -43 c 128,-1,4
 167 -20 167 -20 167 38 c 2,5,-1
 167 111 l 2,6,7
 167 198 167 198 188 236 c 128,-1,8
 209 274 209 274 275 281 c 1,9,-1
 275 297 l 1,10,11
 209 310 209 310 187.5 351 c 128,-1,12
 166 392 166 392 166 478 c 2,13,-1
 166 538 l 2,14,15
 166 598 166 598 137 621.5 c 128,-1,16
 108 645 108 645 42 645 c 1,17,-1
 42 713 l 1,18,-1
 68 713 l 2,19,20
 160 713 160 713 208.5 664 c 128,-1,21
 257 615 257 615 257 498 c 2,22,-1
 257 438 l 2,23,24
 257 385 257 385 287 357 c 128,-1,25
 317 329 317 329 366 329 c 1,26,-1
 366 250 l 1,27,28
 317 250 317 250 287 222 c 128,-1,29
 257 194 257 194 257 141 c 2,30,-1
 257 81 l 2,31,32
 257 -36 257 -36 208.5 -85 c 128,-1,33
 160 -134 160 -134 68 -134 c 2,0,-1
EndSplineSet
EndChar

StartChar: asciitilde
Encoding: 126 126 97
Width: 582
GlyphClass: 2
Flags: W
LayerCount: 2
Fore
SplineSet
438 210 m 0,0,1
 378 210 378 210 283 232 c 128,-1,2
 188 254 188 254 159 254 c 128,-1,3
 130 254 130 254 117.5 248 c 128,-1,4
 105 242 105 242 99.5 235 c 128,-1,5
 94 228 94 228 83 212 c 1,6,-1
 28 248 l 1,7,8
 68 329 68 329 142 329 c 0,9,10
 201 329 201 329 297.5 307 c 128,-1,11
 394 285 394 285 426 285 c 0,12,13
 479 285 479 285 497 325 c 1,14,-1
 553 287 l 1,15,16
 515 210 515 210 438 210 c 0,0,1
EndSplineSet
EndChar

StartChar: uni00A0
Encoding: 160 160 98
Width: 614
GlyphClass: 2
Flags: W
LayerCount: 2
Fore
SplineSet
544 142 m 0,0,1
 544 -12 544 -12 312 -12 c 0,2,3
 236 -12 236 -12 182 12.5 c 128,-1,4
 128 37 128 37 101 78.5 c 128,-1,5
 74 120 74 120 62 164 c 128,-1,6
 50 208 50 208 50 258 c 128,-1,7
 50 308 50 308 61.5 351.5 c 128,-1,8
 73 395 73 395 100.5 437 c 128,-1,9
 128 479 128 479 181 503.5 c 128,-1,10
 234 528 234 528 309 528 c 0,11,12
 544 528 544 528 544 376 c 0,13,14
 544 337 544 337 522 306 c 128,-1,15
 500 275 500 275 447 268 c 1,16,-1
 447 252 l 1,17,18
 499 245 499 245 521.5 212 c 128,-1,19
 544 179 544 179 544 142 c 0,0,1
438 371 m 0,20,21
 438 460 438 460 314 460 c 0,22,23
 156 460 156 460 156 258 c 128,-1,24
 156 56 156 56 314 56 c 0,25,26
 438 56 438 56 438 146 c 0,27,28
 438 178 438 178 421 202.5 c 128,-1,29
 404 227 404 227 364 227 c 2,30,-1
 301 228 l 1,31,-1
 301 292 l 1,32,-1
 364 293 l 2,33,34
 402 294 402 294 420 316 c 128,-1,35
 438 338 438 338 438 371 c 0,20,21
EndSplineSet
EndChar

StartChar: exclamdown
Encoding: 161 161 99
Width: 252
GlyphClass: 2
Flags: W
LayerCount: 2
Fore
SplineSet
202 457 m 128,-1,1
 202 428 202 428 181 407 c 128,-1,2
 160 386 160 386 131 386 c 128,-1,3
 102 386 102 386 81 407 c 128,-1,4
 60 428 60 428 60 457 c 128,-1,5
 60 486 60 486 81 507 c 128,-1,6
 102 528 102 528 131 528 c 128,-1,7
 160 528 160 528 181 507 c 128,-1,0
 202 486 202 486 202 457 c 128,-1,1
71 -184 m 1,8,-1
 91 280 l 1,9,-1
 171 280 l 1,10,-1
 191 -184 l 1,11,-1
 71 -184 l 1,8,-1
EndSplineSet
EndChar

StartChar: cent
Encoding: 162 162 100
Width: 465
GlyphClass: 2
Flags: W
LayerCount: 2
Fore
SplineSet
306 159 m 0,0,1
 360 159 360 159 426 175 c 1,2,-1
 445 118 l 1,3,4
 396 98 396 98 336 94 c 1,5,-1
 341 -11 l 1,6,-1
 257 -11 l 1,7,-1
 259 95 l 1,8,9
 60 119 60 119 60 348 c 0,10,11
 60 464 60 464 113 527.5 c 128,-1,12
 166 591 166 591 269 600 c 1,13,-1
 267 700 l 1,14,-1
 351 700 l 1,15,-1
 346 600 l 1,16,17
 395 595 395 595 445 578 c 1,18,-1
 426 523 l 1,19,20
 370 538 370 538 302.5 538 c 128,-1,21
 235 538 235 538 200.5 487.5 c 128,-1,22
 166 437 166 437 166 348 c 128,-1,23
 166 259 166 259 200 209 c 128,-1,24
 234 159 234 159 306 159 c 0,0,1
EndSplineSet
EndChar

StartChar: sterling
Encoding: 163 163 101
Width: 542
GlyphClass: 2
Flags: W
LayerCount: 2
Fore
SplineSet
214 324 m 1,0,-1
 221 201 l 1,1,2
 221 118 221 118 162 87 c 1,3,-1
 171 71 l 1,4,5
 206 82 206 82 246 82 c 2,6,-1
 522 82 l 1,7,-1
 522 0 l 1,8,-1
 42 0 l 1,9,-1
 42 83 l 1,10,11
 80 101 80 101 101 129 c 128,-1,12
 122 157 122 157 122 198 c 128,-1,13
 122 239 122 239 117 324 c 1,14,-1
 40 324 l 1,15,-1
 40 387 l 1,16,-1
 113 387 l 1,17,18
 107 509 107 509 107 534 c 0,19,20
 107 610 107 610 166 661 c 128,-1,21
 225 712 225 712 315 712 c 0,22,23
 352 712 352 712 371.5 708 c 128,-1,24
 391 704 391 704 401.5 702 c 128,-1,25
 412 700 412 700 426 696 c 1,26,-1
 445 689 l 2,27,28
 475 679 475 679 479 677 c 1,29,-1
 459 607 l 1,30,31
 378 634 378 634 316 634 c 128,-1,32
 254 634 254 634 230 603 c 128,-1,33
 206 572 206 572 206 508 c 128,-1,34
 206 444 206 444 210 387 c 1,35,-1
 398 387 l 1,36,-1
 398 324 l 1,37,-1
 214 324 l 1,0,-1
EndSplineSet
EndChar

StartChar: currency
Encoding: 164 164 102
Width: 573
GlyphClass: 2
Flags: W
LayerCount: 2
Fore
SplineSet
120 326 m 1,0,1
 83 377 83 377 83 443.5 c 128,-1,2
 83 510 83 510 121 562 c 1,3,-1
 50 630 l 1,4,-1
 102 682 l 1,5,-1
 169 609 l 1,6,7
 222 646 222 646 286.5 646 c 128,-1,8
 351 646 351 646 403 608 c 1,9,-1
 471 682 l 1,10,-1
 523 630 l 1,11,-1
 451 562 l 1,12,13
 489 508 489 508 489 443.5 c 128,-1,14
 489 379 489 379 452 326 c 1,15,-1
 523 260 l 1,16,-1
 471 208 l 1,17,-1
 406 279 l 1,18,19
 353 240 353 240 286 240 c 128,-1,20
 219 240 219 240 167 278 c 1,21,-1
 102 208 l 1,22,-1
 50 260 l 1,23,-1
 120 326 l 1,0,1
144 443 m 128,-1,25
 144 384 144 384 186 342.5 c 128,-1,26
 228 301 228 301 286 301 c 128,-1,27
 344 301 344 301 386 342.5 c 128,-1,28
 428 384 428 384 428 443 c 128,-1,29
 428 502 428 502 386 543.5 c 128,-1,30
 344 585 344 585 286 585 c 128,-1,31
 228 585 228 585 186 543.5 c 128,-1,24
 144 502 144 502 144 443 c 128,-1,25
EndSplineSet
EndChar

StartChar: yen
Encoding: 165 165 103
Width: 560
GlyphClass: 2
Flags: W
LayerCount: 2
Fore
SplineSet
34 260 m 1,0,-1
 34 323 l 1,1,-1
 196 323 l 1,2,-1
 3 700 l 1,3,-1
 109 700 l 1,4,-1
 238 429 l 2,5,6
 258 387 258 387 266 339 c 1,7,-1
 268 323 l 1,8,-1
 284 323 l 1,9,10
 293 382 293 382 316 429 c 2,11,-1
 451 700 l 1,12,-1
 557 700 l 1,13,-1
 357 323 l 1,14,-1
 518 323 l 1,15,-1
 518 260 l 1,16,-1
 325 260 l 1,17,-1
 325 191 l 1,18,-1
 518 191 l 1,19,-1
 518 128 l 1,20,-1
 325 128 l 1,21,-1
 325 0 l 1,22,-1
 227 0 l 1,23,-1
 227 128 l 1,24,-1
 34 128 l 1,25,-1
 34 191 l 1,26,-1
 227 191 l 1,27,-1
 227 260 l 1,28,-1
 34 260 l 1,0,-1
EndSplineSet
EndChar

StartChar: brokenbar
Encoding: 166 166 104
Width: 260
GlyphClass: 2
Flags: W
LayerCount: 2
Fore
SplineSet
170 317 m 1,0,-1
 90 317 l 1,1,-1
 90 740 l 1,2,-1
 170 740 l 1,3,-1
 170 317 l 1,0,-1
170 -208 m 1,4,-1
 90 -208 l 1,5,-1
 90 225 l 1,6,-1
 170 225 l 1,7,-1
 170 -208 l 1,4,-1
EndSplineSet
EndChar

StartChar: section
Encoding: 167 167 105
Width: 515
GlyphClass: 2
Flags: W
LayerCount: 2
Fore
SplineSet
380 200 m 1,0,1
 445 156 445 156 445 87 c 128,-1,2
 445 18 445 18 390.5 -21 c 128,-1,3
 336 -60 336 -60 249 -60 c 128,-1,4
 162 -60 162 -60 69 -14 c 1,5,-1
 95 48 l 1,6,7
 188 8 188 8 244 8 c 0,8,9
 348 8 348 8 348 83 c 0,10,11
 348 111 348 111 332 128 c 128,-1,12
 316 145 316 145 267 165 c 2,13,-1
 204 190 l 1,14,15
 92 233 92 233 92 329 c 0,16,17
 92 401 92 401 151 444 c 1,18,19
 83 485 83 485 83 553.5 c 128,-1,20
 83 622 83 622 136 662.5 c 128,-1,21
 189 703 189 703 264 703 c 128,-1,22
 339 703 339 703 423 671 c 1,23,-1
 402 608 l 1,24,25
 331 635 331 635 266 635 c 0,26,27
 174 635 174 635 174 565 c 0,28,29
 174 537 174 537 193 521.5 c 128,-1,30
 212 506 212 506 261 485 c 2,31,-1
 329 455 l 2,32,33
 384 431 384 431 410 400.5 c 128,-1,34
 436 370 436 370 436 320 c 0,35,36
 436 241 436 241 380 200 c 1,0,1
173 342 m 0,37,38
 173 314 173 314 197.5 293.5 c 128,-1,39
 222 273 222 273 270 252 c 2,40,-1
 300 239 l 1,41,42
 349 256 349 256 349 306 c 0,43,44
 349 361 349 361 258 398 c 2,45,-1
 218 414 l 1,46,47
 173 395 173 395 173 342 c 0,37,38
EndSplineSet
EndChar

StartChar: dieresis
Encoding: 168 168 106
Width: 386
GlyphClass: 2
Flags: W
LayerCount: 2
Fore
SplineSet
26 668 m 128,-1,1
 26 693 26 693 44 710.5 c 128,-1,2
 62 728 62 728 86.5 728 c 128,-1,3
 111 728 111 728 128.5 710.5 c 128,-1,4
 146 693 146 693 146 668 c 128,-1,5
 146 643 146 643 128.5 625.5 c 128,-1,6
 111 608 111 608 86.5 608 c 128,-1,7
 62 608 62 608 44 625.5 c 128,-1,0
 26 643 26 643 26 668 c 128,-1,1
360 668 m 128,-1,9
 360 643 360 643 342 625.5 c 128,-1,10
 324 608 324 608 299.5 608 c 128,-1,11
 275 608 275 608 257.5 625.5 c 128,-1,12
 240 643 240 643 240 668 c 128,-1,13
 240 693 240 693 257.5 710.5 c 128,-1,14
 275 728 275 728 299.5 728 c 128,-1,15
 324 728 324 728 342 710.5 c 128,-1,8
 360 693 360 693 360 668 c 128,-1,9
EndSplineSet
EndChar

StartChar: copyright
Encoding: 169 169 107
Width: 683
GlyphClass: 2
Flags: W
LayerCount: 2
Fore
SplineSet
539 482.5 m 128,-1,1
 618 406 618 406 618 278 c 128,-1,2
 618 150 618 150 540 73 c 128,-1,3
 462 -4 462 -4 334 -4 c 128,-1,4
 206 -4 206 -4 128 73 c 128,-1,5
 50 150 50 150 50 278 c 128,-1,6
 50 406 50 406 129 482.5 c 128,-1,7
 208 559 208 559 334 559 c 128,-1,0
 460 559 460 559 539 482.5 c 128,-1,1
180 115 m 128,-1,9
 240 55 240 55 335.5 55 c 128,-1,10
 431 55 431 55 491 114.5 c 128,-1,11
 551 174 551 174 551 276.5 c 128,-1,12
 551 379 551 379 489 439 c 128,-1,13
 427 499 427 499 333.5 499 c 128,-1,14
 240 499 240 499 180 439 c 128,-1,15
 120 379 120 379 120 277 c 128,-1,8
 120 175 120 175 180 115 c 128,-1,9
341 392 m 0,16,17
 269 392 269 392 269 274.5 c 128,-1,18
 269 157 269 157 341 157 c 0,19,20
 369 157 369 157 414 174 c 1,21,-1
 425 123 l 1,22,23
 385 108 385 108 341 108 c 0,24,25
 199 108 199 108 199 275.5 c 128,-1,26
 199 443 199 443 341 443 c 0,27,28
 390 443 390 443 425 427 c 1,29,-1
 413 379 l 1,30,31
 369 392 369 392 341 392 c 0,16,17
EndSplineSet
EndChar

StartChar: ordfeminine
Encoding: 170 170 108
Width: 344
GlyphClass: 2
Flags: W
LayerCount: 2
Fore
SplineSet
271 588 m 2,0,-1
 271 475 l 2,1,2
 271 462 271 462 275 457 c 128,-1,3
 279 452 279 452 293 448 c 1,4,-1
 283 409 l 1,5,6
 273 404 273 404 260 404 c 0,7,8
 230 404 230 404 218 446 c 1,9,-1
 214 446 l 1,10,11
 186 404 186 404 133 404 c 0,12,13
 96 404 96 404 73.5 424 c 128,-1,14
 51 444 51 444 51 485.5 c 128,-1,15
 51 527 51 527 76 545 c 128,-1,16
 101 563 101 563 158 568 c 1,17,-1
 205 573 l 1,18,-1
 205 583 l 2,19,20
 205 637 205 637 154 637 c 0,21,22
 134 637 134 637 101 630 c 2,23,-1
 80 626 l 1,24,-1
 65 665 l 1,25,26
 106 684 106 684 163 684 c 0,27,28
 271 684 271 684 271 588 c 2,0,-1
205 494 m 2,29,-1
 205 537 l 1,30,-1
 167 533 l 1,31,32
 115 529 115 529 115 487 c 0,33,34
 115 453 115 453 153 453 c 0,35,36
 205 453 205 453 205 494 c 2,29,-1
59 318 m 1,37,-1
 59 365 l 1,38,-1
 283 365 l 1,39,-1
 283 318 l 1,40,-1
 59 318 l 1,37,-1
EndSplineSet
EndChar

StartChar: guillemotleft
Encoding: 171 171 109
Width: 449
GlyphClass: 2
Flags: W
LayerCount: 2
Fore
SplineSet
169 41 m 1,0,-1
 33 213 l 1,1,-1
 33 305 l 1,2,-1
 169 476 l 1,3,-1
 214 448 l 1,4,-1
 120 258 l 1,5,-1
 214 69 l 1,6,-1
 169 41 l 1,0,-1
344 41 m 1,7,-1
 208 213 l 1,8,-1
 208 305 l 1,9,-1
 344 476 l 1,10,-1
 389 448 l 1,11,-1
 295 258 l 1,12,-1
 389 69 l 1,13,-1
 344 41 l 1,7,-1
EndSplineSet
EndChar

StartChar: logicalnot
Encoding: 172 172 110
Width: 640
GlyphClass: 2
Flags: W
LayerCount: 2
Fore
SplineSet
568 483 m 1,0,-1
 568 152 l 1,1,-1
 487 152 l 1,2,-1
 487 402 l 1,3,-1
 66 402 l 1,4,-1
 66 483 l 1,5,-1
 568 483 l 1,0,-1
EndSplineSet
EndChar

StartChar: registered
Encoding: 174 174 111
Width: 524
GlyphClass: 2
Flags: W
LayerCount: 2
Fore
SplineSet
415.5 673 m 128,-1,1
 474 616 474 616 474 519 c 128,-1,2
 474 422 474 422 415.5 364 c 128,-1,3
 357 306 357 306 260.5 306 c 128,-1,4
 164 306 164 306 106 363.5 c 128,-1,5
 48 421 48 421 48 518.5 c 128,-1,6
 48 616 48 616 107 673 c 128,-1,7
 166 730 166 730 261.5 730 c 128,-1,0
 357 730 357 730 415.5 673 c 128,-1,1
147 398 m 128,-1,9
 193 353 193 353 263 353 c 128,-1,10
 333 353 333 353 378.5 397.5 c 128,-1,11
 424 442 424 442 424 517.5 c 128,-1,12
 424 593 424 593 376.5 639.5 c 128,-1,13
 329 686 329 686 261 686 c 128,-1,14
 193 686 193 686 147 639.5 c 128,-1,15
 101 593 101 593 101 518 c 128,-1,8
 101 443 101 443 147 398 c 128,-1,9
235 408 m 1,16,-1
 190 408 l 1,17,-1
 190 631 l 1,18,-1
 269 631 l 2,19,20
 307 631 307 631 327 611 c 128,-1,21
 347 591 347 591 347 556 c 0,22,23
 347 503 347 503 303 491 c 1,24,-1
 360 408 l 1,25,-1
 310 408 l 1,26,-1
 259 485 l 1,27,-1
 235 485 l 1,28,-1
 235 408 l 1,16,-1
235 519 m 1,29,-1
 258 519 l 2,30,31
 299 519 299 519 299 556 c 0,32,33
 299 598 299 598 261 598 c 2,34,-1
 235 598 l 1,35,-1
 235 519 l 1,29,-1
EndSplineSet
EndChar

StartChar: macron
Encoding: 175 175 112
Width: 414
GlyphClass: 2
Flags: W
LayerCount: 2
Fore
SplineSet
50 637 m 1,0,-1
 50 706 l 1,1,-1
 364 706 l 1,2,-1
 364 637 l 1,3,-1
 50 637 l 1,0,-1
EndSplineSet
EndChar

StartChar: degree
Encoding: 176 176 113
Width: 332
GlyphClass: 2
Flags: W
LayerCount: 2
Fore
SplineSet
69.5 472.5 m 128,-1,1
 30 509 30 509 30 565.5 c 128,-1,2
 30 622 30 622 69.5 659.5 c 128,-1,3
 109 697 109 697 165 697 c 128,-1,4
 221 697 221 697 261.5 659.5 c 128,-1,5
 302 622 302 622 302 565.5 c 128,-1,6
 302 509 302 509 261.5 472.5 c 128,-1,7
 221 436 221 436 165 436 c 128,-1,0
 109 436 109 436 69.5 472.5 c 128,-1,1
115.5 617.5 m 128,-1,9
 96 598 96 598 96 565.5 c 128,-1,10
 96 533 96 533 115.5 514 c 128,-1,11
 135 495 135 495 165 495 c 128,-1,12
 195 495 195 495 215 514 c 128,-1,13
 235 533 235 533 235 565.5 c 128,-1,14
 235 598 235 598 215 617.5 c 128,-1,15
 195 637 195 637 165 637 c 128,-1,8
 135 637 135 637 115.5 617.5 c 128,-1,9
EndSplineSet
EndChar

StartChar: plusminus
Encoding: 177 177 114
Width: 596
GlyphClass: 2
Flags: W
LayerCount: 2
Fore
SplineSet
529 481 m 1,0,-1
 529 400 l 1,1,-1
 335 400 l 1,2,-1
 335 230 l 1,3,-1
 256 230 l 1,4,-1
 256 400 l 1,5,-1
 67 400 l 1,6,-1
 67 481 l 1,7,-1
 256 481 l 1,8,-1
 256 654 l 1,9,-1
 335 654 l 1,10,-1
 335 481 l 1,11,-1
 529 481 l 1,0,-1
529 166 m 1,12,-1
 529 90 l 1,13,-1
 67 90 l 1,14,-1
 67 166 l 1,15,-1
 529 166 l 1,12,-1
EndSplineSet
EndChar

StartChar: twosuperior
Encoding: 178 178 115
Width: 268
GlyphClass: 2
Flags: W
LayerCount: 2
Fore
SplineSet
248 426 m 1,0,-1
 248 370 l 1,1,-1
 15 370 l 1,2,-1
 15 419 l 1,3,4
 108 516 108 516 135 550 c 128,-1,5
 162 584 162 584 162 610 c 128,-1,6
 162 636 162 636 149 648.5 c 128,-1,7
 136 661 136 661 106 661 c 128,-1,8
 76 661 76 661 33 643 c 1,9,-1
 17 685 l 1,10,11
 69 712 69 712 123 712 c 128,-1,12
 177 712 177 712 206.5 687 c 128,-1,13
 236 662 236 662 236 620.5 c 128,-1,14
 236 579 236 579 204 538 c 128,-1,15
 172 497 172 497 100 426 c 1,16,-1
 248 426 l 1,0,-1
EndSplineSet
EndChar

StartChar: threesuperior
Encoding: 179 179 116
Width: 259
GlyphClass: 2
Flags: W
LayerCount: 2
Fore
SplineSet
108 413 m 0,0,1
 168 413 168 413 168 463 c 0,2,3
 168 517 168 517 95 519 c 1,4,-1
 95 572 l 1,5,6
 159 574 159 574 159 622 c 0,7,8
 159 641 159 641 144.5 651.5 c 128,-1,9
 130 662 130 662 103 662 c 128,-1,10
 76 662 76 662 46 647 c 1,11,-1
 29 693 l 1,12,13
 61 712 61 712 114 712 c 128,-1,14
 167 712 167 712 199 690 c 128,-1,15
 231 668 231 668 231 625 c 0,16,17
 231 599 231 599 214 578 c 128,-1,18
 197 557 197 557 168 550 c 1,19,-1
 168 542 l 1,20,21
 203 535 203 535 221 511.5 c 128,-1,22
 239 488 239 488 239 462 c 0,23,24
 239 417 239 417 201.5 390.5 c 128,-1,25
 164 364 164 364 110.5 364 c 128,-1,26
 57 364 57 364 20 386 c 1,27,-1
 36 431 l 1,28,29
 70 413 70 413 108 413 c 0,0,1
EndSplineSet
EndChar

StartChar: acute
Encoding: 180 180 117
Width: 308
GlyphClass: 2
Flags: W
LayerCount: 2
Fore
SplineSet
277 711 m 0,0,1
 277 684 277 684 243 669 c 2,2,-1
 69 587 l 1,3,-1
 38 632 l 1,4,-1
 238 777 l 1,5,-1
 270 732 l 2,6,7
 277 722 277 722 277 711 c 0,0,1
EndSplineSet
EndChar

StartChar: mu
Encoding: 181 181 118
Width: 599
GlyphClass: 2
Flags: W
LayerCount: 2
Fore
SplineSet
83 -210 m 1,0,-1
 83 516 l 1,1,-1
 183 516 l 1,2,-1
 183 186 l 2,3,4
 183 56 183 56 282 56 c 0,5,6
 355 56 355 56 409 94 c 1,7,-1
 409 516 l 1,8,-1
 509 516 l 1,9,-1
 509 101 l 1,10,-1
 532 -8 l 1,11,-1
 483 -8 l 2,12,13
 456 -8 456 -8 441 18 c 2,14,-1
 427 44 l 1,15,-1
 411 44 l 1,16,17
 359 -12 359 -12 284 -12 c 0,18,19
 246 -12 246 -12 216 16.5 c 128,-1,20
 186 45 186 45 173 73 c 1,21,-1
 157 64 l 1,22,23
 183 12 183 12 183 -40 c 2,24,-1
 183 -210 l 1,25,-1
 83 -210 l 1,0,-1
EndSplineSet
EndChar

StartChar: paragraph
Encoding: 182 182 119
Width: 556
GlyphClass: 2
Flags: W
LayerCount: 2
Fore
SplineSet
197 706 m 1,0,-1
 376 700 l 1,1,-1
 532 700 l 1,2,-1
 529 671 l 1,3,4
 523 639 523 639 489 632 c 2,5,-1
 453 625 l 1,6,-1
 453 0 l 1,7,-1
 376 0 l 1,8,-1
 376 624 l 1,9,-1
 302 624 l 1,10,-1
 302 0 l 1,11,-1
 225 0 l 1,12,-1
 225 301 l 1,13,14
 126 301 126 301 74 355.5 c 128,-1,15
 22 410 22 410 22 506 c 128,-1,16
 22 602 22 602 69.5 654 c 128,-1,17
 117 706 117 706 197 706 c 1,0,-1
EndSplineSet
EndChar

StartChar: periodcentered
Encoding: 183 183 120
Width: 266
GlyphClass: 2
Flags: W
LayerCount: 2
Fore
SplineSet
65 269 m 128,-1,1
 65 298 65 298 86 319 c 128,-1,2
 107 340 107 340 136 340 c 128,-1,3
 165 340 165 340 186 319 c 128,-1,4
 207 298 207 298 207 269 c 128,-1,5
 207 240 207 240 186 219 c 128,-1,6
 165 198 165 198 136 198 c 128,-1,7
 107 198 107 198 86 219 c 128,-1,0
 65 240 65 240 65 269 c 128,-1,1
EndSplineSet
EndChar

StartChar: cedilla
Encoding: 184 184 121
Width: 230
GlyphClass: 2
Flags: W
LayerCount: 2
Fore
SplineSet
89 -177 m 0,0,1
 143 -177 143 -177 143 -129 c 0,2,3
 143 -105 143 -105 120.5 -96 c 128,-1,4
 98 -87 98 -87 55 -84 c 1,5,-1
 76 4 l 1,6,-1
 130 4 l 1,7,-1
 116 -48 l 1,8,9
 158 -54 158 -54 181.5 -76.5 c 128,-1,10
 205 -99 205 -99 205 -130 c 0,11,12
 205 -220 205 -220 93 -220 c 0,13,14
 55 -220 55 -220 25 -210 c 1,15,-1
 35 -170 l 1,16,17
 61 -177 61 -177 89 -177 c 0,0,1
EndSplineSet
EndChar

StartChar: onesuperior
Encoding: 185 185 122
Width: 193
GlyphClass: 2
Flags: W
LayerCount: 2
Fore
SplineSet
143 370 m 1,0,-1
 74 370 l 1,1,-1
 74 647 l 1,2,-1
 7 647 l 1,3,-1
 5 693 l 1,4,-1
 97 711 l 2,5,6
 102 712 102 712 113 712 c 128,-1,7
 124 712 124 712 133.5 703.5 c 128,-1,8
 143 695 143 695 143 679 c 2,9,-1
 143 370 l 1,0,-1
EndSplineSet
EndChar

StartChar: ordmasculine
Encoding: 186 186 123
Width: 329
GlyphClass: 2
Flags: W
LayerCount: 2
Fore
SplineSet
288 545 m 128,-1,1
 288 407 288 407 162 407 c 0,2,3
 38 407 38 407 38 545 c 128,-1,4
 38 683 38 683 162 683 c 0,5,0
 288 683 288 683 288 545 c 128,-1,1
162 453 m 0,6,7
 223 453 223 453 223 546 c 128,-1,8
 223 639 223 639 162 639 c 0,9,10
 131 639 131 639 117 612 c 128,-1,11
 103 585 103 585 103 545 c 0,12,13
 103 453 103 453 162 453 c 0,6,7
50 318 m 1,14,-1
 50 365 l 1,15,-1
 274 365 l 1,16,-1
 274 318 l 1,17,-1
 50 318 l 1,14,-1
EndSplineSet
EndChar

StartChar: guillemotright
Encoding: 187 187 124
Width: 449
GlyphClass: 2
Flags: W
LayerCount: 2
Fore
SplineSet
416 213 m 1,0,-1
 280 41 l 1,1,-1
 235 69 l 1,2,-1
 329 258 l 1,3,-1
 235 448 l 1,4,-1
 280 476 l 1,5,-1
 416 305 l 1,6,-1
 416 213 l 1,0,-1
241 213 m 1,7,-1
 105 41 l 1,8,-1
 60 69 l 1,9,-1
 154 258 l 1,10,-1
 60 448 l 1,11,-1
 105 476 l 1,12,-1
 241 305 l 1,13,-1
 241 213 l 1,7,-1
EndSplineSet
EndChar

StartChar: onequarter
Encoding: 188 188 125
Width: 610
GlyphClass: 2
Flags: W
LayerCount: 2
Fore
SplineSet
155 370 m 1,0,-1
 86 370 l 1,1,-1
 86 647 l 1,2,-1
 19 647 l 1,3,-1
 17 693 l 1,4,-1
 109 711 l 2,5,6
 114 712 114 712 125 712 c 128,-1,7
 136 712 136 712 145.5 703.5 c 128,-1,8
 155 695 155 695 155 679 c 2,9,-1
 155 370 l 1,0,-1
101 0 m 1,10,-1
 10 0 l 1,11,-1
 451 700 l 1,12,-1
 542 700 l 1,13,-1
 101 0 l 1,10,-1
542 336 m 1,14,-1
 542 107 l 1,15,-1
 581 107 l 1,16,-1
 581 57 l 1,17,-1
 542 57 l 1,18,-1
 542 0 l 1,19,-1
 481 0 l 1,20,-1
 481 57 l 1,21,-1
 310 57 l 1,22,-1
 310 103 l 1,23,-1
 479 336 l 1,24,-1
 542 336 l 1,14,-1
482 107 m 1,25,-1
 482 260 l 1,26,-1
 371 107 l 1,27,-1
 482 107 l 1,25,-1
EndSplineSet
EndChar

StartChar: onehalf
Encoding: 189 189 126
Width: 641
GlyphClass: 2
Flags: W
LayerCount: 2
Fore
SplineSet
101 0 m 1,0,-1
 10 0 l 1,1,-1
 451 700 l 1,2,-1
 542 700 l 1,3,-1
 101 0 l 1,0,-1
155 370 m 1,4,-1
 86 370 l 1,5,-1
 86 647 l 1,6,-1
 19 647 l 1,7,-1
 17 693 l 1,8,-1
 109 711 l 2,9,10
 114 712 114 712 125 712 c 128,-1,11
 136 712 136 712 145.5 703.5 c 128,-1,12
 155 695 155 695 155 679 c 2,13,-1
 155 370 l 1,4,-1
604 56 m 1,14,-1
 604 0 l 1,15,-1
 371 0 l 1,16,-1
 371 49 l 1,17,18
 464 146 464 146 491 180 c 128,-1,19
 518 214 518 214 518 240 c 128,-1,20
 518 266 518 266 505 278.5 c 128,-1,21
 492 291 492 291 462 291 c 128,-1,22
 432 291 432 291 389 273 c 1,23,-1
 373 315 l 1,24,25
 425 342 425 342 479 342 c 128,-1,26
 533 342 533 342 562.5 317 c 128,-1,27
 592 292 592 292 592 250.5 c 128,-1,28
 592 209 592 209 560 168 c 128,-1,29
 528 127 528 127 456 56 c 1,30,-1
 604 56 l 1,14,-1
EndSplineSet
EndChar

StartChar: threequarters
Encoding: 190 190 127
Width: 660
GlyphClass: 2
Flags: W
LayerCount: 2
Fore
SplineSet
104 413 m 0,0,1
 164 413 164 413 164 463 c 0,2,3
 164 517 164 517 91 519 c 1,4,-1
 91 572 l 1,5,6
 155 574 155 574 155 622 c 0,7,8
 155 641 155 641 140.5 651.5 c 128,-1,9
 126 662 126 662 99 662 c 128,-1,10
 72 662 72 662 42 647 c 1,11,-1
 25 693 l 1,12,13
 57 712 57 712 110 712 c 128,-1,14
 163 712 163 712 195 690 c 128,-1,15
 227 668 227 668 227 625 c 0,16,17
 227 599 227 599 210 578 c 128,-1,18
 193 557 193 557 164 550 c 1,19,-1
 164 542 l 1,20,21
 199 535 199 535 217 511.5 c 128,-1,22
 235 488 235 488 235 462 c 0,23,24
 235 417 235 417 197.5 390.5 c 128,-1,25
 160 364 160 364 106.5 364 c 128,-1,26
 53 364 53 364 16 386 c 1,27,-1
 32 431 l 1,28,29
 66 413 66 413 104 413 c 0,0,1
151 0 m 1,30,-1
 60 0 l 1,31,-1
 501 700 l 1,32,-1
 592 700 l 1,33,-1
 151 0 l 1,30,-1
592 336 m 1,34,-1
 592 107 l 1,35,-1
 631 107 l 1,36,-1
 631 57 l 1,37,-1
 592 57 l 1,38,-1
 592 0 l 1,39,-1
 531 0 l 1,40,-1
 531 57 l 1,41,-1
 360 57 l 1,42,-1
 360 103 l 1,43,-1
 529 336 l 1,44,-1
 592 336 l 1,34,-1
532 107 m 1,45,-1
 532 260 l 1,46,-1
 421 107 l 1,47,-1
 532 107 l 1,45,-1
EndSplineSet
EndChar

StartChar: questiondown
Encoding: 191 191 128
Width: 361
GlyphClass: 2
Flags: W
LayerCount: 2
Fore
SplineSet
284 305 m 1,0,-1
 284 258 l 2,1,2
 284 193 284 193 226 142 c 0,3,4
 202 120 202 120 178 98.5 c 128,-1,5
 154 77 154 77 137 49 c 128,-1,6
 120 21 120 21 120 -19.5 c 128,-1,7
 120 -60 120 -60 151 -89.5 c 128,-1,8
 182 -119 182 -119 232.5 -119 c 128,-1,9
 283 -119 283 -119 348 -93 c 1,10,-1
 371 -156 l 1,11,12
 286 -196 286 -196 219 -196 c 0,13,14
 127 -196 127 -196 73.5 -150.5 c 128,-1,15
 20 -105 20 -105 20 -18 c 0,16,17
 20 24 20 24 39 61.5 c 128,-1,18
 58 99 58 99 85 125 c 128,-1,19
 112 151 112 151 139 175 c 0,20,21
 204 233 204 233 204 279 c 2,22,-1
 204 305 l 1,23,-1
 284 305 l 1,0,-1
310 457 m 128,-1,25
 310 428 310 428 289 407 c 128,-1,26
 268 386 268 386 239 386 c 128,-1,27
 210 386 210 386 189 407 c 128,-1,28
 168 428 168 428 168 457 c 128,-1,29
 168 486 168 486 189 507 c 128,-1,30
 210 528 210 528 239 528 c 128,-1,31
 268 528 268 528 289 507 c 128,-1,24
 310 486 310 486 310 457 c 128,-1,25
EndSplineSet
EndChar

StartChar: Agrave
Encoding: 192 192 129
Width: 634
GlyphClass: 2
Flags: W
LayerCount: 2
Fore
SplineSet
397 700 m 1,0,-1
 621 0 l 1,1,-1
 521 0 l 1,2,-1
 461 186 l 1,3,-1
 179 186 l 1,4,-1
 113 0 l 1,5,-1
 13 0 l 1,6,-1
 263 700 l 1,7,-1
 397 700 l 1,0,-1
273 451 m 2,8,-1
 208 268 l 1,9,-1
 435 268 l 1,10,-1
 377 451 l 2,11,12
 354 524 354 524 341 590 c 2,13,-1
 336 615 l 1,14,-1
 320 615 l 1,15,16
 299 524 299 524 273 451 c 2,8,-1
163 852 m 0,17,18
 163 859 163 859 167 867 c 2,19,-1
 190 917 l 1,20,-1
 413 810 l 1,21,-1
 390 760 l 1,22,-1
 205 811 l 2,23,24
 163 822 163 822 163 852 c 0,17,18
EndSplineSet
EndChar

StartChar: Aacute
Encoding: 193 193 130
Width: 634
GlyphClass: 2
Flags: W
LayerCount: 2
Fore
SplineSet
397 700 m 1,0,-1
 621 0 l 1,1,-1
 521 0 l 1,2,-1
 461 186 l 1,3,-1
 179 186 l 1,4,-1
 113 0 l 1,5,-1
 13 0 l 1,6,-1
 263 700 l 1,7,-1
 397 700 l 1,0,-1
273 451 m 2,8,-1
 208 268 l 1,9,-1
 435 268 l 1,10,-1
 377 451 l 2,11,12
 354 524 354 524 341 590 c 2,13,-1
 336 615 l 1,14,-1
 320 615 l 1,15,16
 299 524 299 524 273 451 c 2,8,-1
481 852 m 0,17,18
 481 822 481 822 439 811 c 2,19,-1
 254 760 l 1,20,-1
 231 810 l 1,21,-1
 454 917 l 1,22,-1
 477 867 l 2,23,24
 481 859 481 859 481 852 c 0,17,18
EndSplineSet
EndChar

StartChar: Acircumflex
Encoding: 194 194 131
Width: 634
GlyphClass: 2
Flags: W
LayerCount: 2
Fore
SplineSet
397 700 m 1,0,-1
 621 0 l 1,1,-1
 521 0 l 1,2,-1
 461 186 l 1,3,-1
 179 186 l 1,4,-1
 113 0 l 1,5,-1
 13 0 l 1,6,-1
 263 700 l 1,7,-1
 397 700 l 1,0,-1
273 451 m 2,8,-1
 208 268 l 1,9,-1
 435 268 l 1,10,-1
 377 451 l 2,11,12
 354 524 354 524 341 590 c 2,13,-1
 336 615 l 1,14,-1
 320 615 l 1,15,16
 299 524 299 524 273 451 c 2,8,-1
157 770 m 1,17,-1
 282 898 l 1,18,-1
 375 898 l 1,19,-1
 500 770 l 1,20,-1
 464 738 l 1,21,-1
 328 836 l 1,22,-1
 193 738 l 1,23,-1
 157 770 l 1,17,-1
EndSplineSet
EndChar

StartChar: Atilde
Encoding: 195 195 132
Width: 634
GlyphClass: 2
Flags: W
LayerCount: 2
Fore
SplineSet
397 700 m 1,0,-1
 621 0 l 1,1,-1
 521 0 l 1,2,-1
 461 186 l 1,3,-1
 179 186 l 1,4,-1
 113 0 l 1,5,-1
 13 0 l 1,6,-1
 263 700 l 1,7,-1
 397 700 l 1,0,-1
273 451 m 2,8,-1
 208 268 l 1,9,-1
 435 268 l 1,10,-1
 377 451 l 2,11,12
 354 524 354 524 341 590 c 2,13,-1
 336 615 l 1,14,-1
 320 615 l 1,15,16
 299 524 299 524 273 451 c 2,8,-1
393 773 m 0,17,18
 360 773 360 773 319 793.5 c 128,-1,19
 278 814 278 814 258.5 814 c 128,-1,20
 239 814 239 814 227.5 805.5 c 128,-1,21
 216 797 216 797 200 775 c 1,22,-1
 145 811 l 1,23,24
 185 889 185 889 259 889 c 0,25,26
 291 889 291 889 333.5 868.5 c 128,-1,27
 376 848 376 848 392 848 c 0,28,29
 436 848 436 848 452 885 c 1,30,-1
 508 850 l 1,31,32
 470 773 470 773 393 773 c 0,17,18
EndSplineSet
EndChar

StartChar: Adieresis
Encoding: 196 196 133
Width: 634
GlyphClass: 2
Flags: W
LayerCount: 2
Fore
SplineSet
397 700 m 1,0,-1
 621 0 l 1,1,-1
 521 0 l 1,2,-1
 461 186 l 1,3,-1
 179 186 l 1,4,-1
 113 0 l 1,5,-1
 13 0 l 1,6,-1
 263 700 l 1,7,-1
 397 700 l 1,0,-1
273 451 m 2,8,-1
 208 268 l 1,9,-1
 435 268 l 1,10,-1
 377 451 l 2,11,12
 354 524 354 524 341 590 c 2,13,-1
 336 615 l 1,14,-1
 320 615 l 1,15,16
 299 524 299 524 273 451 c 2,8,-1
179 832 m 128,-1,18
 179 857 179 857 197 874.5 c 128,-1,19
 215 892 215 892 239.5 892 c 128,-1,20
 264 892 264 892 281.5 874.5 c 128,-1,21
 299 857 299 857 299 832 c 128,-1,22
 299 807 299 807 281.5 789.5 c 128,-1,23
 264 772 264 772 239.5 772 c 128,-1,24
 215 772 215 772 197 789.5 c 128,-1,17
 179 807 179 807 179 832 c 128,-1,18
482 832 m 128,-1,26
 482 807 482 807 464 789.5 c 128,-1,27
 446 772 446 772 421.5 772 c 128,-1,28
 397 772 397 772 379.5 789.5 c 128,-1,29
 362 807 362 807 362 832 c 128,-1,30
 362 857 362 857 379.5 874.5 c 128,-1,31
 397 892 397 892 421.5 892 c 128,-1,32
 446 892 446 892 464 874.5 c 128,-1,25
 482 857 482 857 482 832 c 128,-1,26
EndSplineSet
EndChar

StartChar: Aring
Encoding: 197 197 134
Width: 634
GlyphClass: 2
Flags: W
LayerCount: 2
Fore
SplineSet
397 700 m 1,0,-1
 621 0 l 1,1,-1
 521 0 l 1,2,-1
 461 186 l 1,3,-1
 179 186 l 1,4,-1
 113 0 l 1,5,-1
 13 0 l 1,6,-1
 263 700 l 1,7,-1
 397 700 l 1,0,-1
273 451 m 2,8,-1
 208 268 l 1,9,-1
 435 268 l 1,10,-1
 377 451 l 2,11,12
 354 524 354 524 341 590 c 2,13,-1
 336 615 l 1,14,-1
 320 615 l 1,15,16
 299 524 299 524 273 451 c 2,8,-1
260 777.5 m 128,-1,18
 231 804 231 804 231 844.5 c 128,-1,19
 231 885 231 885 260 912 c 128,-1,20
 289 939 289 939 330 939 c 128,-1,21
 371 939 371 939 400.5 912 c 128,-1,22
 430 885 430 885 430 844.5 c 128,-1,23
 430 804 430 804 400.5 777.5 c 128,-1,24
 371 751 371 751 330 751 c 128,-1,17
 289 751 289 751 260 777.5 c 128,-1,18
300 876 m 128,-1,26
 288 864 288 864 288 844.5 c 128,-1,27
 288 825 288 825 300 814 c 128,-1,28
 312 803 312 803 330.5 803 c 128,-1,29
 349 803 349 803 361 814 c 128,-1,30
 373 825 373 825 373 844.5 c 128,-1,31
 373 864 373 864 361 876 c 128,-1,32
 349 888 349 888 330.5 888 c 128,-1,25
 312 888 312 888 300 876 c 128,-1,26
EndSplineSet
EndChar

StartChar: AE
Encoding: 198 198 135
Width: 1005
GlyphClass: 2
Flags: W
LayerCount: 2
Fore
SplineSet
945 0 m 1,0,-1
 528 0 l 1,1,-1
 528 186 l 1,2,-1
 251 186 l 1,3,-1
 133 0 l 1,4,-1
 13 0 l 1,5,-1
 493 700 l 1,6,-1
 945 700 l 1,7,-1
 945 617 l 1,8,-1
 628 617 l 1,9,-1
 628 416 l 1,10,-1
 915 416 l 1,11,-1
 915 332 l 1,12,-1
 628 332 l 1,13,-1
 628 83 l 1,14,-1
 945 83 l 1,15,-1
 945 0 l 1,0,-1
528 268 m 1,16,-1
 528 484 l 2,17,18
 528 531 528 531 542 594 c 1,19,-1
 546 615 l 1,20,-1
 514 615 l 1,21,22
 501 559 501 559 477 523 c 2,23,-1
 306 268 l 1,24,-1
 528 268 l 1,16,-1
EndSplineSet
EndChar

StartChar: Ccedilla
Encoding: 199 199 136
Width: 570
GlyphClass: 2
Flags: W
LayerCount: 2
Fore
SplineSet
364 -12 m 1,0,-1
 351 -11 l 1,1,-1
 341 -48 l 1,2,3
 383 -54 383 -54 406.5 -76.5 c 128,-1,4
 430 -99 430 -99 430 -130 c 0,5,6
 430 -220 430 -220 318 -220 c 0,7,8
 280 -220 280 -220 250 -210 c 1,9,-1
 260 -170 l 1,10,11
 286 -177 286 -177 314 -177 c 0,12,13
 368 -177 368 -177 368 -129 c 0,14,15
 368 -105 368 -105 345.5 -96 c 128,-1,16
 323 -87 323 -87 280 -84 c 1,17,-1
 298 -7 l 1,18,19
 60 29 60 29 60 350 c 0,20,21
 60 712 60 712 365 712 c 0,22,23
 444 712 444 712 537 677 c 1,24,-1
 517 607 l 1,25,26
 428 634 428 634 368.5 634 c 128,-1,27
 309 634 309 634 269 612.5 c 128,-1,28
 229 591 229 591 207.5 551 c 128,-1,29
 186 511 186 511 176.5 462.5 c 128,-1,30
 167 414 167 414 167 350 c 128,-1,31
 167 286 167 286 176.5 237.5 c 128,-1,32
 186 189 186 189 208 149 c 0,33,34
 252 66 252 66 365 66 c 0,35,36
 425 66 425 66 520 97 c 1,37,-1
 540 24 l 1,38,39
 456 -12 456 -12 364 -12 c 1,0,-1
EndSplineSet
EndChar

StartChar: Egrave
Encoding: 200 200 137
Width: 572
GlyphClass: 2
Flags: W
LayerCount: 2
Fore
SplineSet
512 0 m 1,0,-1
 95 0 l 1,1,-1
 95 700 l 1,2,-1
 512 700 l 1,3,-1
 512 617 l 1,4,-1
 195 617 l 1,5,-1
 195 416 l 1,6,-1
 482 416 l 1,7,-1
 482 332 l 1,8,-1
 195 332 l 1,9,-1
 195 83 l 1,10,-1
 512 83 l 1,11,-1
 512 0 l 1,0,-1
157 852 m 0,12,13
 157 859 157 859 161 867 c 2,14,-1
 184 917 l 1,15,-1
 407 810 l 1,16,-1
 384 760 l 1,17,-1
 199 811 l 2,18,19
 157 822 157 822 157 852 c 0,12,13
EndSplineSet
EndChar

StartChar: Eacute
Encoding: 201 201 138
Width: 572
GlyphClass: 2
Flags: W
LayerCount: 2
Fore
SplineSet
512 0 m 1,0,-1
 95 0 l 1,1,-1
 95 700 l 1,2,-1
 512 700 l 1,3,-1
 512 617 l 1,4,-1
 195 617 l 1,5,-1
 195 416 l 1,6,-1
 482 416 l 1,7,-1
 482 332 l 1,8,-1
 195 332 l 1,9,-1
 195 83 l 1,10,-1
 512 83 l 1,11,-1
 512 0 l 1,0,-1
434 852 m 0,12,13
 434 822 434 822 392 811 c 2,14,-1
 207 760 l 1,15,-1
 184 810 l 1,16,-1
 407 917 l 1,17,-1
 430 867 l 2,18,19
 434 859 434 859 434 852 c 0,12,13
EndSplineSet
EndChar

StartChar: Ecircumflex
Encoding: 202 202 139
Width: 572
GlyphClass: 2
Flags: W
LayerCount: 2
Fore
SplineSet
512 0 m 1,0,-1
 95 0 l 1,1,-1
 95 700 l 1,2,-1
 512 700 l 1,3,-1
 512 617 l 1,4,-1
 195 617 l 1,5,-1
 195 416 l 1,6,-1
 482 416 l 1,7,-1
 482 332 l 1,8,-1
 195 332 l 1,9,-1
 195 83 l 1,10,-1
 512 83 l 1,11,-1
 512 0 l 1,0,-1
137 770 m 1,12,-1
 262 898 l 1,13,-1
 355 898 l 1,14,-1
 480 770 l 1,15,-1
 444 738 l 1,16,-1
 308 836 l 1,17,-1
 173 738 l 1,18,-1
 137 770 l 1,12,-1
EndSplineSet
EndChar

StartChar: Edieresis
Encoding: 203 203 140
Width: 572
GlyphClass: 2
Flags: W
LayerCount: 2
Fore
SplineSet
512 0 m 1,0,-1
 95 0 l 1,1,-1
 95 700 l 1,2,-1
 512 700 l 1,3,-1
 512 617 l 1,4,-1
 195 617 l 1,5,-1
 195 416 l 1,6,-1
 482 416 l 1,7,-1
 482 332 l 1,8,-1
 195 332 l 1,9,-1
 195 83 l 1,10,-1
 512 83 l 1,11,-1
 512 0 l 1,0,-1
152 832 m 128,-1,13
 152 857 152 857 170 874.5 c 128,-1,14
 188 892 188 892 212.5 892 c 128,-1,15
 237 892 237 892 254.5 874.5 c 128,-1,16
 272 857 272 857 272 832 c 128,-1,17
 272 807 272 807 254.5 789.5 c 128,-1,18
 237 772 237 772 212.5 772 c 128,-1,19
 188 772 188 772 170 789.5 c 128,-1,12
 152 807 152 807 152 832 c 128,-1,13
455 832 m 128,-1,21
 455 807 455 807 437 789.5 c 128,-1,22
 419 772 419 772 394.5 772 c 128,-1,23
 370 772 370 772 352.5 789.5 c 128,-1,24
 335 807 335 807 335 832 c 128,-1,25
 335 857 335 857 352.5 874.5 c 128,-1,26
 370 892 370 892 394.5 892 c 128,-1,27
 419 892 419 892 437 874.5 c 128,-1,20
 455 857 455 857 455 832 c 128,-1,21
EndSplineSet
EndChar

StartChar: Igrave
Encoding: 204 204 141
Width: 278
GlyphClass: 2
Flags: W
LayerCount: 2
Fore
SplineSet
189 0 m 1,0,-1
 89 0 l 1,1,-1
 89 700 l 1,2,-1
 189 700 l 1,3,-1
 189 0 l 1,0,-1
-31 852 m 0,4,5
 -31 859 -31 859 -27 867 c 2,6,-1
 -4 917 l 1,7,-1
 219 810 l 1,8,-1
 196 760 l 1,9,-1
 11 811 l 2,10,11
 -31 822 -31 822 -31 852 c 0,4,5
EndSplineSet
EndChar

StartChar: Iacute
Encoding: 205 205 142
Width: 278
GlyphClass: 2
Flags: W
LayerCount: 2
Fore
SplineSet
189 0 m 1,0,-1
 89 0 l 1,1,-1
 89 700 l 1,2,-1
 189 700 l 1,3,-1
 189 0 l 1,0,-1
313 852 m 0,4,5
 313 822 313 822 271 811 c 2,6,-1
 86 760 l 1,7,-1
 63 810 l 1,8,-1
 286 917 l 1,9,-1
 309 867 l 2,10,11
 313 859 313 859 313 852 c 0,4,5
EndSplineSet
EndChar

StartChar: Icircumflex
Encoding: 206 206 143
Width: 278
GlyphClass: 2
Flags: W
LayerCount: 2
Fore
SplineSet
189 0 m 1,0,-1
 89 0 l 1,1,-1
 89 700 l 1,2,-1
 189 700 l 1,3,-1
 189 0 l 1,0,-1
-32 770 m 1,4,-1
 93 898 l 1,5,-1
 186 898 l 1,6,-1
 311 770 l 1,7,-1
 275 738 l 1,8,-1
 139 836 l 1,9,-1
 4 738 l 1,10,-1
 -32 770 l 1,4,-1
EndSplineSet
EndChar

StartChar: Idieresis
Encoding: 207 207 144
Width: 278
GlyphClass: 2
Flags: W
LayerCount: 2
Fore
SplineSet
189 0 m 1,0,-1
 89 0 l 1,1,-1
 89 700 l 1,2,-1
 189 700 l 1,3,-1
 189 0 l 1,0,-1
-6 832 m 128,-1,5
 -6 857 -6 857 12 874.5 c 128,-1,6
 30 892 30 892 54.5 892 c 128,-1,7
 79 892 79 892 96.5 874.5 c 128,-1,8
 114 857 114 857 114 832 c 128,-1,9
 114 807 114 807 96.5 789.5 c 128,-1,10
 79 772 79 772 54.5 772 c 128,-1,11
 30 772 30 772 12 789.5 c 128,-1,4
 -6 807 -6 807 -6 832 c 128,-1,5
297 832 m 128,-1,13
 297 807 297 807 279 789.5 c 128,-1,14
 261 772 261 772 236.5 772 c 128,-1,15
 212 772 212 772 194.5 789.5 c 128,-1,16
 177 807 177 807 177 832 c 128,-1,17
 177 857 177 857 194.5 874.5 c 128,-1,18
 212 892 212 892 236.5 892 c 128,-1,19
 261 892 261 892 279 874.5 c 128,-1,12
 297 857 297 857 297 832 c 128,-1,13
EndSplineSet
EndChar

StartChar: Eth
Encoding: 208 208 145
Width: 686
GlyphClass: 2
Flags: W
LayerCount: 2
Fore
SplineSet
14 318 m 1,0,-1
 14 395 l 1,1,-1
 85 395 l 1,2,-1
 85 700 l 1,3,-1
 300 700 l 2,4,5
 464 700 464 700 543.5 609 c 128,-1,6
 623 518 623 518 623 350 c 0,7,8
 623 0 623 0 300 0 c 2,9,-1
 85 0 l 1,10,-1
 85 318 l 1,11,-1
 14 318 l 1,0,-1
185 80 m 1,12,-1
 303 80 l 2,13,14
 421 80 421 80 469.5 151.5 c 128,-1,15
 518 223 518 223 518 350 c 0,16,17
 518 624 518 624 301 624 c 2,18,-1
 185 624 l 1,19,-1
 185 395 l 1,20,-1
 344 395 l 1,21,-1
 344 318 l 1,22,-1
 185 318 l 1,23,-1
 185 80 l 1,12,-1
EndSplineSet
EndChar

StartChar: Ntilde
Encoding: 209 209 146
Width: 724
GlyphClass: 2
Flags: W
LayerCount: 2
Fore
SplineSet
190 449 m 2,0,-1
 190 0 l 1,1,-1
 90 0 l 1,2,-1
 90 700 l 1,3,-1
 180 700 l 1,4,-1
 482 252 l 2,5,6
 508 215 508 215 526 148 c 1,7,-1
 532 127 l 1,8,-1
 548 130 l 1,9,10
 534 216 534 216 534 248 c 2,11,-1
 534 700 l 1,12,-1
 634 700 l 1,13,-1
 634 0 l 1,14,-1
 544 0 l 1,15,-1
 240 449 l 2,16,17
 214 487 214 487 198 550 c 1,18,-1
 192 571 l 1,19,-1
 176 568 l 1,20,21
 190 481 190 481 190 449 c 2,0,-1
429 774 m 0,22,23
 396 774 396 774 355 794.5 c 128,-1,24
 314 815 314 815 294.5 815 c 128,-1,25
 275 815 275 815 263.5 806.5 c 128,-1,26
 252 798 252 798 236 776 c 1,27,-1
 181 812 l 1,28,29
 221 890 221 890 295 890 c 0,30,31
 327 890 327 890 369.5 869.5 c 128,-1,32
 412 849 412 849 428 849 c 0,33,34
 472 849 472 849 488 886 c 1,35,-1
 544 851 l 1,36,37
 506 774 506 774 429 774 c 0,22,23
EndSplineSet
EndChar

StartChar: Ograve
Encoding: 210 210 147
Width: 735
GlyphClass: 2
Flags: W
LayerCount: 2
Fore
SplineSet
675 350 m 0,0,1
 675 -12 675 -12 367.5 -12 c 128,-1,2
 60 -12 60 -12 60 350 c 128,-1,3
 60 712 60 712 367 712 c 0,4,5
 524 712 524 712 599.5 618 c 128,-1,6
 675 524 675 524 675 350 c 0,0,1
368 66 m 0,7,8
 570 66 570 66 570 350 c 128,-1,9
 570 634 570 634 368 634 c 0,10,11
 254 634 254 634 208 551 c 0,12,13
 167 476 167 476 167 350 c 0,14,15
 167 142 167 142 270 88 c 0,16,17
 311 66 311 66 368 66 c 0,7,8
228 852 m 0,18,19
 228 859 228 859 232 867 c 2,20,-1
 255 917 l 1,21,-1
 478 810 l 1,22,-1
 455 760 l 1,23,-1
 270 811 l 2,24,25
 228 822 228 822 228 852 c 0,18,19
EndSplineSet
EndChar

StartChar: Oacute
Encoding: 211 211 148
Width: 735
GlyphClass: 2
Flags: W
LayerCount: 2
Fore
SplineSet
675 350 m 0,0,1
 675 -12 675 -12 367.5 -12 c 128,-1,2
 60 -12 60 -12 60 350 c 128,-1,3
 60 712 60 712 367 712 c 0,4,5
 524 712 524 712 599.5 618 c 128,-1,6
 675 524 675 524 675 350 c 0,0,1
368 66 m 0,7,8
 570 66 570 66 570 350 c 128,-1,9
 570 634 570 634 368 634 c 0,10,11
 254 634 254 634 208 551 c 0,12,13
 167 476 167 476 167 350 c 0,14,15
 167 142 167 142 270 88 c 0,16,17
 311 66 311 66 368 66 c 0,7,8
512 852 m 0,18,19
 512 822 512 822 470 811 c 2,20,-1
 285 760 l 1,21,-1
 262 810 l 1,22,-1
 485 917 l 1,23,-1
 508 867 l 2,24,25
 512 859 512 859 512 852 c 0,18,19
EndSplineSet
EndChar

StartChar: Ocircumflex
Encoding: 212 212 149
Width: 735
GlyphClass: 2
Flags: W
LayerCount: 2
Fore
SplineSet
675 350 m 0,0,1
 675 -12 675 -12 367.5 -12 c 128,-1,2
 60 -12 60 -12 60 350 c 128,-1,3
 60 712 60 712 367 712 c 0,4,5
 524 712 524 712 599.5 618 c 128,-1,6
 675 524 675 524 675 350 c 0,0,1
368 66 m 0,7,8
 570 66 570 66 570 350 c 128,-1,9
 570 634 570 634 368 634 c 0,10,11
 254 634 254 634 208 551 c 0,12,13
 167 476 167 476 167 350 c 0,14,15
 167 142 167 142 270 88 c 0,16,17
 311 66 311 66 368 66 c 0,7,8
200 770 m 1,18,-1
 325 898 l 1,19,-1
 418 898 l 1,20,-1
 543 770 l 1,21,-1
 507 738 l 1,22,-1
 371 836 l 1,23,-1
 236 738 l 1,24,-1
 200 770 l 1,18,-1
EndSplineSet
EndChar

StartChar: Otilde
Encoding: 213 213 150
Width: 735
GlyphClass: 2
Flags: W
LayerCount: 2
Fore
SplineSet
675 350 m 0,0,1
 675 -12 675 -12 367.5 -12 c 128,-1,2
 60 -12 60 -12 60 350 c 128,-1,3
 60 712 60 712 367 712 c 0,4,5
 524 712 524 712 599.5 618 c 128,-1,6
 675 524 675 524 675 350 c 0,0,1
368 66 m 0,7,8
 570 66 570 66 570 350 c 128,-1,9
 570 634 570 634 368 634 c 0,10,11
 254 634 254 634 208 551 c 0,12,13
 167 476 167 476 167 350 c 0,14,15
 167 142 167 142 270 88 c 0,16,17
 311 66 311 66 368 66 c 0,7,8
438 773 m 0,18,19
 405 773 405 773 364 793.5 c 128,-1,20
 323 814 323 814 303.5 814 c 128,-1,21
 284 814 284 814 272.5 805.5 c 128,-1,22
 261 797 261 797 245 775 c 1,23,-1
 190 811 l 1,24,25
 230 889 230 889 304 889 c 0,26,27
 336 889 336 889 378.5 868.5 c 128,-1,28
 421 848 421 848 437 848 c 0,29,30
 481 848 481 848 497 885 c 1,31,-1
 553 850 l 1,32,33
 515 773 515 773 438 773 c 0,18,19
EndSplineSet
EndChar

StartChar: Odieresis
Encoding: 214 214 151
Width: 735
GlyphClass: 2
Flags: W
LayerCount: 2
Fore
SplineSet
675 350 m 0,0,1
 675 -12 675 -12 367.5 -12 c 128,-1,2
 60 -12 60 -12 60 350 c 128,-1,3
 60 712 60 712 367 712 c 0,4,5
 524 712 524 712 599.5 618 c 128,-1,6
 675 524 675 524 675 350 c 0,0,1
368 66 m 0,7,8
 570 66 570 66 570 350 c 128,-1,9
 570 634 570 634 368 634 c 0,10,11
 254 634 254 634 208 551 c 0,12,13
 167 476 167 476 167 350 c 0,14,15
 167 142 167 142 270 88 c 0,16,17
 311 66 311 66 368 66 c 0,7,8
223 832 m 128,-1,19
 223 857 223 857 241 874.5 c 128,-1,20
 259 892 259 892 283.5 892 c 128,-1,21
 308 892 308 892 325.5 874.5 c 128,-1,22
 343 857 343 857 343 832 c 128,-1,23
 343 807 343 807 325.5 789.5 c 128,-1,24
 308 772 308 772 283.5 772 c 128,-1,25
 259 772 259 772 241 789.5 c 128,-1,18
 223 807 223 807 223 832 c 128,-1,19
526 832 m 128,-1,27
 526 807 526 807 508 789.5 c 128,-1,28
 490 772 490 772 465.5 772 c 128,-1,29
 441 772 441 772 423.5 789.5 c 128,-1,30
 406 807 406 807 406 832 c 128,-1,31
 406 857 406 857 423.5 874.5 c 128,-1,32
 441 892 441 892 465.5 892 c 128,-1,33
 490 892 490 892 508 874.5 c 128,-1,26
 526 857 526 857 526 832 c 128,-1,27
EndSplineSet
EndChar

StartChar: multiply
Encoding: 215 215 152
Width: 581
GlyphClass: 2
Flags: W
LayerCount: 2
Fore
SplineSet
464 117 m 1,0,-1
 289 291 l 1,1,-1
 118 120 l 1,2,-1
 60 177 l 1,3,-1
 232 349 l 1,4,-1
 62 519 l 1,5,-1
 119 577 l 1,6,-1
 289 406 l 1,7,-1
 463 579 l 1,8,-1
 520 522 l 1,9,-1
 346 348 l 1,10,-1
 521 174 l 1,11,-1
 464 117 l 1,0,-1
EndSplineSet
EndChar

StartChar: Oslash
Encoding: 216 216 153
Width: 735
GlyphClass: 2
Flags: W
LayerCount: 2
Fore
SplineSet
60 350 m 0,0,1
 60 712 60 712 367 712 c 0,2,3
 473 712 473 712 544 667 c 1,4,-1
 594 735 l 1,5,-1
 666 682 l 1,6,-1
 610 604 l 1,7,8
 675 512 675 512 675 350 c 0,9,10
 675 -12 675 -12 367 -12 c 0,11,12
 264 -12 264 -12 196 29 c 1,13,-1
 152 -33 l 1,14,-1
 76 19 l 1,15,-1
 128 90 l 1,16,17
 60 181 60 181 60 350 c 0,0,1
492 594 m 1,18,19
 446 634 446 634 378.5 634 c 128,-1,20
 311 634 311 634 270.5 612.5 c 128,-1,21
 230 591 230 591 208 551 c 0,22,23
 167 476 167 476 167 350 c 0,24,25
 167 291 167 291 172 257.5 c 128,-1,26
 177 224 177 224 186 175 c 1,27,-1
 204 172 l 1,28,29
 218 214 218 214 261 274 c 2,30,-1
 492 594 l 1,18,19
368 66 m 0,31,32
 570 66 570 66 570 350 c 0,33,34
 570 456 570 456 552 519 c 1,35,-1
 534 522 l 1,36,37
 521 481 521 481 485 430 c 2,38,-1
 248 101 l 1,39,40
 294 66 294 66 368 66 c 0,31,32
EndSplineSet
EndChar

StartChar: Ugrave
Encoding: 217 217 154
Width: 694
GlyphClass: 2
Flags: W
LayerCount: 2
Fore
SplineSet
614 700 m 1,0,-1
 614 260 l 2,1,2
 614 -12 614 -12 347 -12 c 128,-1,3
 80 -12 80 -12 80 260 c 2,4,-1
 80 700 l 1,5,-1
 180 700 l 1,6,-1
 180 280 l 2,7,8
 180 178 180 178 215 124.5 c 128,-1,9
 250 71 250 71 347 71 c 128,-1,10
 444 71 444 71 479 124.5 c 128,-1,11
 514 178 514 178 514 280 c 2,12,-1
 514 700 l 1,13,-1
 614 700 l 1,0,-1
213 852 m 0,14,15
 213 859 213 859 217 867 c 2,16,-1
 240 917 l 1,17,-1
 463 810 l 1,18,-1
 440 760 l 1,19,-1
 255 811 l 2,20,21
 213 822 213 822 213 852 c 0,14,15
EndSplineSet
EndChar

StartChar: Uacute
Encoding: 218 218 155
Width: 694
GlyphClass: 2
Flags: W
LayerCount: 2
Fore
SplineSet
614 700 m 1,0,-1
 614 260 l 2,1,2
 614 -12 614 -12 347 -12 c 128,-1,3
 80 -12 80 -12 80 260 c 2,4,-1
 80 700 l 1,5,-1
 180 700 l 1,6,-1
 180 280 l 2,7,8
 180 178 180 178 215 124.5 c 128,-1,9
 250 71 250 71 347 71 c 128,-1,10
 444 71 444 71 479 124.5 c 128,-1,11
 514 178 514 178 514 280 c 2,12,-1
 514 700 l 1,13,-1
 614 700 l 1,0,-1
483 852 m 0,14,15
 483 822 483 822 441 811 c 2,16,-1
 256 760 l 1,17,-1
 233 810 l 1,18,-1
 456 917 l 1,19,-1
 479 867 l 2,20,21
 483 859 483 859 483 852 c 0,14,15
EndSplineSet
EndChar

StartChar: Ucircumflex
Encoding: 219 219 156
Width: 694
GlyphClass: 2
Flags: W
LayerCount: 2
Fore
SplineSet
614 700 m 1,0,-1
 614 260 l 2,1,2
 614 -12 614 -12 347 -12 c 128,-1,3
 80 -12 80 -12 80 260 c 2,4,-1
 80 700 l 1,5,-1
 180 700 l 1,6,-1
 180 280 l 2,7,8
 180 178 180 178 215 124.5 c 128,-1,9
 250 71 250 71 347 71 c 128,-1,10
 444 71 444 71 479 124.5 c 128,-1,11
 514 178 514 178 514 280 c 2,12,-1
 514 700 l 1,13,-1
 614 700 l 1,0,-1
178 770 m 1,14,-1
 303 898 l 1,15,-1
 396 898 l 1,16,-1
 521 770 l 1,17,-1
 485 738 l 1,18,-1
 349 836 l 1,19,-1
 214 738 l 1,20,-1
 178 770 l 1,14,-1
EndSplineSet
EndChar

StartChar: Udieresis
Encoding: 220 220 157
Width: 694
GlyphClass: 2
Flags: W
LayerCount: 2
Fore
SplineSet
614 700 m 1,0,-1
 614 260 l 2,1,2
 614 -12 614 -12 347 -12 c 128,-1,3
 80 -12 80 -12 80 260 c 2,4,-1
 80 700 l 1,5,-1
 180 700 l 1,6,-1
 180 280 l 2,7,8
 180 178 180 178 215 124.5 c 128,-1,9
 250 71 250 71 347 71 c 128,-1,10
 444 71 444 71 479 124.5 c 128,-1,11
 514 178 514 178 514 280 c 2,12,-1
 514 700 l 1,13,-1
 614 700 l 1,0,-1
197 832 m 128,-1,15
 197 857 197 857 215 874.5 c 128,-1,16
 233 892 233 892 257.5 892 c 128,-1,17
 282 892 282 892 299.5 874.5 c 128,-1,18
 317 857 317 857 317 832 c 128,-1,19
 317 807 317 807 299.5 789.5 c 128,-1,20
 282 772 282 772 257.5 772 c 128,-1,21
 233 772 233 772 215 789.5 c 128,-1,14
 197 807 197 807 197 832 c 128,-1,15
500 832 m 128,-1,23
 500 807 500 807 482 789.5 c 128,-1,24
 464 772 464 772 439.5 772 c 128,-1,25
 415 772 415 772 397.5 789.5 c 128,-1,26
 380 807 380 807 380 832 c 128,-1,27
 380 857 380 857 397.5 874.5 c 128,-1,28
 415 892 415 892 439.5 892 c 128,-1,29
 464 892 464 892 482 874.5 c 128,-1,22
 500 857 500 857 500 832 c 128,-1,23
EndSplineSet
EndChar

StartChar: Yacute
Encoding: 221 221 158
Width: 560
GlyphClass: 2
Flags: W
LayerCount: 2
Fore
SplineSet
325 0 m 1,0,-1
 227 0 l 1,1,-1
 227 263 l 1,2,-1
 3 700 l 1,3,-1
 109 700 l 1,4,-1
 238 429 l 2,5,6
 258 387 258 387 266 339 c 1,7,-1
 268 323 l 1,8,-1
 284 323 l 1,9,10
 293 382 293 382 316 429 c 2,11,-1
 451 700 l 1,12,-1
 557 700 l 1,13,-1
 325 263 l 1,14,-1
 325 0 l 1,0,-1
433 852 m 0,15,16
 433 822 433 822 391 811 c 2,17,-1
 206 760 l 1,18,-1
 183 810 l 1,19,-1
 406 917 l 1,20,-1
 429 867 l 2,21,22
 433 859 433 859 433 852 c 0,15,16
EndSplineSet
EndChar

StartChar: Thorn
Encoding: 222 222 159
Width: 559
GlyphClass: 2
Flags: W
LayerCount: 2
Fore
SplineSet
188 0 m 1,0,-1
 88 0 l 1,1,-1
 88 700 l 1,2,-1
 188 700 l 1,3,-1
 188 558 l 1,4,-1
 307 558 l 2,5,6
 419 558 419 558 478 502.5 c 128,-1,7
 537 447 537 447 537 337 c 0,8,9
 537 116 537 116 267 116 c 2,10,-1
 188 116 l 1,11,-1
 188 0 l 1,0,-1
188 192 m 1,12,-1
 284 192 l 2,13,14
 358 192 358 192 399.5 229 c 128,-1,15
 441 266 441 266 441 337 c 0,16,17
 441 484 441 484 299 484 c 2,18,-1
 188 484 l 1,19,-1
 188 192 l 1,12,-1
EndSplineSet
EndChar

StartChar: germandbls
Encoding: 223 223 160
Width: 699
GlyphClass: 2
Flags: W
LayerCount: 2
Fore
SplineSet
536 687 m 0,0,1
 567 651 567 651 567 605 c 128,-1,2
 567 559 567 559 540.5 529.5 c 128,-1,3
 514 500 514 500 482 484 c 128,-1,4
 450 468 450 468 423.5 443.5 c 128,-1,5
 397 419 397 419 397 390.5 c 128,-1,6
 397 362 397 362 416 346.5 c 128,-1,7
 435 331 435 331 484 310 c 2,8,-1
 552 280 l 2,9,10
 607 256 607 256 633 225.5 c 128,-1,11
 659 195 659 195 659 145 c 0,12,13
 659 65 659 65 605 26.5 c 128,-1,14
 551 -12 551 -12 463.5 -12 c 128,-1,15
 376 -12 376 -12 283 34 c 1,16,-1
 309 96 l 1,17,18
 402 56 402 56 458 56 c 0,19,20
 562 56 562 56 562 131 c 0,21,22
 562 159 562 159 546 176 c 128,-1,23
 530 193 530 193 481 213 c 2,24,-1
 418 238 l 1,25,26
 306 281 306 281 306 377 c 0,27,28
 306 408 306 408 318.5 434 c 128,-1,29
 331 460 331 460 349.5 475.5 c 128,-1,30
 368 491 368 491 389.5 506 c 128,-1,31
 411 521 411 521 430 532 c 0,32,33
 473 558 473 558 473 591 c 0,34,35
 473 638 473 638 436 661 c 128,-1,36
 399 684 399 684 349 684 c 2,37,-1
 328 684 l 2,38,39
 272 684 272 684 244 646.5 c 128,-1,40
 216 609 216 609 216 557 c 2,41,-1
 216 0 l 1,42,-1
 116 0 l 1,43,-1
 116 448 l 1,44,-1
 40 448 l 1,45,-1
 40 483 l 1,46,-1
 116 516 l 1,47,-1
 116 538 l 2,48,49
 116 752 116 752 327 752 c 2,50,-1
 360 752 l 2,51,52
 479 752 479 752 536 687 c 0,0,1
EndSplineSet
EndChar

StartChar: agrave
Encoding: 224 224 161
Width: 564
GlyphClass: 2
Flags: W
LayerCount: 2
Fore
SplineSet
476 358 m 2,0,-1
 476 123 l 2,1,2
 476 89 476 89 483 74.5 c 128,-1,3
 490 60 490 60 514 53 c 1,4,-1
 500 -7 l 1,5,6
 493 -12 493 -12 469.5 -11.5 c 128,-1,7
 446 -11 446 -11 431 -2.5 c 128,-1,8
 416 6 416 6 402 31 c 2,9,-1
 387 58 l 1,10,-1
 371 58 l 1,11,12
 318 -12 318 -12 224 -12 c 0,13,14
 147 -12 147 -12 102 28.5 c 128,-1,15
 57 69 57 69 57 146 c 128,-1,16
 57 223 57 223 107 261 c 128,-1,17
 157 299 157 299 263 307 c 2,18,-1
 377 316 l 1,19,-1
 377 349 l 2,20,21
 377 409 377 409 351 434.5 c 128,-1,22
 325 460 325 460 264.5 460 c 128,-1,23
 204 460 204 460 114 438 c 1,24,-1
 96 497 l 1,25,26
 130 510 130 510 182 519 c 128,-1,27
 234 528 234 528 272 528 c 0,28,29
 373 528 373 528 424.5 487.5 c 128,-1,30
 476 447 476 447 476 358 c 2,0,-1
377 165 m 2,31,-1
 377 254 l 1,32,-1
 281 247 l 2,33,34
 159 238 159 238 159 150 c 0,35,36
 159 56 159 56 253 56 c 0,37,38
 306 56 306 56 341.5 81.5 c 128,-1,39
 377 107 377 107 377 165 c 2,31,-1
146 712 m 0,40,41
 146 723 146 723 153 733 c 2,42,-1
 185 778 l 1,43,-1
 385 633 l 1,44,-1
 354 588 l 1,45,-1
 180 670 l 2,46,47
 146 685 146 685 146 712 c 0,40,41
EndSplineSet
EndChar

StartChar: aacute
Encoding: 225 225 162
Width: 564
GlyphClass: 2
Flags: W
LayerCount: 2
Fore
SplineSet
476 358 m 2,0,-1
 476 123 l 2,1,2
 476 89 476 89 483 74.5 c 128,-1,3
 490 60 490 60 514 53 c 1,4,-1
 500 -7 l 1,5,6
 493 -12 493 -12 469.5 -11.5 c 128,-1,7
 446 -11 446 -11 431 -2.5 c 128,-1,8
 416 6 416 6 402 31 c 2,9,-1
 387 58 l 1,10,-1
 371 58 l 1,11,12
 318 -12 318 -12 224 -12 c 0,13,14
 147 -12 147 -12 102 28.5 c 128,-1,15
 57 69 57 69 57 146 c 128,-1,16
 57 223 57 223 107 261 c 128,-1,17
 157 299 157 299 263 307 c 2,18,-1
 377 316 l 1,19,-1
 377 349 l 2,20,21
 377 409 377 409 351 434.5 c 128,-1,22
 325 460 325 460 264.5 460 c 128,-1,23
 204 460 204 460 114 438 c 1,24,-1
 96 497 l 1,25,26
 130 510 130 510 182 519 c 128,-1,27
 234 528 234 528 272 528 c 0,28,29
 373 528 373 528 424.5 487.5 c 128,-1,30
 476 447 476 447 476 358 c 2,0,-1
377 165 m 2,31,-1
 377 254 l 1,32,-1
 281 247 l 2,33,34
 159 238 159 238 159 150 c 0,35,36
 159 56 159 56 253 56 c 0,37,38
 306 56 306 56 341.5 81.5 c 128,-1,39
 377 107 377 107 377 165 c 2,31,-1
402 711 m 0,40,41
 402 684 402 684 368 669 c 2,42,-1
 194 587 l 1,43,-1
 163 632 l 1,44,-1
 363 777 l 1,45,-1
 395 732 l 2,46,47
 402 722 402 722 402 711 c 0,40,41
EndSplineSet
EndChar

StartChar: acircumflex
Encoding: 226 226 163
Width: 564
GlyphClass: 2
Flags: W
LayerCount: 2
Fore
SplineSet
476 358 m 2,0,-1
 476 123 l 2,1,2
 476 89 476 89 483 74.5 c 128,-1,3
 490 60 490 60 514 53 c 1,4,-1
 500 -7 l 1,5,6
 493 -12 493 -12 469.5 -11.5 c 128,-1,7
 446 -11 446 -11 431 -2.5 c 128,-1,8
 416 6 416 6 402 31 c 2,9,-1
 387 58 l 1,10,-1
 371 58 l 1,11,12
 318 -12 318 -12 224 -12 c 0,13,14
 147 -12 147 -12 102 28.5 c 128,-1,15
 57 69 57 69 57 146 c 128,-1,16
 57 223 57 223 107 261 c 128,-1,17
 157 299 157 299 263 307 c 2,18,-1
 377 316 l 1,19,-1
 377 349 l 2,20,21
 377 409 377 409 351 434.5 c 128,-1,22
 325 460 325 460 264.5 460 c 128,-1,23
 204 460 204 460 114 438 c 1,24,-1
 96 497 l 1,25,26
 130 510 130 510 182 519 c 128,-1,27
 234 528 234 528 272 528 c 0,28,29
 373 528 373 528 424.5 487.5 c 128,-1,30
 476 447 476 447 476 358 c 2,0,-1
377 165 m 2,31,-1
 377 254 l 1,32,-1
 281 247 l 2,33,34
 159 238 159 238 159 150 c 0,35,36
 159 56 159 56 253 56 c 0,37,38
 306 56 306 56 341.5 81.5 c 128,-1,39
 377 107 377 107 377 165 c 2,31,-1
113 611 m 1,40,-1
 238 759 l 1,41,-1
 331 759 l 1,42,-1
 456 611 l 1,43,-1
 420 579 l 1,44,-1
 284 692 l 1,45,-1
 149 579 l 1,46,-1
 113 611 l 1,40,-1
EndSplineSet
EndChar

StartChar: atilde
Encoding: 227 227 164
Width: 564
GlyphClass: 2
Flags: W
LayerCount: 2
Fore
SplineSet
476 358 m 2,0,-1
 476 123 l 2,1,2
 476 89 476 89 483 74.5 c 128,-1,3
 490 60 490 60 514 53 c 1,4,-1
 500 -7 l 1,5,6
 493 -12 493 -12 469.5 -11.5 c 128,-1,7
 446 -11 446 -11 431 -2.5 c 128,-1,8
 416 6 416 6 402 31 c 2,9,-1
 387 58 l 1,10,-1
 371 58 l 1,11,12
 318 -12 318 -12 224 -12 c 0,13,14
 147 -12 147 -12 102 28.5 c 128,-1,15
 57 69 57 69 57 146 c 128,-1,16
 57 223 57 223 107 261 c 128,-1,17
 157 299 157 299 263 307 c 2,18,-1
 377 316 l 1,19,-1
 377 349 l 2,20,21
 377 409 377 409 351 434.5 c 128,-1,22
 325 460 325 460 264.5 460 c 128,-1,23
 204 460 204 460 114 438 c 1,24,-1
 96 497 l 1,25,26
 130 510 130 510 182 519 c 128,-1,27
 234 528 234 528 272 528 c 0,28,29
 373 528 373 528 424.5 487.5 c 128,-1,30
 476 447 476 447 476 358 c 2,0,-1
377 165 m 2,31,-1
 377 254 l 1,32,-1
 281 247 l 2,33,34
 159 238 159 238 159 150 c 0,35,36
 159 56 159 56 253 56 c 0,37,38
 306 56 306 56 341.5 81.5 c 128,-1,39
 377 107 377 107 377 165 c 2,31,-1
352 610 m 0,40,41
 319 610 319 610 278 630.5 c 128,-1,42
 237 651 237 651 217.5 651 c 128,-1,43
 198 651 198 651 186.5 642.5 c 128,-1,44
 175 634 175 634 159 612 c 1,45,-1
 104 648 l 1,46,47
 144 726 144 726 218 726 c 0,48,49
 250 726 250 726 292.5 705.5 c 128,-1,50
 335 685 335 685 351 685 c 0,51,52
 395 685 395 685 411 722 c 1,53,-1
 467 687 l 1,54,55
 429 610 429 610 352 610 c 0,40,41
EndSplineSet
EndChar

StartChar: adieresis
Encoding: 228 228 165
Width: 564
GlyphClass: 2
Flags: W
LayerCount: 2
Fore
SplineSet
476 358 m 2,0,-1
 476 123 l 2,1,2
 476 89 476 89 483 74.5 c 128,-1,3
 490 60 490 60 514 53 c 1,4,-1
 500 -7 l 1,5,6
 493 -12 493 -12 469.5 -11.5 c 128,-1,7
 446 -11 446 -11 431 -2.5 c 128,-1,8
 416 6 416 6 402 31 c 2,9,-1
 387 58 l 1,10,-1
 371 58 l 1,11,12
 318 -12 318 -12 224 -12 c 0,13,14
 147 -12 147 -12 102 28.5 c 128,-1,15
 57 69 57 69 57 146 c 128,-1,16
 57 223 57 223 107 261 c 128,-1,17
 157 299 157 299 263 307 c 2,18,-1
 377 316 l 1,19,-1
 377 349 l 2,20,21
 377 409 377 409 351 434.5 c 128,-1,22
 325 460 325 460 264.5 460 c 128,-1,23
 204 460 204 460 114 438 c 1,24,-1
 96 497 l 1,25,26
 130 510 130 510 182 519 c 128,-1,27
 234 528 234 528 272 528 c 0,28,29
 373 528 373 528 424.5 487.5 c 128,-1,30
 476 447 476 447 476 358 c 2,0,-1
377 165 m 2,31,-1
 377 254 l 1,32,-1
 281 247 l 2,33,34
 159 238 159 238 159 150 c 0,35,36
 159 56 159 56 253 56 c 0,37,38
 306 56 306 56 341.5 81.5 c 128,-1,39
 377 107 377 107 377 165 c 2,31,-1
118 668 m 128,-1,41
 118 693 118 693 136 710.5 c 128,-1,42
 154 728 154 728 178.5 728 c 128,-1,43
 203 728 203 728 220.5 710.5 c 128,-1,44
 238 693 238 693 238 668 c 128,-1,45
 238 643 238 643 220.5 625.5 c 128,-1,46
 203 608 203 608 178.5 608 c 128,-1,47
 154 608 154 608 136 625.5 c 128,-1,40
 118 643 118 643 118 668 c 128,-1,41
452 668 m 128,-1,49
 452 643 452 643 434 625.5 c 128,-1,50
 416 608 416 608 391.5 608 c 128,-1,51
 367 608 367 608 349.5 625.5 c 128,-1,52
 332 643 332 643 332 668 c 128,-1,53
 332 693 332 693 349.5 710.5 c 128,-1,54
 367 728 367 728 391.5 728 c 128,-1,55
 416 728 416 728 434 710.5 c 128,-1,48
 452 693 452 693 452 668 c 128,-1,49
EndSplineSet
EndChar

StartChar: aring
Encoding: 229 229 166
Width: 564
GlyphClass: 2
Flags: W
LayerCount: 2
Fore
SplineSet
476 358 m 2,0,-1
 476 123 l 2,1,2
 476 89 476 89 483 74.5 c 128,-1,3
 490 60 490 60 514 53 c 1,4,-1
 500 -7 l 1,5,6
 493 -12 493 -12 469.5 -11.5 c 128,-1,7
 446 -11 446 -11 431 -2.5 c 128,-1,8
 416 6 416 6 402 31 c 2,9,-1
 387 58 l 1,10,-1
 371 58 l 1,11,12
 318 -12 318 -12 224 -12 c 0,13,14
 147 -12 147 -12 102 28.5 c 128,-1,15
 57 69 57 69 57 146 c 128,-1,16
 57 223 57 223 107 261 c 128,-1,17
 157 299 157 299 263 307 c 2,18,-1
 377 316 l 1,19,-1
 377 349 l 2,20,21
 377 409 377 409 351 434.5 c 128,-1,22
 325 460 325 460 264.5 460 c 128,-1,23
 204 460 204 460 114 438 c 1,24,-1
 96 497 l 1,25,26
 130 510 130 510 182 519 c 128,-1,27
 234 528 234 528 272 528 c 0,28,29
 373 528 373 528 424.5 487.5 c 128,-1,30
 476 447 476 447 476 358 c 2,0,-1
377 165 m 2,31,-1
 377 254 l 1,32,-1
 281 247 l 2,33,34
 159 238 159 238 159 150 c 0,35,36
 159 56 159 56 253 56 c 0,37,38
 306 56 306 56 341.5 81.5 c 128,-1,39
 377 107 377 107 377 165 c 2,31,-1
174 669 m 128,-1,41
 174 713 174 713 205 742.5 c 128,-1,42
 236 772 236 772 281 772 c 128,-1,43
 326 772 326 772 358 742.5 c 128,-1,44
 390 713 390 713 390 669 c 128,-1,45
 390 625 390 625 358 596.5 c 128,-1,46
 326 568 326 568 281 568 c 128,-1,47
 236 568 236 568 205 596.5 c 128,-1,40
 174 625 174 625 174 669 c 128,-1,41
247 705 m 128,-1,49
 233 691 233 691 233 669.5 c 128,-1,50
 233 648 233 648 247 634.5 c 128,-1,51
 261 621 261 621 281.5 621 c 128,-1,52
 302 621 302 621 316.5 634.5 c 128,-1,53
 331 648 331 648 331 669.5 c 128,-1,54
 331 691 331 691 316.5 705 c 128,-1,55
 302 719 302 719 281.5 719 c 128,-1,48
 261 719 261 719 247 705 c 128,-1,49
EndSplineSet
EndChar

StartChar: ae
Encoding: 230 230 167
Width: 858
GlyphClass: 2
Flags: W
LayerCount: 2
Fore
SplineSet
597 528 m 0,0,1
 813 528 813 528 813 284 c 2,2,-1
 813 247 l 1,3,-1
 476 247 l 1,4,5
 476 59 476 59 617 59 c 0,6,7
 691 59 691 59 774 87 c 1,8,-1
 794 27 l 1,9,10
 703 -12 703 -12 610 -12 c 0,11,12
 481 -12 481 -12 421 70 c 1,13,-1
 405 70 l 1,14,15
 349 -12 349 -12 251 -12 c 128,-1,16
 153 -12 153 -12 105 28 c 128,-1,17
 57 68 57 68 57 145 c 128,-1,18
 57 222 57 222 108.5 259.5 c 128,-1,19
 160 297 160 297 265 303 c 2,20,-1
 377 309 l 1,21,-1
 377 349 l 2,22,23
 377 409 377 409 351 434.5 c 128,-1,24
 325 460 325 460 264.5 460 c 128,-1,25
 204 460 204 460 114 438 c 1,26,-1
 96 497 l 1,27,28
 175 528 175 528 272 528 c 0,29,30
 393 528 393 528 433 466 c 1,31,-1
 449 466 l 1,32,33
 481 502 481 502 515 515 c 128,-1,34
 549 528 549 528 597 528 c 0,0,1
377 165 m 2,35,-1
 377 247 l 1,36,-1
 281 243 l 1,37,38
 159 239 159 239 159 150 c 0,39,40
 159 56 159 56 253 56 c 0,41,42
 306 56 306 56 341.5 81.5 c 128,-1,43
 377 107 377 107 377 165 c 2,35,-1
713 309 m 1,44,45
 713 380 713 380 687.5 420.5 c 128,-1,46
 662 461 662 461 596 461 c 128,-1,47
 530 461 530 461 505 421 c 128,-1,48
 480 381 480 381 476 309 c 1,49,-1
 713 309 l 1,44,45
EndSplineSet
EndChar

StartChar: ccedilla
Encoding: 231 231 168
Width: 463
GlyphClass: 2
Flags: W
LayerCount: 2
Fore
SplineSet
242 -177 m 0,0,1
 296 -177 296 -177 296 -129 c 0,2,3
 296 -105 296 -105 273.5 -96 c 128,-1,4
 251 -87 251 -87 208 -84 c 1,5,-1
 227 -5 l 1,6,7
 50 32 50 32 50 258 c 0,8,9
 50 528 50 528 298 528 c 0,10,11
 377 528 377 528 438 502 c 1,12,-1
 418 443 l 1,13,14
 365 460 365 460 295.5 460 c 128,-1,15
 226 460 226 460 191 406 c 128,-1,16
 156 352 156 352 156 258 c 128,-1,17
 156 164 156 164 191 110.5 c 128,-1,18
 226 57 226 57 292.5 57 c 128,-1,19
 359 57 359 57 418 75 c 1,20,-1
 438 14 l 1,21,22
 377 -12 377 -12 298 -12 c 0,23,24
 285 -12 285 -12 279 -11 c 1,25,-1
 269 -48 l 1,26,27
 311 -54 311 -54 334.5 -76.5 c 128,-1,28
 358 -99 358 -99 358 -130 c 0,29,30
 358 -220 358 -220 246 -220 c 0,31,32
 208 -220 208 -220 178 -210 c 1,33,-1
 188 -170 l 1,34,35
 214 -177 214 -177 242 -177 c 0,0,1
EndSplineSet
EndChar

StartChar: egrave
Encoding: 232 232 169
Width: 538
GlyphClass: 2
Flags: W
LayerCount: 2
Fore
SplineSet
474 27 m 1,0,1
 382 -12 382 -12 287 -12 c 0,2,3
 171 -12 171 -12 110.5 60.5 c 128,-1,4
 50 133 50 133 50 256 c 128,-1,5
 50 379 50 379 108 453.5 c 128,-1,6
 166 528 166 528 277 528 c 0,7,8
 493 528 493 528 493 273 c 2,9,-1
 493 236 l 1,10,-1
 156 236 l 1,11,12
 156 59 156 59 297 59 c 0,13,14
 371 59 371 59 454 87 c 1,15,-1
 474 27 l 1,0,1
393 298 m 1,16,17
 393 375 393 375 368 417.5 c 128,-1,18
 343 460 343 460 276.5 460 c 128,-1,19
 210 460 210 460 184.5 418 c 128,-1,20
 159 376 159 376 156 298 c 1,21,-1
 393 298 l 1,16,17
155 712 m 0,22,23
 155 723 155 723 162 733 c 2,24,-1
 194 778 l 1,25,-1
 394 633 l 1,26,-1
 363 588 l 1,27,-1
 189 670 l 2,28,29
 155 685 155 685 155 712 c 0,22,23
EndSplineSet
EndChar

StartChar: eacute
Encoding: 233 233 170
Width: 588
GlyphClass: 2
Flags: W
LayerCount: 2
Fore
SplineSet
438 711 m 0,0,1
 438 684 438 684 404 669 c 2,2,-1
 230 587 l 1,3,-1
 199 632 l 1,4,-1
 399 777 l 1,5,-1
 431 732 l 2,6,7
 438 722 438 722 438 711 c 0,0,1
304 528 m 0,8,9
 520 528 520 528 520 273 c 2,10,-1
 520 236 l 1,11,-1
 183 236 l 1,12,13
 183 59 183 59 324 59 c 0,14,15
 398 59 398 59 481 87 c 1,16,-1
 501 27 l 1,17,18
 414 -10 414 -10 317 -12 c 0,19,20
 315 -12 315 -12 314 -12 c 0,21,22
 198 -12 198 -12 137.5 60.5 c 128,-1,23
 77 133 77 133 77 256 c 128,-1,24
 77 379 77 379 135 453.5 c 128,-1,25
 193 528 193 528 304 528 c 0,8,9
211.5 418 m 128,-1,27
 186 376 186 376 183 298 c 1,28,-1
 420 298 l 1,29,30
 420 375 420 375 395 417.5 c 128,-1,31
 370 460 370 460 303.5 460 c 128,-1,26
 237 460 237 460 211.5 418 c 128,-1,27
EndSplineSet
EndChar

StartChar: ecircumflex
Encoding: 234 234 171
Width: 538
GlyphClass: 2
Flags: W
LayerCount: 2
Fore
SplineSet
474 27 m 1,0,1
 382 -12 382 -12 287 -12 c 0,2,3
 171 -12 171 -12 110.5 60.5 c 128,-1,4
 50 133 50 133 50 256 c 128,-1,5
 50 379 50 379 108 453.5 c 128,-1,6
 166 528 166 528 277 528 c 0,7,8
 493 528 493 528 493 273 c 2,9,-1
 493 236 l 1,10,-1
 156 236 l 1,11,12
 156 59 156 59 297 59 c 0,13,14
 371 59 371 59 454 87 c 1,15,-1
 474 27 l 1,0,1
393 298 m 1,16,17
 393 375 393 375 368 417.5 c 128,-1,18
 343 460 343 460 276.5 460 c 128,-1,19
 210 460 210 460 184.5 418 c 128,-1,20
 159 376 159 376 156 298 c 1,21,-1
 393 298 l 1,16,17
106 611 m 1,22,-1
 231 759 l 1,23,-1
 324 759 l 1,24,-1
 449 611 l 1,25,-1
 413 579 l 1,26,-1
 277 692 l 1,27,-1
 142 579 l 1,28,-1
 106 611 l 1,22,-1
EndSplineSet
EndChar

StartChar: edieresis
Encoding: 235 235 172
Width: 538
GlyphClass: 2
Flags: W
LayerCount: 2
Fore
SplineSet
277 528 m 0,0,1
 493 528 493 528 493 273 c 2,2,-1
 493 236 l 1,3,-1
 156 236 l 1,4,5
 156 59 156 59 297 59 c 0,6,7
 371 59 371 59 454 87 c 1,8,-1
 474 27 l 1,9,10
 387 -10 387 -10 290 -12 c 0,11,12
 288 -12 288 -12 287 -12 c 0,13,14
 171 -12 171 -12 110.5 60.5 c 128,-1,15
 50 133 50 133 50 256 c 128,-1,16
 50 379 50 379 108 453.5 c 128,-1,17
 166 528 166 528 277 528 c 0,0,1
184.5 418 m 128,-1,19
 159 376 159 376 156 298 c 1,20,-1
 393 298 l 1,21,22
 393 375 393 375 368 417.5 c 128,-1,23
 343 460 343 460 276.5 460 c 128,-1,18
 210 460 210 460 184.5 418 c 128,-1,19
110 668 m 128,-1,25
 110 693 110 693 128 710.5 c 128,-1,26
 146 728 146 728 170.5 728 c 128,-1,27
 195 728 195 728 212.5 710.5 c 128,-1,28
 230 693 230 693 230 668 c 128,-1,29
 230 643 230 643 212.5 625.5 c 128,-1,30
 195 608 195 608 170.5 608 c 128,-1,31
 146 608 146 608 128 625.5 c 128,-1,24
 110 643 110 643 110 668 c 128,-1,25
444 668 m 128,-1,33
 444 643 444 643 426 625.5 c 128,-1,34
 408 608 408 608 383.5 608 c 128,-1,35
 359 608 359 608 341.5 625.5 c 128,-1,36
 324 643 324 643 324 668 c 128,-1,37
 324 693 324 693 341.5 710.5 c 128,-1,38
 359 728 359 728 383.5 728 c 128,-1,39
 408 728 408 728 426 710.5 c 128,-1,32
 444 693 444 693 444 668 c 128,-1,33
EndSplineSet
EndChar

StartChar: igrave
Encoding: 236 236 173
Width: 294
GlyphClass: 2
Flags: W
LayerCount: 2
Fore
SplineSet
4 712 m 0,0,1
 4 723 4 723 11 733 c 2,2,-1
 43 778 l 1,3,-1
 243 633 l 1,4,-1
 212 588 l 1,5,-1
 38 670 l 2,6,7
 4 685 4 685 4 712 c 0,0,1
197 0 m 1,8,-1
 97 0 l 1,9,-1
 97 516 l 1,10,-1
 197 516 l 1,11,-1
 197 0 l 1,8,-1
EndSplineSet
EndChar

StartChar: iacute
Encoding: 237 237 174
Width: 293
GlyphClass: 2
Flags: W
LayerCount: 2
Fore
SplineSet
287 711 m 0,0,1
 287 684 287 684 253 669 c 2,2,-1
 79 587 l 1,3,-1
 48 632 l 1,4,-1
 248 777 l 1,5,-1
 280 732 l 2,6,7
 287 722 287 722 287 711 c 0,0,1
197 0 m 1,8,-1
 97 0 l 1,9,-1
 97 516 l 1,10,-1
 197 516 l 1,11,-1
 197 0 l 1,8,-1
EndSplineSet
EndChar

StartChar: icircumflex
Encoding: 238 238 175
Width: 294
GlyphClass: 2
Flags: W
LayerCount: 2
Fore
SplineSet
-25 611 m 1,0,-1
 100 759 l 1,1,-1
 193 759 l 1,2,-1
 318 611 l 1,3,-1
 282 579 l 1,4,-1
 146 692 l 1,5,-1
 11 579 l 1,6,-1
 -25 611 l 1,0,-1
196 0 m 1,7,-1
 96 0 l 1,8,-1
 96 516 l 1,9,-1
 196 516 l 1,10,-1
 196 0 l 1,7,-1
EndSplineSet
EndChar

StartChar: idieresis
Encoding: 239 239 176
Width: 294
GlyphClass: 2
Flags: W
LayerCount: 2
Fore
SplineSet
3 685 m 128,-1,1
 3 710 3 710 21 727.5 c 128,-1,2
 39 745 39 745 63.5 745 c 128,-1,3
 88 745 88 745 105.5 727.5 c 128,-1,4
 123 710 123 710 123 685 c 128,-1,5
 123 660 123 660 105.5 642.5 c 128,-1,6
 88 625 88 625 63.5 625 c 128,-1,7
 39 625 39 625 21 642.5 c 128,-1,0
 3 660 3 660 3 685 c 128,-1,1
291 685 m 128,-1,9
 291 660 291 660 273 642.5 c 128,-1,10
 255 625 255 625 230.5 625 c 128,-1,11
 206 625 206 625 188.5 642.5 c 128,-1,12
 171 660 171 660 171 685 c 128,-1,13
 171 710 171 710 188.5 727.5 c 128,-1,14
 206 745 206 745 230.5 745 c 128,-1,15
 255 745 255 745 273 727.5 c 128,-1,8
 291 710 291 710 291 685 c 128,-1,9
197 0 m 1,16,-1
 97 0 l 1,17,-1
 97 516 l 1,18,-1
 197 516 l 1,19,-1
 197 0 l 1,16,-1
EndSplineSet
EndChar

StartChar: eth
Encoding: 240 240 177
Width: 583
GlyphClass: 2
Flags: W
LayerCount: 2
Fore
SplineSet
533 257 m 0,0,1
 533 127 533 127 470.5 57.5 c 128,-1,2
 408 -12 408 -12 291 -12 c 128,-1,3
 174 -12 174 -12 112 57 c 128,-1,4
 50 126 50 126 50 243.5 c 128,-1,5
 50 361 50 361 112.5 426.5 c 128,-1,6
 175 492 175 492 292 492 c 0,7,8
 378 492 378 492 406 434 c 1,9,-1
 421 439 l 1,10,11
 375 553 375 553 298 612 c 1,12,-1
 194 541 l 1,13,-1
 161 588 l 1,14,-1
 245 646 l 1,15,16
 201 670 201 670 150 688 c 1,17,-1
 175 750 l 1,18,19
 256 725 256 725 312 692 c 1,20,-1
 398 751 l 1,21,-1
 431 703 l 1,22,-1
 362 656 l 1,23,24
 533 522 533 522 533 257 c 0,0,1
188 107.5 m 128,-1,26
 221 53 221 53 290.5 53 c 128,-1,27
 360 53 360 53 394 108 c 128,-1,28
 428 163 428 163 428 244 c 128,-1,29
 428 325 428 325 395 375.5 c 128,-1,30
 362 426 362 426 292 426 c 128,-1,31
 222 426 222 426 188.5 375 c 128,-1,32
 155 324 155 324 155 243 c 128,-1,25
 155 162 155 162 188 107.5 c 128,-1,26
EndSplineSet
EndChar

StartChar: ntilde
Encoding: 241 241 178
Width: 611
GlyphClass: 2
Flags: W
LayerCount: 2
Fore
SplineSet
116 524 m 2,0,1
 143 524 143 524 158 498 c 2,2,-1
 172 472 l 1,3,-1
 188 472 l 1,4,5
 219 505 219 505 248 516.5 c 128,-1,6
 277 528 277 528 327 528 c 0,7,8
 432 528 432 528 480 478 c 128,-1,9
 528 428 528 428 528 319 c 2,10,-1
 528 0 l 1,11,-1
 428 0 l 1,12,-1
 428 318 l 2,13,14
 428 386 428 386 405 423 c 128,-1,15
 382 460 382 460 311.5 460 c 128,-1,16
 241 460 241 460 190 422 c 1,17,-1
 190 0 l 1,18,-1
 90 0 l 1,19,-1
 90 415 l 1,20,-1
 67 524 l 1,21,-1
 116 524 l 2,0,1
376 614 m 0,22,23
 343 614 343 614 302 634.5 c 128,-1,24
 261 655 261 655 241.5 655 c 128,-1,25
 222 655 222 655 210.5 646.5 c 128,-1,26
 199 638 199 638 183 616 c 1,27,-1
 128 652 l 1,28,29
 168 730 168 730 242 730 c 0,30,31
 274 730 274 730 316.5 709.5 c 128,-1,32
 359 689 359 689 375 689 c 0,33,34
 419 689 419 689 435 726 c 1,35,-1
 491 691 l 1,36,37
 453 614 453 614 376 614 c 0,22,23
EndSplineSet
EndChar

StartChar: ograve
Encoding: 242 242 179
Width: 583
GlyphClass: 2
Flags: W
LayerCount: 2
Fore
SplineSet
533 258 m 128,-1,1
 533 129 533 129 473 58.5 c 128,-1,2
 413 -12 413 -12 291.5 -12 c 128,-1,3
 170 -12 170 -12 110 58.5 c 128,-1,4
 50 129 50 129 50 258 c 128,-1,5
 50 387 50 387 110 457.5 c 128,-1,6
 170 528 170 528 291.5 528 c 128,-1,7
 413 528 413 528 473 457.5 c 128,-1,0
 533 387 533 387 533 258 c 128,-1,1
156 258 m 128,-1,9
 156 56 156 56 291.5 56 c 128,-1,10
 427 56 427 56 427 258 c 128,-1,11
 427 460 427 460 291.5 460 c 128,-1,8
 156 460 156 460 156 258 c 128,-1,9
153 712 m 0,12,13
 153 723 153 723 160 733 c 2,14,-1
 192 778 l 1,15,-1
 392 633 l 1,16,-1
 361 588 l 1,17,-1
 187 670 l 2,18,19
 153 685 153 685 153 712 c 0,12,13
EndSplineSet
EndChar

StartChar: oacute
Encoding: 243 243 180
Width: 583
GlyphClass: 2
Flags: W
LayerCount: 2
Fore
SplineSet
533 258 m 128,-1,1
 533 129 533 129 473 58.5 c 128,-1,2
 413 -12 413 -12 291.5 -12 c 128,-1,3
 170 -12 170 -12 110 58.5 c 128,-1,4
 50 129 50 129 50 258 c 128,-1,5
 50 387 50 387 110 457.5 c 128,-1,6
 170 528 170 528 291.5 528 c 128,-1,7
 413 528 413 528 473 457.5 c 128,-1,0
 533 387 533 387 533 258 c 128,-1,1
156 258 m 128,-1,9
 156 56 156 56 291.5 56 c 128,-1,10
 427 56 427 56 427 258 c 128,-1,11
 427 460 427 460 291.5 460 c 128,-1,8
 156 460 156 460 156 258 c 128,-1,9
410 711 m 0,12,13
 410 684 410 684 376 669 c 2,14,-1
 202 587 l 1,15,-1
 171 632 l 1,16,-1
 371 777 l 1,17,-1
 403 732 l 2,18,19
 410 722 410 722 410 711 c 0,12,13
EndSplineSet
EndChar

StartChar: ocircumflex
Encoding: 244 244 181
Width: 583
GlyphClass: 2
Flags: W
LayerCount: 2
Fore
SplineSet
533 258 m 128,-1,1
 533 129 533 129 473 58.5 c 128,-1,2
 413 -12 413 -12 291.5 -12 c 128,-1,3
 170 -12 170 -12 110 58.5 c 128,-1,4
 50 129 50 129 50 258 c 128,-1,5
 50 387 50 387 110 457.5 c 128,-1,6
 170 528 170 528 291.5 528 c 128,-1,7
 413 528 413 528 473 457.5 c 128,-1,0
 533 387 533 387 533 258 c 128,-1,1
156 258 m 128,-1,9
 156 56 156 56 291.5 56 c 128,-1,10
 427 56 427 56 427 258 c 128,-1,11
 427 460 427 460 291.5 460 c 128,-1,8
 156 460 156 460 156 258 c 128,-1,9
119 611 m 1,12,-1
 244 759 l 1,13,-1
 337 759 l 1,14,-1
 462 611 l 1,15,-1
 426 579 l 1,16,-1
 290 692 l 1,17,-1
 155 579 l 1,18,-1
 119 611 l 1,12,-1
EndSplineSet
EndChar

StartChar: otilde
Encoding: 245 245 182
Width: 583
GlyphClass: 2
Flags: W
LayerCount: 2
Fore
SplineSet
533 258 m 128,-1,1
 533 129 533 129 473 58.5 c 128,-1,2
 413 -12 413 -12 291.5 -12 c 128,-1,3
 170 -12 170 -12 110 58.5 c 128,-1,4
 50 129 50 129 50 258 c 128,-1,5
 50 387 50 387 110 457.5 c 128,-1,6
 170 528 170 528 291.5 528 c 128,-1,7
 413 528 413 528 473 457.5 c 128,-1,0
 533 387 533 387 533 258 c 128,-1,1
156 258 m 128,-1,9
 156 56 156 56 291.5 56 c 128,-1,10
 427 56 427 56 427 258 c 128,-1,11
 427 460 427 460 291.5 460 c 128,-1,8
 156 460 156 460 156 258 c 128,-1,9
358 614 m 0,12,13
 325 614 325 614 284 634.5 c 128,-1,14
 243 655 243 655 223.5 655 c 128,-1,15
 204 655 204 655 192.5 646.5 c 128,-1,16
 181 638 181 638 165 616 c 1,17,-1
 110 652 l 1,18,19
 150 730 150 730 224 730 c 0,20,21
 256 730 256 730 298.5 709.5 c 128,-1,22
 341 689 341 689 357 689 c 0,23,24
 401 689 401 689 417 726 c 1,25,-1
 473 691 l 1,26,27
 435 614 435 614 358 614 c 0,12,13
EndSplineSet
EndChar

StartChar: odieresis
Encoding: 246 246 183
Width: 583
GlyphClass: 2
Flags: W
LayerCount: 2
Fore
SplineSet
533 258 m 128,-1,1
 533 129 533 129 473 58.5 c 128,-1,2
 413 -12 413 -12 291.5 -12 c 128,-1,3
 170 -12 170 -12 110 58.5 c 128,-1,4
 50 129 50 129 50 258 c 128,-1,5
 50 387 50 387 110 457.5 c 128,-1,6
 170 528 170 528 291.5 528 c 128,-1,7
 413 528 413 528 473 457.5 c 128,-1,0
 533 387 533 387 533 258 c 128,-1,1
156 258 m 128,-1,9
 156 56 156 56 291.5 56 c 128,-1,10
 427 56 427 56 427 258 c 128,-1,11
 427 460 427 460 291.5 460 c 128,-1,8
 156 460 156 460 156 258 c 128,-1,9
124 668 m 128,-1,13
 124 693 124 693 142 710.5 c 128,-1,14
 160 728 160 728 184.5 728 c 128,-1,15
 209 728 209 728 226.5 710.5 c 128,-1,16
 244 693 244 693 244 668 c 128,-1,17
 244 643 244 643 226.5 625.5 c 128,-1,18
 209 608 209 608 184.5 608 c 128,-1,19
 160 608 160 608 142 625.5 c 128,-1,12
 124 643 124 643 124 668 c 128,-1,13
458 668 m 128,-1,21
 458 643 458 643 440 625.5 c 128,-1,22
 422 608 422 608 397.5 608 c 128,-1,23
 373 608 373 608 355.5 625.5 c 128,-1,24
 338 643 338 643 338 668 c 128,-1,25
 338 693 338 693 355.5 710.5 c 128,-1,26
 373 728 373 728 397.5 728 c 128,-1,27
 422 728 422 728 440 710.5 c 128,-1,20
 458 693 458 693 458 668 c 128,-1,21
EndSplineSet
EndChar

StartChar: divide
Encoding: 247 247 184
Width: 602
GlyphClass: 2
Flags: W
LayerCount: 2
Fore
SplineSet
236 525 m 128,-1,1
 236 552 236 552 255 571 c 128,-1,2
 274 590 274 590 301 590 c 128,-1,3
 328 590 328 590 347 571 c 128,-1,4
 366 552 366 552 366 525 c 128,-1,5
 366 498 366 498 347 479 c 128,-1,6
 328 460 328 460 301 460 c 128,-1,7
 274 460 274 460 255 479 c 128,-1,0
 236 498 236 498 236 525 c 128,-1,1
236 144 m 128,-1,9
 236 171 236 171 255 190 c 128,-1,10
 274 209 274 209 301 209 c 128,-1,11
 328 209 328 209 347 190 c 128,-1,12
 366 171 366 171 366 144 c 128,-1,13
 366 117 366 117 347 98 c 128,-1,14
 328 79 328 79 301 79 c 128,-1,15
 274 79 274 79 255 98 c 128,-1,8
 236 117 236 117 236 144 c 128,-1,9
552 372 m 1,16,-1
 552 296 l 1,17,-1
 50 296 l 1,18,-1
 50 372 l 1,19,-1
 552 372 l 1,16,-1
EndSplineSet
EndChar

StartChar: oslash
Encoding: 248 248 185
Width: 583
GlyphClass: 2
Flags: W
LayerCount: 2
Fore
SplineSet
489 435 m 1,0,1
 533 367 533 367 533 248 c 128,-1,2
 533 129 533 129 473 58.5 c 128,-1,3
 413 -12 413 -12 291 -12 c 0,4,5
 199 -12 199 -12 141 29 c 1,6,-1
 87 -34 l 1,7,-1
 22 20 l 1,8,-1
 85 93 l 1,9,10
 50 157 50 157 50 258 c 0,11,12
 50 387 50 387 110 457.5 c 128,-1,13
 170 528 170 528 291 528 c 0,14,15
 375 528 375 528 430 493 c 1,16,-1
 487 559 l 1,17,-1
 552 507 l 1,18,-1
 489 435 l 1,0,1
292 56 m 0,19,20
 427 56 427 56 427 258 c 0,21,22
 427 331 427 331 431 369 c 1,23,-1
 413 372 l 1,24,25
 393 322 393 322 363 287 c 2,26,-1
 199 96 l 1,27,28
 233 56 233 56 292 56 c 0,19,20
292 460 m 0,29,30
 156 460 156 460 156 258 c 0,31,32
 156 216 156 216 151 166 c 1,33,-1
 169 161 l 1,34,35
 187 211 187 211 225 255 c 2,36,-1
 375 430 l 1,37,38
 343 460 343 460 292 460 c 0,29,30
EndSplineSet
EndChar

StartChar: ugrave
Encoding: 249 249 186
Width: 599
GlyphClass: 2
Flags: W
LayerCount: 2
Fore
SplineSet
261 -12 m 0,0,1
 169 -12 169 -12 126 39.5 c 128,-1,2
 83 91 83 91 83 197 c 2,3,-1
 83 516 l 1,4,-1
 183 516 l 1,5,-1
 183 198 l 2,6,7
 183 56 183 56 282 56 c 0,8,9
 355 56 355 56 409 94 c 1,10,-1
 409 516 l 1,11,-1
 509 516 l 1,12,-1
 509 101 l 1,13,-1
 532 -8 l 1,14,-1
 483 -8 l 2,15,16
 456 -8 456 -8 441 18 c 2,17,-1
 427 44 l 1,18,-1
 411 44 l 1,19,20
 380 11 380 11 348 -0.5 c 128,-1,21
 316 -12 316 -12 261 -12 c 0,0,1
161 712 m 0,22,23
 161 723 161 723 168 733 c 2,24,-1
 200 778 l 1,25,-1
 400 633 l 1,26,-1
 369 588 l 1,27,-1
 195 670 l 2,28,29
 161 685 161 685 161 712 c 0,22,23
EndSplineSet
EndChar

StartChar: uacute
Encoding: 250 250 187
Width: 599
GlyphClass: 2
Flags: W
LayerCount: 2
Fore
SplineSet
261 -12 m 0,0,1
 169 -12 169 -12 126 39.5 c 128,-1,2
 83 91 83 91 83 197 c 2,3,-1
 83 516 l 1,4,-1
 183 516 l 1,5,-1
 183 198 l 2,6,7
 183 56 183 56 282 56 c 0,8,9
 355 56 355 56 409 94 c 1,10,-1
 409 516 l 1,11,-1
 509 516 l 1,12,-1
 509 101 l 1,13,-1
 532 -8 l 1,14,-1
 483 -8 l 2,15,16
 456 -8 456 -8 441 18 c 2,17,-1
 427 44 l 1,18,-1
 411 44 l 1,19,20
 380 11 380 11 348 -0.5 c 128,-1,21
 316 -12 316 -12 261 -12 c 0,0,1
418 711 m 0,22,23
 418 684 418 684 384 669 c 2,24,-1
 210 587 l 1,25,-1
 179 632 l 1,26,-1
 379 777 l 1,27,-1
 411 732 l 2,28,29
 418 722 418 722 418 711 c 0,22,23
EndSplineSet
EndChar

StartChar: ucircumflex
Encoding: 251 251 188
Width: 599
GlyphClass: 2
Flags: W
LayerCount: 2
Fore
SplineSet
261 -12 m 0,0,1
 169 -12 169 -12 126 39.5 c 128,-1,2
 83 91 83 91 83 197 c 2,3,-1
 83 516 l 1,4,-1
 183 516 l 1,5,-1
 183 198 l 2,6,7
 183 56 183 56 282 56 c 0,8,9
 355 56 355 56 409 94 c 1,10,-1
 409 516 l 1,11,-1
 509 516 l 1,12,-1
 509 101 l 1,13,-1
 532 -8 l 1,14,-1
 483 -8 l 2,15,16
 456 -8 456 -8 441 18 c 2,17,-1
 427 44 l 1,18,-1
 411 44 l 1,19,20
 380 11 380 11 348 -0.5 c 128,-1,21
 316 -12 316 -12 261 -12 c 0,0,1
124 611 m 1,22,-1
 249 759 l 1,23,-1
 342 759 l 1,24,-1
 467 611 l 1,25,-1
 431 579 l 1,26,-1
 295 692 l 1,27,-1
 160 579 l 1,28,-1
 124 611 l 1,22,-1
EndSplineSet
EndChar

StartChar: udieresis
Encoding: 252 252 189
Width: 599
GlyphClass: 2
Flags: W
LayerCount: 2
Fore
SplineSet
261 -12 m 0,0,1
 169 -12 169 -12 126 39.5 c 128,-1,2
 83 91 83 91 83 197 c 2,3,-1
 83 516 l 1,4,-1
 183 516 l 1,5,-1
 183 198 l 2,6,7
 183 56 183 56 282 56 c 0,8,9
 355 56 355 56 409 94 c 1,10,-1
 409 516 l 1,11,-1
 509 516 l 1,12,-1
 509 101 l 1,13,-1
 532 -8 l 1,14,-1
 483 -8 l 2,15,16
 456 -8 456 -8 441 18 c 2,17,-1
 427 44 l 1,18,-1
 411 44 l 1,19,20
 380 11 380 11 348 -0.5 c 128,-1,21
 316 -12 316 -12 261 -12 c 0,0,1
129 668 m 128,-1,23
 129 693 129 693 147 710.5 c 128,-1,24
 165 728 165 728 189.5 728 c 128,-1,25
 214 728 214 728 231.5 710.5 c 128,-1,26
 249 693 249 693 249 668 c 128,-1,27
 249 643 249 643 231.5 625.5 c 128,-1,28
 214 608 214 608 189.5 608 c 128,-1,29
 165 608 165 608 147 625.5 c 128,-1,22
 129 643 129 643 129 668 c 128,-1,23
463 668 m 128,-1,31
 463 643 463 643 445 625.5 c 128,-1,32
 427 608 427 608 402.5 608 c 128,-1,33
 378 608 378 608 360.5 625.5 c 128,-1,34
 343 643 343 643 343 668 c 128,-1,35
 343 693 343 693 360.5 710.5 c 128,-1,36
 378 728 378 728 402.5 728 c 128,-1,37
 427 728 427 728 445 710.5 c 128,-1,30
 463 693 463 693 463 668 c 128,-1,31
EndSplineSet
EndChar

StartChar: yacute
Encoding: 253 253 190
Width: 511
GlyphClass: 2
Flags: W
LayerCount: 2
Fore
SplineSet
395 516 m 1,0,-1
 494 516 l 1,1,-1
 211 -208 l 1,2,-1
 108 -208 l 1,3,-1
 207 19 l 1,4,-1
 20 516 l 1,5,-1
 121 516 l 1,6,-1
 215 251 l 2,7,8
 234 198 234 198 247 130 c 1,9,-1
 263 130 l 1,10,-1
 267 148 l 2,11,12
 280 208 280 208 296 251 c 2,13,-1
 395 516 l 1,0,-1
387 711 m 0,14,15
 387 684 387 684 353 669 c 2,16,-1
 179 587 l 1,17,-1
 148 632 l 1,18,-1
 348 777 l 1,19,-1
 380 732 l 2,20,21
 387 722 387 722 387 711 c 0,14,15
EndSplineSet
EndChar

StartChar: thorn
Encoding: 254 254 191
Width: 593
GlyphClass: 2
Flags: W
LayerCount: 2
Fore
SplineSet
311 460 m 128,-1,1
 247 460 247 460 191 422 c 1,2,-1
 191 71 l 1,3,4
 237 56 237 56 308 56 c 128,-1,5
 379 56 379 56 410 110 c 128,-1,6
 441 164 441 164 441 272 c 128,-1,7
 441 380 441 380 408 420 c 128,-1,0
 375 460 375 460 311 460 c 128,-1,1
191 740 m 1,8,-1
 191 475 l 1,9,10
 252 528 252 528 342.5 528 c 128,-1,11
 433 528 433 528 488 457.5 c 128,-1,12
 543 387 543 387 543 260 c 128,-1,13
 543 133 543 133 482 60.5 c 128,-1,14
 421 -12 421 -12 304 -12 c 0,15,16
 255 -12 255 -12 207 -2 c 1,17,-1
 191 2 l 1,18,-1
 191 -208 l 1,19,-1
 91 -208 l 1,20,-1
 91 740 l 1,21,-1
 191 740 l 1,8,-1
EndSplineSet
EndChar

StartChar: ydieresis
Encoding: 255 255 192
Width: 511
GlyphClass: 2
Flags: W
LayerCount: 2
Fore
SplineSet
395 516 m 1,0,-1
 494 516 l 1,1,-1
 211 -208 l 1,2,-1
 108 -208 l 1,3,-1
 207 19 l 1,4,-1
 20 516 l 1,5,-1
 121 516 l 1,6,-1
 215 251 l 2,7,8
 234 198 234 198 247 130 c 1,9,-1
 263 130 l 1,10,-1
 267 148 l 2,11,12
 280 208 280 208 296 251 c 2,13,-1
 395 516 l 1,0,-1
88 668 m 128,-1,15
 88 693 88 693 106 710.5 c 128,-1,16
 124 728 124 728 148.5 728 c 128,-1,17
 173 728 173 728 190.5 710.5 c 128,-1,18
 208 693 208 693 208 668 c 128,-1,19
 208 643 208 643 190.5 625.5 c 128,-1,20
 173 608 173 608 148.5 608 c 128,-1,21
 124 608 124 608 106 625.5 c 128,-1,14
 88 643 88 643 88 668 c 128,-1,15
422 668 m 128,-1,23
 422 643 422 643 404 625.5 c 128,-1,24
 386 608 386 608 361.5 608 c 128,-1,25
 337 608 337 608 319.5 625.5 c 128,-1,26
 302 643 302 643 302 668 c 128,-1,27
 302 693 302 693 319.5 710.5 c 128,-1,28
 337 728 337 728 361.5 728 c 128,-1,29
 386 728 386 728 404 710.5 c 128,-1,22
 422 693 422 693 422 668 c 128,-1,23
EndSplineSet
EndChar

StartChar: Amacron
Encoding: 256 256 193
Width: 634
GlyphClass: 2
Flags: W
LayerCount: 2
Fore
SplineSet
397 700 m 1,0,-1
 621 0 l 1,1,-1
 521 0 l 1,2,-1
 461 186 l 1,3,-1
 179 186 l 1,4,-1
 113 0 l 1,5,-1
 13 0 l 1,6,-1
 263 700 l 1,7,-1
 397 700 l 1,0,-1
273 451 m 2,8,-1
 208 268 l 1,9,-1
 435 268 l 1,10,-1
 377 451 l 2,11,12
 354 524 354 524 341 590 c 2,13,-1
 336 615 l 1,14,-1
 320 615 l 1,15,16
 299 524 299 524 273 451 c 2,8,-1
172 786 m 1,17,-1
 172 855 l 1,18,-1
 486 855 l 1,19,-1
 486 786 l 1,20,-1
 172 786 l 1,17,-1
EndSplineSet
EndChar

StartChar: amacron
Encoding: 257 257 194
Width: 564
GlyphClass: 2
Flags: W
LayerCount: 2
Fore
SplineSet
476 358 m 2,0,-1
 476 123 l 2,1,2
 476 89 476 89 483 74.5 c 128,-1,3
 490 60 490 60 514 53 c 1,4,-1
 500 -7 l 1,5,6
 493 -12 493 -12 469.5 -11.5 c 128,-1,7
 446 -11 446 -11 431 -2.5 c 128,-1,8
 416 6 416 6 402 31 c 2,9,-1
 387 58 l 1,10,-1
 371 58 l 1,11,12
 318 -12 318 -12 224 -12 c 0,13,14
 147 -12 147 -12 102 28.5 c 128,-1,15
 57 69 57 69 57 146 c 128,-1,16
 57 223 57 223 107 261 c 128,-1,17
 157 299 157 299 263 307 c 2,18,-1
 377 316 l 1,19,-1
 377 349 l 2,20,21
 377 409 377 409 351 434.5 c 128,-1,22
 325 460 325 460 264.5 460 c 128,-1,23
 204 460 204 460 114 438 c 1,24,-1
 96 497 l 1,25,26
 130 510 130 510 182 519 c 128,-1,27
 234 528 234 528 272 528 c 0,28,29
 373 528 373 528 424.5 487.5 c 128,-1,30
 476 447 476 447 476 358 c 2,0,-1
377 165 m 2,31,-1
 377 254 l 1,32,-1
 281 247 l 2,33,34
 159 238 159 238 159 150 c 0,35,36
 159 56 159 56 253 56 c 0,37,38
 306 56 306 56 341.5 81.5 c 128,-1,39
 377 107 377 107 377 165 c 2,31,-1
126 637 m 1,40,-1
 126 706 l 1,41,-1
 440 706 l 1,42,-1
 440 637 l 1,43,-1
 126 637 l 1,40,-1
EndSplineSet
EndChar

StartChar: Abreve
Encoding: 258 258 195
Width: 634
GlyphClass: 2
Flags: W
LayerCount: 2
Fore
SplineSet
397 700 m 1,0,-1
 621 0 l 1,1,-1
 521 0 l 1,2,-1
 461 186 l 1,3,-1
 179 186 l 1,4,-1
 113 0 l 1,5,-1
 13 0 l 1,6,-1
 263 700 l 1,7,-1
 397 700 l 1,0,-1
273 451 m 2,8,-1
 208 268 l 1,9,-1
 435 268 l 1,10,-1
 377 451 l 2,11,12
 354 524 354 524 341 590 c 2,13,-1
 336 615 l 1,14,-1
 320 615 l 1,15,16
 299 524 299 524 273 451 c 2,8,-1
331 740 m 128,-1,18
 149 740 149 740 149 887 c 1,19,-1
 206 896 l 1,20,21
 213 841 213 841 240.5 822.5 c 128,-1,22
 268 804 268 804 331 804 c 128,-1,23
 394 804 394 804 421.5 822.5 c 128,-1,24
 449 841 449 841 456 896 c 1,25,-1
 513 887 l 1,26,17
 513 740 513 740 331 740 c 128,-1,18
EndSplineSet
EndChar

StartChar: abreve
Encoding: 259 259 196
Width: 564
GlyphClass: 2
Flags: W
LayerCount: 2
Fore
SplineSet
476 358 m 2,0,-1
 476 123 l 2,1,2
 476 89 476 89 483 74.5 c 128,-1,3
 490 60 490 60 514 53 c 1,4,-1
 500 -7 l 1,5,6
 493 -12 493 -12 469.5 -11.5 c 128,-1,7
 446 -11 446 -11 431 -2.5 c 128,-1,8
 416 6 416 6 402 31 c 2,9,-1
 387 58 l 1,10,-1
 371 58 l 1,11,12
 318 -12 318 -12 224 -12 c 0,13,14
 147 -12 147 -12 102 28.5 c 128,-1,15
 57 69 57 69 57 146 c 128,-1,16
 57 223 57 223 107 261 c 128,-1,17
 157 299 157 299 263 307 c 2,18,-1
 377 316 l 1,19,-1
 377 349 l 2,20,21
 377 409 377 409 351 434.5 c 128,-1,22
 325 460 325 460 264.5 460 c 128,-1,23
 204 460 204 460 114 438 c 1,24,-1
 96 497 l 1,25,26
 130 510 130 510 182 519 c 128,-1,27
 234 528 234 528 272 528 c 0,28,29
 373 528 373 528 424.5 487.5 c 128,-1,30
 476 447 476 447 476 358 c 2,0,-1
377 165 m 2,31,-1
 377 254 l 1,32,-1
 281 247 l 2,33,34
 159 238 159 238 159 150 c 0,35,36
 159 56 159 56 253 56 c 0,37,38
 306 56 306 56 341.5 81.5 c 128,-1,39
 377 107 377 107 377 165 c 2,31,-1
284 605 m 128,-1,41
 102 605 102 605 102 752 c 1,42,-1
 159 761 l 1,43,44
 166 706 166 706 193.5 687.5 c 128,-1,45
 221 669 221 669 284 669 c 128,-1,46
 347 669 347 669 374.5 687.5 c 128,-1,47
 402 706 402 706 409 761 c 1,48,-1
 466 752 l 1,49,40
 466 605 466 605 284 605 c 128,-1,41
EndSplineSet
EndChar

StartChar: Aogonek
Encoding: 260 260 197
Width: 634
GlyphClass: 2
Flags: W
LayerCount: 2
Fore
SplineSet
513 -118 m 0,0,1
 513 -140 513 -140 527 -152.5 c 128,-1,2
 541 -165 541 -165 564.5 -165 c 128,-1,3
 588 -165 588 -165 609 -151 c 1,4,-1
 638 -196 l 1,5,6
 597 -220 597 -220 549.5 -220 c 128,-1,7
 502 -220 502 -220 474 -191 c 128,-1,8
 446 -162 446 -162 446 -118 c 0,9,10
 446 -57 446 -57 521 0 c 1,11,-1
 461 186 l 1,12,-1
 179 186 l 1,13,-1
 113 0 l 1,14,-1
 13 0 l 1,15,-1
 263 700 l 1,16,-1
 397 700 l 1,17,-1
 621 0 l 1,18,19
 513 -56 513 -56 513 -118 c 0,0,1
273 451 m 2,20,-1
 208 268 l 1,21,-1
 435 268 l 1,22,-1
 377 451 l 2,23,24
 357 515 357 515 344 590 c 1,25,-1
 339 615 l 1,26,-1
 317 615 l 1,27,28
 299 524 299 524 273 451 c 2,20,-1
EndSplineSet
EndChar

StartChar: aogonek
Encoding: 261 261 198
Width: 564
GlyphClass: 2
Flags: W
LayerCount: 2
Fore
SplineSet
476 358 m 2,0,-1
 476 123 l 2,1,2
 476 89 476 89 483 74.5 c 128,-1,3
 490 60 490 60 514 53 c 1,4,-1
 500 -7 l 1,5,6
 498 -8 498 -8 495 -9 c 0,7,8
 401 -61 401 -61 401 -118 c 0,9,10
 401 -140 401 -140 415 -152.5 c 128,-1,11
 429 -165 429 -165 452.5 -165 c 128,-1,12
 476 -165 476 -165 497 -151 c 1,13,-1
 526 -196 l 1,14,15
 485 -220 485 -220 437.5 -220 c 128,-1,16
 390 -220 390 -220 362 -191 c 128,-1,17
 334 -162 334 -162 334 -118 c 0,18,19
 334 -54 334 -54 419 6 c 1,20,21
 412 13 412 13 402 31 c 2,22,-1
 387 58 l 1,23,-1
 371 58 l 1,24,25
 318 -12 318 -12 224 -12 c 0,26,27
 147 -12 147 -12 102 28.5 c 128,-1,28
 57 69 57 69 57 146 c 128,-1,29
 57 223 57 223 107 261 c 128,-1,30
 157 299 157 299 263 307 c 2,31,-1
 377 316 l 1,32,-1
 377 349 l 2,33,34
 377 409 377 409 351 434.5 c 128,-1,35
 325 460 325 460 264.5 460 c 128,-1,36
 204 460 204 460 114 438 c 1,37,-1
 96 497 l 1,38,39
 130 510 130 510 182 519 c 128,-1,40
 234 528 234 528 272 528 c 0,41,42
 373 528 373 528 424.5 487.5 c 128,-1,43
 476 447 476 447 476 358 c 2,0,-1
377 165 m 2,44,-1
 377 254 l 1,45,-1
 281 247 l 2,46,47
 159 238 159 238 159 150 c 0,48,49
 159 56 159 56 253 56 c 0,50,51
 306 56 306 56 341.5 81.5 c 128,-1,52
 377 107 377 107 377 165 c 2,44,-1
EndSplineSet
EndChar

StartChar: Cacute
Encoding: 262 262 199
Width: 570
GlyphClass: 2
Flags: W
LayerCount: 2
Fore
SplineSet
517 607 m 1,0,1
 428 634 428 634 368.5 634 c 128,-1,2
 309 634 309 634 269 612.5 c 128,-1,3
 229 591 229 591 207.5 551 c 128,-1,4
 186 511 186 511 176.5 462.5 c 128,-1,5
 167 414 167 414 167 350 c 128,-1,6
 167 286 167 286 176.5 237.5 c 128,-1,7
 186 189 186 189 208 149 c 0,8,9
 252 66 252 66 365 66 c 0,10,11
 425 66 425 66 520 97 c 1,12,-1
 540 24 l 1,13,14
 456 -12 456 -12 364 -12 c 0,15,16
 60 -12 60 -12 60 350 c 128,-1,17
 60 712 60 712 365 712 c 0,18,19
 444 712 444 712 537 677 c 1,20,-1
 517 607 l 1,0,1
496 852 m 0,21,22
 496 822 496 822 454 811 c 2,23,-1
 269 760 l 1,24,-1
 246 810 l 1,25,-1
 469 917 l 1,26,-1
 492 867 l 2,27,28
 496 859 496 859 496 852 c 0,21,22
EndSplineSet
EndChar

StartChar: cacute
Encoding: 263 263 200
Width: 463
GlyphClass: 2
Flags: W
LayerCount: 2
Fore
SplineSet
422 711 m 0,0,1
 422 684 422 684 388 669 c 2,2,-1
 214 587 l 1,3,-1
 183 632 l 1,4,-1
 383 777 l 1,5,-1
 415 732 l 2,6,7
 422 722 422 722 422 711 c 0,0,1
191 110.5 m 128,-1,9
 226 57 226 57 292.5 57 c 128,-1,10
 359 57 359 57 418 75 c 1,11,-1
 438 14 l 1,12,13
 377 -12 377 -12 298 -12 c 0,14,15
 50 -12 50 -12 50 258 c 128,-1,16
 50 528 50 528 298 528 c 0,17,18
 377 528 377 528 438 502 c 1,19,-1
 418 443 l 1,20,21
 365 460 365 460 295.5 460 c 128,-1,22
 226 460 226 460 191 406 c 128,-1,23
 156 352 156 352 156 258 c 128,-1,8
 156 164 156 164 191 110.5 c 128,-1,9
EndSplineSet
EndChar

StartChar: Ccircumflex
Encoding: 264 264 201
Width: 570
GlyphClass: 2
Flags: W
LayerCount: 2
Fore
SplineSet
517 607 m 1,0,1
 428 634 428 634 368.5 634 c 128,-1,2
 309 634 309 634 269 612.5 c 128,-1,3
 229 591 229 591 207.5 551 c 128,-1,4
 186 511 186 511 176.5 462.5 c 128,-1,5
 167 414 167 414 167 350 c 128,-1,6
 167 286 167 286 176.5 237.5 c 128,-1,7
 186 189 186 189 208 149 c 0,8,9
 252 66 252 66 365 66 c 0,10,11
 425 66 425 66 520 97 c 1,12,-1
 540 24 l 1,13,14
 456 -12 456 -12 364 -12 c 0,15,16
 60 -12 60 -12 60 350 c 128,-1,17
 60 712 60 712 365 712 c 0,18,19
 444 712 444 712 537 677 c 1,20,-1
 517 607 l 1,0,1
178 770 m 1,21,-1
 303 898 l 1,22,-1
 396 898 l 1,23,-1
 521 770 l 1,24,-1
 485 738 l 1,25,-1
 349 836 l 1,26,-1
 214 738 l 1,27,-1
 178 770 l 1,21,-1
EndSplineSet
EndChar

StartChar: ccircumflex
Encoding: 265 265 202
Width: 463
GlyphClass: 2
Flags: W
LayerCount: 2
Fore
SplineSet
191 110.5 m 128,-1,1
 226 57 226 57 292.5 57 c 128,-1,2
 359 57 359 57 418 75 c 1,3,-1
 438 14 l 1,4,5
 377 -12 377 -12 298 -12 c 0,6,7
 50 -12 50 -12 50 258 c 128,-1,8
 50 528 50 528 298 528 c 0,9,10
 377 528 377 528 438 502 c 1,11,-1
 418 443 l 1,12,13
 365 460 365 460 295.5 460 c 128,-1,14
 226 460 226 460 191 406 c 128,-1,15
 156 352 156 352 156 258 c 128,-1,0
 156 164 156 164 191 110.5 c 128,-1,1
117 611 m 1,16,-1
 242 759 l 1,17,-1
 335 759 l 1,18,-1
 460 611 l 1,19,-1
 424 579 l 1,20,-1
 288 692 l 1,21,-1
 153 579 l 1,22,-1
 117 611 l 1,16,-1
EndSplineSet
EndChar

StartChar: Cdot
Encoding: 266 266 203
Width: 570
GlyphClass: 2
Flags: W
LayerCount: 2
Fore
SplineSet
517 607 m 1,0,1
 428 634 428 634 368.5 634 c 128,-1,2
 309 634 309 634 269 612.5 c 128,-1,3
 229 591 229 591 207.5 551 c 128,-1,4
 186 511 186 511 176.5 462.5 c 128,-1,5
 167 414 167 414 167 350 c 128,-1,6
 167 286 167 286 176.5 237.5 c 128,-1,7
 186 189 186 189 208 149 c 0,8,9
 252 66 252 66 365 66 c 0,10,11
 425 66 425 66 520 97 c 1,12,-1
 540 24 l 1,13,14
 456 -12 456 -12 364 -12 c 0,15,16
 60 -12 60 -12 60 350 c 128,-1,17
 60 712 60 712 365 712 c 0,18,19
 444 712 444 712 537 677 c 1,20,-1
 517 607 l 1,0,1
267 844 m 128,-1,22
 267 873 267 873 288 894 c 128,-1,23
 309 915 309 915 338 915 c 128,-1,24
 367 915 367 915 388 894 c 128,-1,25
 409 873 409 873 409 844 c 128,-1,26
 409 815 409 815 388 794 c 128,-1,27
 367 773 367 773 338 773 c 128,-1,28
 309 773 309 773 288 794 c 128,-1,21
 267 815 267 815 267 844 c 128,-1,22
EndSplineSet
EndChar

StartChar: cdot
Encoding: 267 267 204
Width: 463
GlyphClass: 2
Flags: W
LayerCount: 2
Fore
SplineSet
191 110.5 m 128,-1,1
 226 57 226 57 292.5 57 c 128,-1,2
 359 57 359 57 418 75 c 1,3,-1
 438 14 l 1,4,5
 377 -12 377 -12 298 -12 c 0,6,7
 50 -12 50 -12 50 258 c 128,-1,8
 50 528 50 528 298 528 c 0,9,10
 377 528 377 528 438 502 c 1,11,-1
 418 443 l 1,12,13
 365 460 365 460 295.5 460 c 128,-1,14
 226 460 226 460 191 406 c 128,-1,15
 156 352 156 352 156 258 c 128,-1,0
 156 164 156 164 191 110.5 c 128,-1,1
208 673 m 128,-1,17
 208 702 208 702 229 723 c 128,-1,18
 250 744 250 744 279 744 c 128,-1,19
 308 744 308 744 329 723 c 128,-1,20
 350 702 350 702 350 673 c 128,-1,21
 350 644 350 644 329 623 c 128,-1,22
 308 602 308 602 279 602 c 128,-1,23
 250 602 250 602 229 623 c 128,-1,16
 208 644 208 644 208 673 c 128,-1,17
EndSplineSet
EndChar

StartChar: Ccaron
Encoding: 268 268 205
Width: 570
GlyphClass: 2
Flags: W
LayerCount: 2
Fore
SplineSet
517 607 m 1,0,1
 428 634 428 634 368.5 634 c 128,-1,2
 309 634 309 634 269 612.5 c 128,-1,3
 229 591 229 591 207.5 551 c 128,-1,4
 186 511 186 511 176.5 462.5 c 128,-1,5
 167 414 167 414 167 350 c 128,-1,6
 167 286 167 286 176.5 237.5 c 128,-1,7
 186 189 186 189 208 149 c 0,8,9
 252 66 252 66 365 66 c 0,10,11
 425 66 425 66 520 97 c 1,12,-1
 540 24 l 1,13,14
 456 -12 456 -12 364 -12 c 0,15,16
 60 -12 60 -12 60 350 c 128,-1,17
 60 712 60 712 365 712 c 0,18,19
 444 712 444 712 537 677 c 1,20,-1
 517 607 l 1,0,1
298 763 m 1,21,-1
 173 891 l 1,22,-1
 209 923 l 1,23,-1
 344 825 l 1,24,-1
 480 923 l 1,25,-1
 516 891 l 1,26,-1
 391 763 l 1,27,-1
 298 763 l 1,21,-1
EndSplineSet
EndChar

StartChar: ccaron
Encoding: 269 269 206
Width: 473
GlyphClass: 2
Flags: W
LayerCount: 2
Fore
SplineSet
191 110.5 m 128,-1,1
 226 57 226 57 292.5 57 c 128,-1,2
 359 57 359 57 418 75 c 1,3,-1
 438 14 l 1,4,5
 377 -12 377 -12 298 -12 c 0,6,7
 50 -12 50 -12 50 258 c 128,-1,8
 50 528 50 528 298 528 c 0,9,10
 377 528 377 528 438 502 c 1,11,-1
 418 443 l 1,12,13
 365 460 365 460 295.5 460 c 128,-1,14
 226 460 226 460 191 406 c 128,-1,15
 156 352 156 352 156 258 c 128,-1,0
 156 164 156 164 191 110.5 c 128,-1,1
448 744 m 1,16,-1
 323 596 l 1,17,-1
 230 596 l 1,18,-1
 105 744 l 1,19,-1
 141 776 l 1,20,-1
 277 663 l 1,21,-1
 412 776 l 1,22,-1
 448 744 l 1,16,-1
EndSplineSet
EndChar

StartChar: Dcaron
Encoding: 270 270 207
Width: 686
GlyphClass: 2
Flags: W
LayerCount: 2
Fore
SplineSet
185 80 m 1,0,-1
 303 80 l 2,1,2
 421 80 421 80 469.5 151.5 c 128,-1,3
 518 223 518 223 518 350 c 0,4,5
 518 624 518 624 301 624 c 2,6,-1
 185 624 l 1,7,-1
 185 80 l 1,0,-1
300 0 m 2,8,-1
 85 0 l 1,9,-1
 85 700 l 1,10,-1
 300 700 l 2,11,12
 464 700 464 700 543.5 609 c 128,-1,13
 623 518 623 518 623 350 c 0,14,15
 623 0 623 0 300 0 c 2,8,-1
276 763 m 1,16,-1
 151 891 l 1,17,-1
 187 923 l 1,18,-1
 322 825 l 1,19,-1
 458 923 l 1,20,-1
 494 891 l 1,21,-1
 369 763 l 1,22,-1
 276 763 l 1,16,-1
EndSplineSet
EndChar

StartChar: dcaron
Encoding: 271 271 208
Width: 665
GlyphClass: 2
Flags: W
LayerCount: 2
Fore
SplineSet
186 407 m 128,-1,1
 156 354 156 354 156 258 c 128,-1,2
 156 162 156 162 184.5 109 c 128,-1,3
 213 56 213 56 284.5 56 c 128,-1,4
 356 56 356 56 402 96 c 1,5,-1
 402 440 l 1,6,7
 356 460 356 460 286 460 c 128,-1,0
 216 460 216 460 186 407 c 128,-1,1
263 -12 m 0,8,9
 157 -12 157 -12 103.5 58 c 128,-1,10
 50 128 50 128 50 256 c 128,-1,11
 50 384 50 384 112 456 c 128,-1,12
 174 528 174 528 289 528 c 0,13,14
 338 528 338 528 386 510 c 2,15,-1
 402 504 l 1,16,-1
 402 740 l 1,17,-1
 502 740 l 1,18,-1
 502 103 l 1,19,-1
 526 -8 l 1,20,-1
 478 -8 l 2,21,22
 450 -8 450 -8 435 18 c 2,23,-1
 421 44 l 1,24,-1
 405 44 l 1,25,26
 382 12 382 12 349 0 c 128,-1,27
 316 -12 316 -12 263 -12 c 0,8,9
695 747 m 0,28,29
 695 740 695 740 694 736 c 2,30,-1
 680 662 l 2,31,32
 674 634 674 634 624 574 c 1,33,-1
 608 554 l 1,34,-1
 544 585 l 1,35,36
 548 595 548 595 559 619 c 128,-1,37
 570 643 570 643 575 654 c 0,38,39
 589 687 589 687 591 715 c 2,40,-1
 595 787 l 1,41,-1
 658 783 l 2,42,43
 695 780 695 780 695 747 c 0,28,29
EndSplineSet
EndChar

StartChar: Dcroat
Encoding: 272 272 209
Width: 686
GlyphClass: 2
Flags: W
LayerCount: 2
Fore
SplineSet
14 318 m 1,0,-1
 14 395 l 1,1,-1
 85 395 l 1,2,-1
 85 700 l 1,3,-1
 300 700 l 2,4,5
 464 700 464 700 543.5 609 c 128,-1,6
 623 518 623 518 623 350 c 0,7,8
 623 0 623 0 300 0 c 2,9,-1
 85 0 l 1,10,-1
 85 318 l 1,11,-1
 14 318 l 1,0,-1
185 80 m 1,12,-1
 303 80 l 2,13,14
 421 80 421 80 469.5 151.5 c 128,-1,15
 518 223 518 223 518 350 c 0,16,17
 518 624 518 624 301 624 c 2,18,-1
 185 624 l 1,19,-1
 185 395 l 1,20,-1
 344 395 l 1,21,-1
 344 318 l 1,22,-1
 185 318 l 1,23,-1
 185 80 l 1,12,-1
EndSplineSet
EndChar

StartChar: dslash
Encoding: 273 273 210
Width: 582
GlyphClass: 2
Flags: W
LayerCount: 2
Fore
SplineSet
170 589 m 1,0,-1
 170 651 l 1,1,-1
 402 651 l 1,2,-1
 402 740 l 1,3,-1
 502 740 l 1,4,-1
 502 651 l 1,5,-1
 563 651 l 1,6,-1
 563 589 l 1,7,-1
 502 589 l 1,8,-1
 502 103 l 1,9,-1
 526 -8 l 1,10,-1
 478 -8 l 2,11,12
 450 -8 450 -8 435 18 c 2,13,-1
 421 44 l 1,14,-1
 405 44 l 1,15,16
 382 12 382 12 349 0 c 128,-1,17
 316 -12 316 -12 263 -12 c 0,18,19
 157 -12 157 -12 103.5 58 c 128,-1,20
 50 128 50 128 50 256 c 128,-1,21
 50 384 50 384 112 456 c 128,-1,22
 174 528 174 528 289 528 c 0,23,24
 338 528 338 528 386 510 c 2,25,-1
 402 504 l 1,26,-1
 402 589 l 1,27,-1
 170 589 l 1,0,-1
186 407 m 128,-1,29
 156 354 156 354 156 258 c 128,-1,30
 156 162 156 162 184.5 109 c 128,-1,31
 213 56 213 56 284.5 56 c 128,-1,32
 356 56 356 56 402 96 c 1,33,-1
 402 440 l 1,34,35
 356 460 356 460 286 460 c 128,-1,28
 216 460 216 460 186 407 c 128,-1,29
EndSplineSet
EndChar

StartChar: Emacron
Encoding: 274 274 211
Width: 572
GlyphClass: 2
Flags: W
LayerCount: 2
Fore
SplineSet
512 0 m 1,0,-1
 95 0 l 1,1,-1
 95 700 l 1,2,-1
 512 700 l 1,3,-1
 512 617 l 1,4,-1
 195 617 l 1,5,-1
 195 416 l 1,6,-1
 482 416 l 1,7,-1
 482 332 l 1,8,-1
 195 332 l 1,9,-1
 195 83 l 1,10,-1
 512 83 l 1,11,-1
 512 0 l 1,0,-1
145 786 m 1,12,-1
 145 855 l 1,13,-1
 459 855 l 1,14,-1
 459 786 l 1,15,-1
 145 786 l 1,12,-1
EndSplineSet
EndChar

StartChar: emacron
Encoding: 275 275 212
Width: 538
GlyphClass: 2
Flags: W
LayerCount: 2
Fore
SplineSet
277 528 m 0,0,1
 493 528 493 528 493 273 c 2,2,-1
 493 236 l 1,3,-1
 156 236 l 1,4,5
 156 59 156 59 297 59 c 0,6,7
 371 59 371 59 454 87 c 1,8,-1
 474 27 l 1,9,10
 387 -10 387 -10 290 -12 c 0,11,12
 288 -12 288 -12 287 -12 c 0,13,14
 171 -12 171 -12 110.5 60.5 c 128,-1,15
 50 133 50 133 50 256 c 128,-1,16
 50 379 50 379 108 453.5 c 128,-1,17
 166 528 166 528 277 528 c 0,0,1
184.5 418 m 128,-1,19
 159 376 159 376 156 298 c 1,20,-1
 393 298 l 1,21,22
 393 375 393 375 368 417.5 c 128,-1,23
 343 460 343 460 276.5 460 c 128,-1,18
 210 460 210 460 184.5 418 c 128,-1,19
130 637 m 1,24,-1
 130 706 l 1,25,-1
 444 706 l 1,26,-1
 444 637 l 1,27,-1
 130 637 l 1,24,-1
EndSplineSet
EndChar

StartChar: Ebreve
Encoding: 276 276 213
Width: 572
GlyphClass: 2
Flags: W
LayerCount: 2
Fore
SplineSet
512 0 m 1,0,-1
 95 0 l 1,1,-1
 95 700 l 1,2,-1
 512 700 l 1,3,-1
 512 617 l 1,4,-1
 195 617 l 1,5,-1
 195 416 l 1,6,-1
 482 416 l 1,7,-1
 482 332 l 1,8,-1
 195 332 l 1,9,-1
 195 83 l 1,10,-1
 512 83 l 1,11,-1
 512 0 l 1,0,-1
300 754 m 128,-1,13
 118 754 118 754 118 901 c 1,14,-1
 175 910 l 1,15,16
 182 855 182 855 209.5 836.5 c 128,-1,17
 237 818 237 818 300 818 c 128,-1,18
 363 818 363 818 390.5 836.5 c 128,-1,19
 418 855 418 855 425 910 c 1,20,-1
 482 901 l 1,21,12
 482 754 482 754 300 754 c 128,-1,13
EndSplineSet
EndChar

StartChar: ebreve
Encoding: 277 277 214
Width: 538
GlyphClass: 2
Flags: W
LayerCount: 2
Fore
SplineSet
277 528 m 0,0,1
 493 528 493 528 493 273 c 2,2,-1
 493 236 l 1,3,-1
 156 236 l 1,4,5
 156 59 156 59 297 59 c 0,6,7
 371 59 371 59 454 87 c 1,8,-1
 474 27 l 1,9,10
 387 -10 387 -10 290 -12 c 0,11,12
 288 -12 288 -12 287 -12 c 0,13,14
 171 -12 171 -12 110.5 60.5 c 128,-1,15
 50 133 50 133 50 256 c 128,-1,16
 50 379 50 379 108 453.5 c 128,-1,17
 166 528 166 528 277 528 c 0,0,1
184.5 418 m 128,-1,19
 159 376 159 376 156 298 c 1,20,-1
 393 298 l 1,21,22
 393 375 393 375 368 417.5 c 128,-1,23
 343 460 343 460 276.5 460 c 128,-1,18
 210 460 210 460 184.5 418 c 128,-1,19
274 605 m 128,-1,25
 92 605 92 605 92 752 c 1,26,-1
 149 761 l 1,27,28
 156 706 156 706 183.5 687.5 c 128,-1,29
 211 669 211 669 274 669 c 128,-1,30
 337 669 337 669 364.5 687.5 c 128,-1,31
 392 706 392 706 399 761 c 1,32,-1
 456 752 l 1,33,24
 456 605 456 605 274 605 c 128,-1,25
EndSplineSet
EndChar

StartChar: Edotaccent
Encoding: 278 278 215
Width: 572
GlyphClass: 2
Flags: W
LayerCount: 2
Fore
SplineSet
512 0 m 1,0,-1
 95 0 l 1,1,-1
 95 700 l 1,2,-1
 512 700 l 1,3,-1
 512 617 l 1,4,-1
 195 617 l 1,5,-1
 195 416 l 1,6,-1
 482 416 l 1,7,-1
 482 332 l 1,8,-1
 195 332 l 1,9,-1
 195 83 l 1,10,-1
 512 83 l 1,11,-1
 512 0 l 1,0,-1
234 844 m 128,-1,13
 234 873 234 873 255 894 c 128,-1,14
 276 915 276 915 305 915 c 128,-1,15
 334 915 334 915 355 894 c 128,-1,16
 376 873 376 873 376 844 c 128,-1,17
 376 815 376 815 355 794 c 128,-1,18
 334 773 334 773 305 773 c 128,-1,19
 276 773 276 773 255 794 c 128,-1,12
 234 815 234 815 234 844 c 128,-1,13
EndSplineSet
EndChar

StartChar: edotaccent
Encoding: 279 279 216
Width: 538
GlyphClass: 2
Flags: W
LayerCount: 2
Fore
SplineSet
277 528 m 0,0,1
 493 528 493 528 493 273 c 2,2,-1
 493 236 l 1,3,-1
 156 236 l 1,4,5
 156 59 156 59 297 59 c 0,6,7
 371 59 371 59 454 87 c 1,8,-1
 474 27 l 1,9,10
 387 -10 387 -10 290 -12 c 0,11,12
 288 -12 288 -12 287 -12 c 0,13,14
 171 -12 171 -12 110.5 60.5 c 128,-1,15
 50 133 50 133 50 256 c 128,-1,16
 50 379 50 379 108 453.5 c 128,-1,17
 166 528 166 528 277 528 c 0,0,1
184.5 418 m 128,-1,19
 159 376 159 376 156 298 c 1,20,-1
 393 298 l 1,21,22
 393 375 393 375 368 417.5 c 128,-1,23
 343 460 343 460 276.5 460 c 128,-1,18
 210 460 210 460 184.5 418 c 128,-1,19
206 673 m 128,-1,25
 206 702 206 702 227 723 c 128,-1,26
 248 744 248 744 277 744 c 128,-1,27
 306 744 306 744 327 723 c 128,-1,28
 348 702 348 702 348 673 c 128,-1,29
 348 644 348 644 327 623 c 128,-1,30
 306 602 306 602 277 602 c 128,-1,31
 248 602 248 602 227 623 c 128,-1,24
 206 644 206 644 206 673 c 128,-1,25
EndSplineSet
EndChar

StartChar: Eogonek
Encoding: 280 280 217
Width: 572
GlyphClass: 2
Flags: W
LayerCount: 2
Fore
SplineSet
512 83 m 1,0,-1
 512 0 l 1,1,2
 464 -25 464 -25 433.5 -56 c 128,-1,3
 403 -87 403 -87 403 -113.5 c 128,-1,4
 403 -140 403 -140 417 -152.5 c 128,-1,5
 431 -165 431 -165 454.5 -165 c 128,-1,6
 478 -165 478 -165 499 -151 c 1,7,-1
 528 -196 l 1,8,9
 487 -220 487 -220 439.5 -220 c 128,-1,10
 392 -220 392 -220 364 -191 c 128,-1,11
 336 -162 336 -162 336 -118 c 0,12,13
 336 -57 336 -57 411 0 c 1,14,-1
 95 0 l 1,15,-1
 95 700 l 1,16,-1
 512 700 l 1,17,-1
 512 617 l 1,18,-1
 195 617 l 1,19,-1
 195 416 l 1,20,-1
 482 416 l 1,21,-1
 482 332 l 1,22,-1
 195 332 l 1,23,-1
 195 83 l 1,24,-1
 512 83 l 1,0,-1
EndSplineSet
EndChar

StartChar: eogonek
Encoding: 281 281 218
Width: 533
GlyphClass: 2
Flags: W
LayerCount: 2
Fore
SplineSet
277 528 m 0,0,1
 493 528 493 528 493 273 c 2,2,-1
 493 236 l 1,3,-1
 156 236 l 1,4,5
 156 59 156 59 297 59 c 0,6,7
 371 59 371 59 454 87 c 1,8,-1
 474 27 l 1,9,10
 343 -57 343 -57 343 -117 c 0,11,12
 343 -136 343 -136 356.5 -149.5 c 128,-1,13
 370 -163 370 -163 395 -163 c 128,-1,14
 420 -163 420 -163 444 -141 c 1,15,-1
 479 -182 l 1,16,17
 433 -220 433 -220 383 -220 c 128,-1,18
 333 -220 333 -220 305 -191.5 c 128,-1,19
 277 -163 277 -163 277 -123.5 c 128,-1,20
 277 -84 277 -84 300 -57 c 128,-1,21
 323 -30 323 -30 365 -1 c 1,22,-1
 360 15 l 1,23,24
 324 -12 324 -12 280 -12 c 0,25,26
 169 -12 169 -12 109.5 61.5 c 128,-1,27
 50 135 50 135 50 257 c 128,-1,28
 50 379 50 379 108 453.5 c 128,-1,29
 166 528 166 528 277 528 c 0,0,1
393 298 m 1,30,31
 393 375 393 375 368 417.5 c 128,-1,32
 343 460 343 460 276.5 460 c 128,-1,33
 210 460 210 460 184.5 418 c 128,-1,34
 159 376 159 376 156 298 c 1,35,-1
 393 298 l 1,30,31
EndSplineSet
EndChar

StartChar: Ecaron
Encoding: 282 282 219
Width: 572
GlyphClass: 2
Flags: W
LayerCount: 2
Fore
SplineSet
512 0 m 1,0,-1
 95 0 l 1,1,-1
 95 700 l 1,2,-1
 512 700 l 1,3,-1
 512 617 l 1,4,-1
 195 617 l 1,5,-1
 195 416 l 1,6,-1
 482 416 l 1,7,-1
 482 332 l 1,8,-1
 195 332 l 1,9,-1
 195 83 l 1,10,-1
 512 83 l 1,11,-1
 512 0 l 1,0,-1
249 763 m 1,12,-1
 124 891 l 1,13,-1
 160 923 l 1,14,-1
 295 825 l 1,15,-1
 431 923 l 1,16,-1
 467 891 l 1,17,-1
 342 763 l 1,18,-1
 249 763 l 1,12,-1
EndSplineSet
EndChar

StartChar: ecaron
Encoding: 283 283 220
Width: 538
GlyphClass: 2
Flags: W
LayerCount: 2
Fore
SplineSet
474 27 m 1,0,1
 382 -12 382 -12 287 -12 c 0,2,3
 171 -12 171 -12 110.5 60.5 c 128,-1,4
 50 133 50 133 50 256 c 128,-1,5
 50 379 50 379 108 453.5 c 128,-1,6
 166 528 166 528 277 528 c 0,7,8
 493 528 493 528 493 273 c 2,9,-1
 493 236 l 1,10,-1
 156 236 l 1,11,12
 156 59 156 59 297 59 c 0,13,14
 371 59 371 59 454 87 c 1,15,-1
 474 27 l 1,0,1
393 298 m 1,16,17
 393 375 393 375 368 417.5 c 128,-1,18
 343 460 343 460 276.5 460 c 128,-1,19
 210 460 210 460 184.5 418 c 128,-1,20
 159 376 159 376 156 298 c 1,21,-1
 393 298 l 1,16,17
452 744 m 1,22,-1
 327 596 l 1,23,-1
 234 596 l 1,24,-1
 109 744 l 1,25,-1
 145 776 l 1,26,-1
 281 663 l 1,27,-1
 416 776 l 1,28,-1
 452 744 l 1,22,-1
EndSplineSet
EndChar

StartChar: Gcircumflex
Encoding: 284 284 221
Width: 642
GlyphClass: 2
Flags: W
LayerCount: 2
Fore
SplineSet
352 -12 m 0,0,1
 203 -12 203 -12 131.5 83 c 128,-1,2
 60 178 60 178 60 350 c 0,3,4
 60 712 60 712 371 712 c 0,5,6
 463 712 463 712 554 679 c 1,7,-1
 534 609 l 1,8,9
 431 634 431 634 372 634 c 128,-1,10
 313 634 313 634 272 612.5 c 128,-1,11
 231 591 231 591 209 551 c 0,12,13
 167 475 167 475 167 346 c 128,-1,14
 167 217 167 217 210 141.5 c 128,-1,15
 253 66 253 66 358 66 c 0,16,17
 440 66 440 66 485 120 c 1,18,-1
 485 273 l 1,19,-1
 347 273 l 1,20,-1
 347 351 l 1,21,-1
 582 351 l 1,22,-1
 582 -8 l 1,23,-1
 563 -8 l 2,24,25
 535 -8 535 -8 520 18 c 2,26,-1
 506 44 l 1,27,-1
 490 44 l 1,28,29
 468 17 468 17 427.5 2.5 c 128,-1,30
 387 -12 387 -12 352 -12 c 0,0,1
177 770 m 1,31,-1
 302 898 l 1,32,-1
 395 898 l 1,33,-1
 520 770 l 1,34,-1
 484 738 l 1,35,-1
 348 836 l 1,36,-1
 213 738 l 1,37,-1
 177 770 l 1,31,-1
EndSplineSet
EndChar

StartChar: gcircumflex
Encoding: 285 285 222
Width: 580
GlyphClass: 2
Flags: W
LayerCount: 2
Fore
SplineSet
402 73 m 1,0,1
 354 -12 354 -12 257 -12 c 128,-1,2
 160 -12 160 -12 105 59.5 c 128,-1,3
 50 131 50 131 50 258 c 128,-1,4
 50 385 50 385 111 456.5 c 128,-1,5
 172 528 172 528 289 528 c 0,6,7
 363 528 363 528 502 498 c 1,8,-1
 502 -23 l 2,9,10
 502 -114 502 -114 438 -167 c 128,-1,11
 374 -220 374 -220 269.5 -220 c 128,-1,12
 165 -220 165 -220 71 -175 c 1,13,-1
 94 -111 l 1,14,15
 99 -113 99 -113 117.5 -120 c 128,-1,16
 136 -127 136 -127 143 -130 c 128,-1,17
 150 -133 150 -133 167 -138 c 128,-1,18
 184 -143 184 -143 195 -146 c 0,19,20
 224 -152 224 -152 253 -152 c 0,21,22
 324 -152 324 -152 362.5 -115 c 128,-1,23
 401 -78 401 -78 404 -17 c 0,24,25
 406 18 406 18 415 52 c 2,26,-1
 418 64 l 1,27,-1
 402 73 l 1,0,1
287 56 m 0,28,29
 332 56 332 56 367 82 c 128,-1,30
 402 108 402 108 402 166 c 2,31,-1
 402 448 l 1,32,33
 342 460 342 460 290 460 c 0,34,35
 217 460 217 460 186.5 407 c 128,-1,36
 156 354 156 354 156 257 c 0,37,38
 156 165 156 165 176 116 c 0,39,40
 201 56 201 56 287 56 c 0,28,29
134 611 m 1,41,-1
 259 759 l 1,42,-1
 352 759 l 1,43,-1
 477 611 l 1,44,-1
 441 579 l 1,45,-1
 305 692 l 1,46,-1
 170 579 l 1,47,-1
 134 611 l 1,41,-1
EndSplineSet
EndChar

StartChar: Gbreve
Encoding: 286 286 223
Width: 642
GlyphClass: 2
Flags: W
LayerCount: 2
Fore
SplineSet
352 -12 m 0,0,1
 203 -12 203 -12 131.5 83 c 128,-1,2
 60 178 60 178 60 350 c 0,3,4
 60 712 60 712 371 712 c 0,5,6
 463 712 463 712 554 679 c 1,7,-1
 534 609 l 1,8,9
 431 634 431 634 372 634 c 128,-1,10
 313 634 313 634 272 612.5 c 128,-1,11
 231 591 231 591 209 551 c 0,12,13
 167 475 167 475 167 346 c 128,-1,14
 167 217 167 217 210 141.5 c 128,-1,15
 253 66 253 66 358 66 c 0,16,17
 440 66 440 66 485 120 c 1,18,-1
 485 273 l 1,19,-1
 347 273 l 1,20,-1
 347 351 l 1,21,-1
 582 351 l 1,22,-1
 582 -8 l 1,23,-1
 563 -8 l 2,24,25
 535 -8 535 -8 520 18 c 2,26,-1
 506 44 l 1,27,-1
 490 44 l 1,28,29
 468 17 468 17 427.5 2.5 c 128,-1,30
 387 -12 387 -12 352 -12 c 0,0,1
349 754 m 128,-1,32
 167 754 167 754 167 901 c 1,33,-1
 224 910 l 1,34,35
 231 855 231 855 258.5 836.5 c 128,-1,36
 286 818 286 818 349 818 c 128,-1,37
 412 818 412 818 439.5 836.5 c 128,-1,38
 467 855 467 855 474 910 c 1,39,-1
 531 901 l 1,40,31
 531 754 531 754 349 754 c 128,-1,32
EndSplineSet
EndChar

StartChar: gbreve
Encoding: 287 287 224
Width: 580
GlyphClass: 2
Flags: W
LayerCount: 2
Fore
SplineSet
402 73 m 1,0,1
 354 -12 354 -12 257 -12 c 128,-1,2
 160 -12 160 -12 105 59.5 c 128,-1,3
 50 131 50 131 50 258 c 128,-1,4
 50 385 50 385 111 456.5 c 128,-1,5
 172 528 172 528 289 528 c 0,6,7
 363 528 363 528 502 498 c 1,8,-1
 502 -23 l 2,9,10
 502 -114 502 -114 438 -167 c 128,-1,11
 374 -220 374 -220 269.5 -220 c 128,-1,12
 165 -220 165 -220 71 -175 c 1,13,-1
 94 -111 l 1,14,15
 99 -113 99 -113 117.5 -120 c 128,-1,16
 136 -127 136 -127 143 -130 c 128,-1,17
 150 -133 150 -133 167 -138 c 128,-1,18
 184 -143 184 -143 195 -146 c 0,19,20
 224 -152 224 -152 253 -152 c 0,21,22
 324 -152 324 -152 362.5 -115 c 128,-1,23
 401 -78 401 -78 404 -17 c 0,24,25
 406 18 406 18 415 52 c 2,26,-1
 418 64 l 1,27,-1
 402 73 l 1,0,1
287 56 m 0,28,29
 332 56 332 56 367 82 c 128,-1,30
 402 108 402 108 402 166 c 2,31,-1
 402 448 l 1,32,33
 342 460 342 460 290 460 c 0,34,35
 217 460 217 460 186.5 407 c 128,-1,36
 156 354 156 354 156 257 c 0,37,38
 156 165 156 165 176 116 c 0,39,40
 201 56 201 56 287 56 c 0,28,29
290 605 m 128,-1,42
 108 605 108 605 108 752 c 1,43,-1
 165 761 l 1,44,45
 172 706 172 706 199.5 687.5 c 128,-1,46
 227 669 227 669 290 669 c 128,-1,47
 353 669 353 669 380.5 687.5 c 128,-1,48
 408 706 408 706 415 761 c 1,49,-1
 472 752 l 1,50,41
 472 605 472 605 290 605 c 128,-1,42
EndSplineSet
EndChar

StartChar: Gdot
Encoding: 288 288 225
Width: 642
GlyphClass: 2
Flags: W
LayerCount: 2
Fore
SplineSet
352 -12 m 0,0,1
 203 -12 203 -12 131.5 83 c 128,-1,2
 60 178 60 178 60 350 c 0,3,4
 60 712 60 712 371 712 c 0,5,6
 463 712 463 712 554 679 c 1,7,-1
 534 609 l 1,8,9
 431 634 431 634 372 634 c 128,-1,10
 313 634 313 634 272 612.5 c 128,-1,11
 231 591 231 591 209 551 c 0,12,13
 167 475 167 475 167 346 c 128,-1,14
 167 217 167 217 210 141.5 c 128,-1,15
 253 66 253 66 358 66 c 0,16,17
 440 66 440 66 485 120 c 1,18,-1
 485 273 l 1,19,-1
 347 273 l 1,20,-1
 347 351 l 1,21,-1
 582 351 l 1,22,-1
 582 -8 l 1,23,-1
 563 -8 l 2,24,25
 535 -8 535 -8 520 18 c 2,26,-1
 506 44 l 1,27,-1
 490 44 l 1,28,29
 468 17 468 17 427.5 2.5 c 128,-1,30
 387 -12 387 -12 352 -12 c 0,0,1
275 844 m 128,-1,32
 275 873 275 873 296 894 c 128,-1,33
 317 915 317 915 346 915 c 128,-1,34
 375 915 375 915 396 894 c 128,-1,35
 417 873 417 873 417 844 c 128,-1,36
 417 815 417 815 396 794 c 128,-1,37
 375 773 375 773 346 773 c 128,-1,38
 317 773 317 773 296 794 c 128,-1,31
 275 815 275 815 275 844 c 128,-1,32
EndSplineSet
EndChar

StartChar: gdot
Encoding: 289 289 226
Width: 580
GlyphClass: 2
Flags: W
LayerCount: 2
Fore
SplineSet
402 73 m 1,0,1
 354 -12 354 -12 257 -12 c 128,-1,2
 160 -12 160 -12 105 59.5 c 128,-1,3
 50 131 50 131 50 258 c 128,-1,4
 50 385 50 385 111 456.5 c 128,-1,5
 172 528 172 528 289 528 c 0,6,7
 363 528 363 528 502 498 c 1,8,-1
 502 -23 l 2,9,10
 502 -114 502 -114 438 -167 c 128,-1,11
 374 -220 374 -220 269.5 -220 c 128,-1,12
 165 -220 165 -220 71 -175 c 1,13,-1
 94 -111 l 1,14,15
 99 -113 99 -113 117.5 -120 c 128,-1,16
 136 -127 136 -127 143 -130 c 128,-1,17
 150 -133 150 -133 167 -138 c 128,-1,18
 184 -143 184 -143 195 -146 c 0,19,20
 224 -152 224 -152 253 -152 c 0,21,22
 324 -152 324 -152 362.5 -115 c 128,-1,23
 401 -78 401 -78 404 -17 c 0,24,25
 406 18 406 18 415 52 c 2,26,-1
 418 64 l 1,27,-1
 402 73 l 1,0,1
287 56 m 0,28,29
 332 56 332 56 367 82 c 128,-1,30
 402 108 402 108 402 166 c 2,31,-1
 402 448 l 1,32,33
 342 460 342 460 290 460 c 0,34,35
 217 460 217 460 186.5 407 c 128,-1,36
 156 354 156 354 156 257 c 0,37,38
 156 165 156 165 176 116 c 0,39,40
 201 56 201 56 287 56 c 0,28,29
217 673 m 128,-1,42
 217 702 217 702 238 723 c 128,-1,43
 259 744 259 744 288 744 c 128,-1,44
 317 744 317 744 338 723 c 128,-1,45
 359 702 359 702 359 673 c 128,-1,46
 359 644 359 644 338 623 c 128,-1,47
 317 602 317 602 288 602 c 128,-1,48
 259 602 259 602 238 623 c 128,-1,41
 217 644 217 644 217 673 c 128,-1,42
EndSplineSet
EndChar

StartChar: Gcommaaccent
Encoding: 290 290 227
Width: 642
GlyphClass: 2
Flags: W
LayerCount: 2
Fore
SplineSet
352 -12 m 0,0,1
 203 -12 203 -12 131.5 83 c 128,-1,2
 60 178 60 178 60 350 c 0,3,4
 60 712 60 712 371 712 c 0,5,6
 463 712 463 712 554 679 c 1,7,-1
 534 609 l 1,8,9
 431 634 431 634 372 634 c 128,-1,10
 313 634 313 634 272 612.5 c 128,-1,11
 231 591 231 591 209 551 c 0,12,13
 167 475 167 475 167 346 c 128,-1,14
 167 217 167 217 210 141.5 c 128,-1,15
 253 66 253 66 358 66 c 0,16,17
 440 66 440 66 485 120 c 1,18,-1
 485 273 l 1,19,-1
 347 273 l 1,20,-1
 347 351 l 1,21,-1
 582 351 l 1,22,-1
 582 -8 l 1,23,-1
 563 -8 l 2,24,25
 535 -8 535 -8 520 18 c 2,26,-1
 506 44 l 1,27,-1
 490 44 l 1,28,29
 468 17 468 17 427.5 2.5 c 128,-1,30
 387 -12 387 -12 352 -12 c 0,0,1
418 -73.5 m 128,-1,32
 429 -85 429 -85 429 -98 c 128,-1,33
 429 -111 429 -111 427 -118 c 2,34,-1
 406 -205 l 2,35,36
 398 -237 398 -237 344 -311 c 1,37,-1
 327 -335 l 1,38,-1
 262 -305 l 1,39,40
 306 -208 306 -208 313 -184.5 c 128,-1,41
 320 -161 320 -161 321 -144 c 2,42,-1
 325 -58 l 1,43,-1
 386 -61 l 2,44,31
 407 -62 407 -62 418 -73.5 c 128,-1,32
EndSplineSet
EndChar

StartChar: gcommaaccent
Encoding: 291 291 228
Width: 580
GlyphClass: 2
Flags: W
LayerCount: 2
Fore
SplineSet
254 604.5 m 128,-1,1
 243 616 243 616 243 629 c 128,-1,2
 243 642 243 642 245 649 c 2,3,-1
 266 736 l 2,4,5
 274 768 274 768 328 842 c 1,6,-1
 345 866 l 1,7,-1
 410 836 l 1,8,9
 366 739 366 739 359 715.5 c 128,-1,10
 352 692 352 692 351 675 c 2,11,-1
 347 589 l 1,12,-1
 286 592 l 2,13,0
 265 593 265 593 254 604.5 c 128,-1,1
402 73 m 1,14,15
 354 -12 354 -12 257 -12 c 128,-1,16
 160 -12 160 -12 105 59.5 c 128,-1,17
 50 131 50 131 50 258 c 128,-1,18
 50 385 50 385 111 456.5 c 128,-1,19
 172 528 172 528 289 528 c 0,20,21
 363 528 363 528 502 498 c 1,22,-1
 502 -23 l 2,23,24
 502 -114 502 -114 438 -167 c 128,-1,25
 374 -220 374 -220 269.5 -220 c 128,-1,26
 165 -220 165 -220 71 -175 c 1,27,-1
 94 -111 l 1,28,29
 99 -113 99 -113 117.5 -120 c 128,-1,30
 136 -127 136 -127 143 -130 c 128,-1,31
 150 -133 150 -133 167 -138 c 128,-1,32
 184 -143 184 -143 195 -146 c 0,33,34
 224 -152 224 -152 253 -152 c 0,35,36
 324 -152 324 -152 362.5 -115 c 128,-1,37
 401 -78 401 -78 404 -17 c 0,38,39
 406 18 406 18 415 52 c 2,40,-1
 418 64 l 1,41,-1
 402 73 l 1,14,15
287 56 m 0,42,43
 332 56 332 56 367 82 c 128,-1,44
 402 108 402 108 402 166 c 2,45,-1
 402 448 l 1,46,47
 342 460 342 460 290 460 c 0,48,49
 217 460 217 460 186.5 407 c 128,-1,50
 156 354 156 354 156 257 c 0,51,52
 156 165 156 165 176 116 c 0,53,54
 201 56 201 56 287 56 c 0,42,43
EndSplineSet
EndChar

StartChar: Hcircumflex
Encoding: 292 292 229
Width: 730
GlyphClass: 2
Flags: W
LayerCount: 2
Fore
SplineSet
195 0 m 1,0,-1
 95 0 l 1,1,-1
 95 700 l 1,2,-1
 195 700 l 1,3,-1
 195 396 l 1,4,-1
 534 396 l 1,5,-1
 534 700 l 1,6,-1
 634 700 l 1,7,-1
 634 0 l 1,8,-1
 534 0 l 1,9,-1
 534 312 l 1,10,-1
 195 312 l 1,11,-1
 195 0 l 1,0,-1
187 770 m 1,12,-1
 312 898 l 1,13,-1
 405 898 l 1,14,-1
 530 770 l 1,15,-1
 494 738 l 1,16,-1
 358 836 l 1,17,-1
 223 738 l 1,18,-1
 187 770 l 1,12,-1
EndSplineSet
EndChar

StartChar: hcircumflex
Encoding: 293 293 230
Width: 599
GlyphClass: 2
Flags: W
LayerCount: 2
Fore
SplineSet
316 528 m 0,0,1
 421 528 421 528 469 478 c 128,-1,2
 517 428 517 428 517 319 c 2,3,-1
 517 0 l 1,4,-1
 417 0 l 1,5,-1
 417 318 l 2,6,7
 417 386 417 386 393.5 423 c 128,-1,8
 370 460 370 460 310 460 c 128,-1,9
 250 460 250 460 214 434 c 128,-1,10
 178 408 178 408 178 350 c 2,11,-1
 178 0 l 1,12,-1
 78 0 l 1,13,-1
 78 740 l 1,14,-1
 178 740 l 1,15,-1
 178 550 l 2,16,17
 178 505 178 505 166 466 c 2,18,-1
 162 453 l 1,19,-1
 178 444 l 1,20,21
 201 486 201 486 239 507 c 128,-1,22
 277 528 277 528 316 528 c 0,0,1
121 811 m 1,23,-1
 246 959 l 1,24,-1
 339 959 l 1,25,-1
 464 811 l 1,26,-1
 428 779 l 1,27,-1
 292 892 l 1,28,-1
 157 779 l 1,29,-1
 121 811 l 1,23,-1
EndSplineSet
EndChar

StartChar: Hbar
Encoding: 294 294 231
Width: 730
GlyphClass: 2
Flags: W
LayerCount: 2
Fore
SplineSet
22 520 m 1,0,-1
 22 583 l 1,1,-1
 95 583 l 1,2,-1
 95 700 l 1,3,-1
 195 700 l 1,4,-1
 195 583 l 1,5,-1
 534 583 l 1,6,-1
 534 700 l 1,7,-1
 634 700 l 1,8,-1
 634 583 l 1,9,-1
 706 583 l 1,10,-1
 706 520 l 1,11,-1
 634 520 l 1,12,-1
 634 0 l 1,13,-1
 534 0 l 1,14,-1
 534 312 l 1,15,-1
 195 312 l 1,16,-1
 195 0 l 1,17,-1
 95 0 l 1,18,-1
 95 520 l 1,19,-1
 22 520 l 1,0,-1
195 396 m 1,20,-1
 534 396 l 1,21,-1
 534 520 l 1,22,-1
 195 520 l 1,23,-1
 195 396 l 1,20,-1
EndSplineSet
EndChar

StartChar: hbar
Encoding: 295 295 232
Width: 599
GlyphClass: 2
Flags: W
LayerCount: 2
Fore
SplineSet
417 606 m 1,0,-1
 178 606 l 1,1,-1
 178 550 l 2,2,3
 178 505 178 505 166 466 c 2,4,-1
 162 453 l 1,5,-1
 178 444 l 1,6,7
 201 486 201 486 239 507 c 128,-1,8
 277 528 277 528 316 528 c 0,9,10
 421 528 421 528 469 478 c 128,-1,11
 517 428 517 428 517 319 c 2,12,-1
 517 0 l 1,13,-1
 417 0 l 1,14,-1
 417 318 l 2,15,16
 417 386 417 386 393.5 423 c 128,-1,17
 370 460 370 460 310 460 c 128,-1,18
 250 460 250 460 214 434 c 128,-1,19
 178 408 178 408 178 350 c 2,20,-1
 178 0 l 1,21,-1
 78 0 l 1,22,-1
 78 606 l 1,23,-1
 12 606 l 1,24,-1
 12 670 l 1,25,-1
 78 670 l 1,26,-1
 78 740 l 1,27,-1
 178 740 l 1,28,-1
 178 670 l 1,29,-1
 417 670 l 1,30,-1
 417 606 l 1,0,-1
EndSplineSet
EndChar

StartChar: Itilde
Encoding: 296 296 233
Width: 278
GlyphClass: 2
Flags: W
LayerCount: 2
Fore
SplineSet
189 0 m 1,0,-1
 89 0 l 1,1,-1
 89 700 l 1,2,-1
 189 700 l 1,3,-1
 189 0 l 1,0,-1
200 773 m 0,4,5
 167 773 167 773 126 793.5 c 128,-1,6
 85 814 85 814 65.5 814 c 128,-1,7
 46 814 46 814 34.5 805.5 c 128,-1,8
 23 797 23 797 7 775 c 1,9,-1
 -48 811 l 1,10,11
 -8 889 -8 889 66 889 c 0,12,13
 98 889 98 889 140.5 868.5 c 128,-1,14
 183 848 183 848 199 848 c 0,15,16
 243 848 243 848 259 885 c 1,17,-1
 315 850 l 1,18,19
 277 773 277 773 200 773 c 0,4,5
EndSplineSet
EndChar

StartChar: itilde
Encoding: 297 297 234
Width: 295
GlyphClass: 2
Flags: W
LayerCount: 2
Fore
SplineSet
197 0 m 1,0,-1
 97 0 l 1,1,-1
 97 516 l 1,2,-1
 197 516 l 1,3,-1
 197 0 l 1,0,-1
213 614 m 0,4,5
 180 614 180 614 139 634.5 c 128,-1,6
 98 655 98 655 78.5 655 c 128,-1,7
 59 655 59 655 47.5 646.5 c 128,-1,8
 36 638 36 638 20 616 c 1,9,-1
 -35 652 l 1,10,11
 5 730 5 730 79 730 c 0,12,13
 111 730 111 730 153.5 709.5 c 128,-1,14
 196 689 196 689 212 689 c 0,15,16
 256 689 256 689 272 726 c 1,17,-1
 328 691 l 1,18,19
 290 614 290 614 213 614 c 0,4,5
EndSplineSet
EndChar

StartChar: imacron
Encoding: 299 299 235
Width: 266
GlyphClass: 2
Flags: W
LayerCount: 2
Fore
SplineSet
183 0 m 1,0,-1
 83 0 l 1,1,-1
 83 516 l 1,2,-1
 183 516 l 1,3,-1
 183 0 l 1,0,-1
-24 637 m 1,4,-1
 -24 706 l 1,5,-1
 290 706 l 1,6,-1
 290 637 l 1,7,-1
 -24 637 l 1,4,-1
EndSplineSet
EndChar

StartChar: Ibreve
Encoding: 300 300 236
Width: 278
GlyphClass: 2
Flags: W
LayerCount: 2
Fore
SplineSet
189 0 m 1,0,-1
 89 0 l 1,1,-1
 89 700 l 1,2,-1
 189 700 l 1,3,-1
 189 0 l 1,0,-1
139 754 m 128,-1,5
 -43 754 -43 754 -43 901 c 1,6,-1
 14 910 l 1,7,8
 21 855 21 855 48.5 836.5 c 128,-1,9
 76 818 76 818 139 818 c 128,-1,10
 202 818 202 818 229.5 836.5 c 128,-1,11
 257 855 257 855 264 910 c 1,12,-1
 321 901 l 1,13,4
 321 754 321 754 139 754 c 128,-1,5
EndSplineSet
EndChar

StartChar: Iogonek
Encoding: 302 302 237
Width: 278
GlyphClass: 2
Flags: W
LayerCount: 2
Fore
SplineSet
110.5 -56 m 128,-1,1
 80 -87 80 -87 80 -113.5 c 128,-1,2
 80 -140 80 -140 94 -152.5 c 128,-1,3
 108 -165 108 -165 131.5 -165 c 128,-1,4
 155 -165 155 -165 176 -151 c 1,5,-1
 205 -196 l 1,6,7
 164 -220 164 -220 116.5 -220 c 128,-1,8
 69 -220 69 -220 41 -191 c 128,-1,9
 13 -162 13 -162 13 -118 c 0,10,11
 13 -57 13 -57 89 0 c 1,12,-1
 89 700 l 1,13,-1
 189 700 l 1,14,-1
 189 0 l 1,15,0
 141 -25 141 -25 110.5 -56 c 128,-1,1
EndSplineSet
EndChar

StartChar: iogonek
Encoding: 303 303 238
Width: 264
GlyphClass: 2
Flags: W
LayerCount: 2
Fore
SplineSet
73 -118 m 0,0,1
 73 -140 73 -140 87 -152.5 c 128,-1,2
 101 -165 101 -165 124.5 -165 c 128,-1,3
 148 -165 148 -165 169 -151 c 1,4,-1
 198 -196 l 1,5,6
 157 -220 157 -220 109.5 -220 c 128,-1,7
 62 -220 62 -220 34 -191 c 128,-1,8
 6 -162 6 -162 6 -118 c 0,9,10
 6 -57 6 -57 82 0 c 1,11,-1
 82 516 l 1,12,-1
 182 516 l 1,13,-1
 182 0 l 1,14,15
 73 -56 73 -56 73 -118 c 0,0,1
68 686 m 128,-1,17
 68 712 68 712 87 731 c 128,-1,18
 106 750 106 750 132 750 c 128,-1,19
 158 750 158 750 177 731 c 128,-1,20
 196 712 196 712 196 686 c 128,-1,21
 196 660 196 660 177 641 c 128,-1,22
 158 622 158 622 132 622 c 128,-1,23
 106 622 106 622 87 641 c 128,-1,16
 68 660 68 660 68 686 c 128,-1,17
EndSplineSet
EndChar

StartChar: Idot
Encoding: 304 304 239
Width: 278
GlyphClass: 2
Flags: W
LayerCount: 2
Fore
SplineSet
189 0 m 1,0,-1
 89 0 l 1,1,-1
 89 700 l 1,2,-1
 189 700 l 1,3,-1
 189 0 l 1,0,-1
69 844 m 128,-1,5
 69 873 69 873 90 894 c 128,-1,6
 111 915 111 915 140 915 c 128,-1,7
 169 915 169 915 190 894 c 128,-1,8
 211 873 211 873 211 844 c 128,-1,9
 211 815 211 815 190 794 c 128,-1,10
 169 773 169 773 140 773 c 128,-1,11
 111 773 111 773 90 794 c 128,-1,4
 69 815 69 815 69 844 c 128,-1,5
EndSplineSet
EndChar

StartChar: dotlessi
Encoding: 305 305 240
Width: 266
GlyphClass: 2
Flags: W
LayerCount: 2
Fore
SplineSet
183 0 m 1,0,-1
 83 0 l 1,1,-1
 83 516 l 1,2,-1
 183 516 l 1,3,-1
 183 0 l 1,0,-1
EndSplineSet
EndChar

StartChar: IJ
Encoding: 306 306 241
Width: 543
GlyphClass: 2
Flags: W
LayerCount: 2
Fore
SplineSet
189 0 m 1,0,-1
 89 0 l 1,1,-1
 89 700 l 1,2,-1
 189 700 l 1,3,-1
 189 0 l 1,0,-1
245 -138 m 1,4,-1
 245 -65 l 1,5,6
 304 -65 304 -65 329.5 -37 c 128,-1,7
 355 -9 355 -9 355 63 c 2,8,-1
 355 699 l 1,9,-1
 455 699 l 1,10,-1
 455 76 l 2,11,12
 455 -40 455 -40 407 -89 c 128,-1,13
 359 -138 359 -138 265 -138 c 2,14,-1
 245 -138 l 1,4,-1
EndSplineSet
EndChar

StartChar: ij
Encoding: 307 307 242
Width: 533
GlyphClass: 2
Flags: W
LayerCount: 2
Fore
SplineSet
182 0 m 1,0,-1
 82 0 l 1,1,-1
 82 516 l 1,2,-1
 182 516 l 1,3,-1
 182 0 l 1,0,-1
70 691 m 128,-1,5
 70 717 70 717 88 735 c 128,-1,6
 106 753 106 753 132 753 c 128,-1,7
 158 753 158 753 176 735 c 128,-1,8
 194 717 194 717 194 691 c 128,-1,9
 194 665 194 665 176 647 c 128,-1,10
 158 629 158 629 132 629 c 128,-1,11
 106 629 106 629 88 647 c 128,-1,4
 70 665 70 665 70 691 c 128,-1,5
262 -220 m 2,12,-1
 241 -220 l 1,13,-1
 241 -147 l 1,14,15
 298 -147 298 -147 324.5 -116.5 c 128,-1,16
 351 -86 351 -86 351 -14 c 2,17,-1
 351 516 l 1,18,-1
 451 516 l 1,19,-1
 451 -5 l 2,20,21
 451 -122 451 -122 402.5 -171 c 128,-1,22
 354 -220 354 -220 262 -220 c 2,12,-1
339 691 m 128,-1,24
 339 717 339 717 357 735 c 128,-1,25
 375 753 375 753 401 753 c 128,-1,26
 427 753 427 753 445 735 c 128,-1,27
 463 717 463 717 463 691 c 128,-1,28
 463 665 463 665 445 647 c 128,-1,29
 427 629 427 629 401 629 c 128,-1,30
 375 629 375 629 357 647 c 128,-1,23
 339 665 339 665 339 691 c 128,-1,24
EndSplineSet
EndChar

StartChar: Jcircumflex
Encoding: 308 308 243
Width: 288
GlyphClass: 2
Flags: W
LayerCount: 2
Fore
SplineSet
-10 -138 m 1,0,-1
 -10 -65 l 1,1,2
 49 -65 49 -65 74.5 -37 c 128,-1,3
 100 -9 100 -9 100 63 c 2,4,-1
 100 699 l 1,5,-1
 200 699 l 1,6,-1
 200 76 l 2,7,8
 200 -40 200 -40 152 -89 c 128,-1,9
 104 -138 104 -138 10 -138 c 2,10,-1
 -10 -138 l 1,0,-1
-27 791 m 1,11,-1
 98 939 l 1,12,-1
 191 939 l 1,13,-1
 316 791 l 1,14,-1
 280 759 l 1,15,-1
 144 872 l 1,16,-1
 9 759 l 1,17,-1
 -27 791 l 1,11,-1
EndSplineSet
EndChar

StartChar: jcircumflex
Encoding: 309 309 244
Width: 253
GlyphClass: 2
Flags: W
LayerCount: 2
Fore
SplineSet
-2 -220 m 2,0,-1
 -23 -220 l 1,1,-1
 -23 -147 l 1,2,3
 34 -147 34 -147 60.5 -116.5 c 128,-1,4
 87 -86 87 -86 87 -14 c 2,5,-1
 87 516 l 1,6,-1
 187 516 l 1,7,-1
 187 -5 l 2,8,9
 187 -122 187 -122 138.5 -171 c 128,-1,10
 90 -220 90 -220 -2 -220 c 2,0,-1
-45 611 m 1,11,-1
 80 759 l 1,12,-1
 173 759 l 1,13,-1
 298 611 l 1,14,-1
 262 579 l 1,15,-1
 126 692 l 1,16,-1
 -9 579 l 1,17,-1
 -45 611 l 1,11,-1
EndSplineSet
EndChar

StartChar: Kcommaaccent
Encoding: 310 310 245
Width: 590
GlyphClass: 2
Flags: W
LayerCount: 2
Fore
SplineSet
563 700 m 1,0,-1
 320 373 l 1,1,-1
 579 -1 l 1,2,-1
 472 -15 l 1,3,-1
 218 366 l 1,4,-1
 451 700 l 1,5,-1
 563 700 l 1,0,-1
195 0 m 1,6,-1
 95 0 l 1,7,-1
 95 700 l 1,8,-1
 195 700 l 1,9,-1
 195 0 l 1,6,-1
360 -73.5 m 128,-1,11
 371 -85 371 -85 371 -98 c 128,-1,12
 371 -111 371 -111 369 -118 c 2,13,-1
 348 -205 l 2,14,15
 340 -237 340 -237 286 -311 c 1,16,-1
 269 -335 l 1,17,-1
 204 -305 l 1,18,19
 248 -208 248 -208 255 -184.5 c 128,-1,20
 262 -161 262 -161 263 -144 c 2,21,-1
 267 -58 l 1,22,-1
 328 -61 l 2,23,10
 349 -62 349 -62 360 -73.5 c 128,-1,11
EndSplineSet
EndChar

StartChar: kcommaaccent
Encoding: 311 311 246
Width: 566
GlyphClass: 2
Flags: W
LayerCount: 2
Fore
SplineSet
178 740 m 1,0,-1
 178 0 l 1,1,-1
 78 0 l 1,2,-1
 78 740 l 1,3,-1
 178 740 l 1,0,-1
524 516 m 1,4,-1
 311 308 l 1,5,-1
 556 -1 l 1,6,-1
 440 -15 l 1,7,-1
 200 308 l 1,8,-1
 386 516 l 1,9,-1
 524 516 l 1,4,-1
330 -73.5 m 128,-1,11
 341 -85 341 -85 341 -98 c 128,-1,12
 341 -111 341 -111 339 -118 c 2,13,-1
 318 -205 l 2,14,15
 310 -237 310 -237 256 -311 c 1,16,-1
 239 -335 l 1,17,-1
 174 -305 l 1,18,19
 218 -208 218 -208 225 -184.5 c 128,-1,20
 232 -161 232 -161 233 -144 c 2,21,-1
 237 -58 l 1,22,-1
 298 -61 l 2,23,10
 319 -62 319 -62 330 -73.5 c 128,-1,11
EndSplineSet
EndChar

StartChar: kgreenlandic
Encoding: 312 312 247
Width: 579
GlyphClass: 2
Flags: W
LayerCount: 2
Fore
SplineSet
195 516 m 1,0,-1
 195 0 l 1,1,-1
 95 0 l 1,2,-1
 95 516 l 1,3,-1
 195 516 l 1,0,-1
526 516 m 1,4,-1
 323 255 l 1,5,-1
 568 -1 l 1,6,-1
 457 -15 l 1,7,-1
 217 255 l 1,8,-1
 413 516 l 1,9,-1
 526 516 l 1,4,-1
EndSplineSet
EndChar

StartChar: Lacute
Encoding: 313 313 248
Width: 507
GlyphClass: 2
Flags: W
LayerCount: 2
Fore
SplineSet
87 0 m 1,0,-1
 87 700 l 1,1,-1
 187 700 l 1,2,-1
 187 86 l 1,3,-1
 487 86 l 1,4,-1
 487 0 l 1,5,-1
 87 0 l 1,0,-1
434 852 m 0,6,7
 434 822 434 822 392 811 c 2,8,-1
 207 760 l 1,9,-1
 184 810 l 1,10,-1
 407 917 l 1,11,-1
 430 867 l 2,12,13
 434 859 434 859 434 852 c 0,6,7
EndSplineSet
EndChar

StartChar: lacute
Encoding: 314 314 249
Width: 266
GlyphClass: 2
Flags: W
LayerCount: 2
Fore
SplineSet
83 0 m 1,0,-1
 83 740 l 1,1,-1
 183 740 l 1,2,-1
 183 0 l 1,3,-1
 83 0 l 1,0,-1
264 872 m 0,4,5
 264 842 264 842 222 831 c 2,6,-1
 37 780 l 1,7,-1
 14 830 l 1,8,-1
 237 937 l 1,9,-1
 260 887 l 2,10,11
 264 879 264 879 264 872 c 0,4,5
EndSplineSet
EndChar

StartChar: Lcommaaccent
Encoding: 315 315 250
Width: 507
GlyphClass: 2
Flags: W
LayerCount: 2
Fore
SplineSet
87 0 m 1,0,-1
 87 700 l 1,1,-1
 187 700 l 1,2,-1
 187 86 l 1,3,-1
 487 86 l 1,4,-1
 487 0 l 1,5,-1
 87 0 l 1,0,-1
340 -73.5 m 128,-1,7
 351 -85 351 -85 351 -98 c 128,-1,8
 351 -111 351 -111 349 -118 c 2,9,-1
 328 -205 l 2,10,11
 320 -237 320 -237 266 -311 c 1,12,-1
 249 -335 l 1,13,-1
 184 -305 l 1,14,15
 228 -208 228 -208 235 -184.5 c 128,-1,16
 242 -161 242 -161 243 -144 c 2,17,-1
 247 -58 l 1,18,-1
 308 -61 l 2,19,6
 329 -62 329 -62 340 -73.5 c 128,-1,7
EndSplineSet
EndChar

StartChar: lcommaaccent
Encoding: 316 316 251
Width: 266
GlyphClass: 2
Flags: W
LayerCount: 2
Fore
SplineSet
183 0 m 1,0,-1
 83 0 l 1,1,-1
 83 740 l 1,2,-1
 183 740 l 1,3,-1
 183 0 l 1,0,-1
176 -73.5 m 128,-1,5
 187 -85 187 -85 187 -98 c 128,-1,6
 187 -111 187 -111 185 -118 c 2,7,-1
 164 -205 l 2,8,9
 156 -237 156 -237 102 -311 c 1,10,-1
 85 -335 l 1,11,-1
 20 -305 l 1,12,13
 64 -208 64 -208 71 -184.5 c 128,-1,14
 78 -161 78 -161 79 -144 c 2,15,-1
 83 -58 l 1,16,-1
 144 -61 l 2,17,4
 165 -62 165 -62 176 -73.5 c 128,-1,5
EndSplineSet
EndChar

StartChar: Lcaron
Encoding: 317 317 252
Width: 507
GlyphClass: 2
Flags: W
LayerCount: 2
Fore
SplineSet
87 0 m 1,0,-1
 87 700 l 1,1,-1
 187 700 l 1,2,-1
 187 86 l 1,3,-1
 487 86 l 1,4,-1
 487 0 l 1,5,-1
 87 0 l 1,0,-1
463 747 m 0,6,7
 463 740 463 740 462 736 c 2,8,-1
 448 662 l 2,9,10
 442 634 442 634 392 574 c 1,11,-1
 376 554 l 1,12,-1
 312 585 l 1,13,14
 316 595 316 595 327 619 c 128,-1,15
 338 643 338 643 343 654 c 0,16,17
 357 687 357 687 359 715 c 2,18,-1
 363 787 l 1,19,-1
 426 783 l 2,20,21
 463 780 463 780 463 747 c 0,6,7
EndSplineSet
EndChar

StartChar: lcaron
Encoding: 318 318 253
Width: 344
GlyphClass: 2
Flags: W
LayerCount: 2
Fore
SplineSet
83 0 m 1,0,-1
 83 740 l 1,1,-1
 183 740 l 1,2,-1
 183 0 l 1,3,-1
 83 0 l 1,0,-1
374 747 m 0,4,5
 374 740 374 740 373 736 c 2,6,-1
 359 662 l 2,7,8
 353 634 353 634 304 574 c 1,9,-1
 287 554 l 1,10,-1
 223 585 l 1,11,12
 227 595 227 595 238 619 c 128,-1,13
 249 643 249 643 254 654 c 0,14,15
 268 687 268 687 270 715 c 2,16,-1
 274 787 l 1,17,-1
 337 783 l 2,18,19
 374 780 374 780 374 747 c 0,4,5
EndSplineSet
EndChar

StartChar: Ldot
Encoding: 319 319 254
Width: 507
GlyphClass: 2
Flags: W
LayerCount: 2
Fore
SplineSet
87 0 m 1,0,-1
 87 700 l 1,1,-1
 187 700 l 1,2,-1
 187 86 l 1,3,-1
 487 86 l 1,4,-1
 487 0 l 1,5,-1
 87 0 l 1,0,-1
309 369 m 128,-1,7
 309 398 309 398 330 419 c 128,-1,8
 351 440 351 440 380 440 c 128,-1,9
 409 440 409 440 430 419 c 128,-1,10
 451 398 451 398 451 369 c 128,-1,11
 451 340 451 340 430 319 c 128,-1,12
 409 298 409 298 380 298 c 128,-1,13
 351 298 351 298 330 319 c 128,-1,6
 309 340 309 340 309 369 c 128,-1,7
EndSplineSet
EndChar

StartChar: ldot
Encoding: 320 320 255
Width: 392
GlyphClass: 2
Flags: W
LayerCount: 2
Fore
SplineSet
189 0 m 1,0,-1
 89 0 l 1,1,-1
 89 740 l 1,2,-1
 189 740 l 1,3,-1
 189 0 l 1,0,-1
245 374 m 128,-1,5
 245 403 245 403 266 424 c 128,-1,6
 287 445 287 445 316 445 c 128,-1,7
 345 445 345 445 366 424 c 128,-1,8
 387 403 387 403 387 374 c 128,-1,9
 387 345 387 345 366 324 c 128,-1,10
 345 303 345 303 316 303 c 128,-1,11
 287 303 287 303 266 324 c 128,-1,4
 245 345 245 345 245 374 c 128,-1,5
EndSplineSet
EndChar

StartChar: Lslash
Encoding: 321 321 256
Width: 507
GlyphClass: 2
Flags: W
LayerCount: 2
Fore
SplineSet
87 700 m 1,0,-1
 187 700 l 1,1,-1
 187 389 l 1,2,-1
 336 435 l 1,3,-1
 336 366 l 1,4,-1
 187 320 l 1,5,-1
 187 86 l 1,6,-1
 487 86 l 1,7,-1
 487 0 l 1,8,-1
 87 0 l 1,9,-1
 87 289 l 1,10,-1
 12 266 l 1,11,-1
 12 335 l 1,12,-1
 87 358 l 1,13,-1
 87 700 l 1,0,-1
EndSplineSet
EndChar

StartChar: lslash
Encoding: 322 322 257
Width: 266
GlyphClass: 2
Flags: W
LayerCount: 2
Fore
SplineSet
183 0 m 1,0,-1
 83 0 l 1,1,-1
 83 338 l 1,2,-1
 16 317 l 1,3,-1
 16 386 l 1,4,-1
 83 407 l 1,5,-1
 83 740 l 1,6,-1
 183 740 l 1,7,-1
 183 438 l 1,8,-1
 267 464 l 1,9,-1
 267 395 l 1,10,-1
 183 369 l 1,11,-1
 183 0 l 1,0,-1
EndSplineSet
EndChar

StartChar: Nacute
Encoding: 323 323 258
Width: 724
GlyphClass: 2
Flags: W
LayerCount: 2
Fore
SplineSet
190 449 m 2,0,-1
 190 0 l 1,1,-1
 90 0 l 1,2,-1
 90 700 l 1,3,-1
 180 700 l 1,4,-1
 482 252 l 2,5,6
 508 215 508 215 526 148 c 1,7,-1
 532 127 l 1,8,-1
 548 130 l 1,9,10
 534 216 534 216 534 248 c 2,11,-1
 534 700 l 1,12,-1
 634 700 l 1,13,-1
 634 0 l 1,14,-1
 544 0 l 1,15,-1
 240 449 l 2,16,17
 214 487 214 487 198 550 c 1,18,-1
 192 571 l 1,19,-1
 176 568 l 1,20,21
 190 481 190 481 190 449 c 2,0,-1
480 852 m 0,22,23
 480 822 480 822 438 811 c 2,24,-1
 253 760 l 1,25,-1
 230 810 l 1,26,-1
 453 917 l 1,27,-1
 476 867 l 2,28,29
 480 859 480 859 480 852 c 0,22,23
EndSplineSet
EndChar

StartChar: nacute
Encoding: 324 324 259
Width: 611
GlyphClass: 2
Flags: W
LayerCount: 2
Fore
SplineSet
116 524 m 2,0,1
 143 524 143 524 158 498 c 2,2,-1
 172 472 l 1,3,-1
 188 472 l 1,4,5
 219 505 219 505 248 516.5 c 128,-1,6
 277 528 277 528 327 528 c 0,7,8
 432 528 432 528 480 478 c 128,-1,9
 528 428 528 428 528 319 c 2,10,-1
 528 0 l 1,11,-1
 428 0 l 1,12,-1
 428 318 l 2,13,14
 428 386 428 386 405 423 c 128,-1,15
 382 460 382 460 311.5 460 c 128,-1,16
 241 460 241 460 190 422 c 1,17,-1
 190 0 l 1,18,-1
 90 0 l 1,19,-1
 90 415 l 1,20,-1
 67 524 l 1,21,-1
 116 524 l 2,0,1
435 711 m 0,22,23
 435 684 435 684 401 669 c 2,24,-1
 227 587 l 1,25,-1
 196 632 l 1,26,-1
 396 777 l 1,27,-1
 428 732 l 2,28,29
 435 722 435 722 435 711 c 0,22,23
EndSplineSet
EndChar

StartChar: Ncommaaccent
Encoding: 325 325 260
Width: 724
GlyphClass: 2
Flags: W
LayerCount: 2
Fore
SplineSet
190 449 m 2,0,-1
 190 0 l 1,1,-1
 90 0 l 1,2,-1
 90 700 l 1,3,-1
 180 700 l 1,4,-1
 482 252 l 2,5,6
 508 215 508 215 526 148 c 1,7,-1
 532 127 l 1,8,-1
 548 130 l 1,9,10
 534 216 534 216 534 248 c 2,11,-1
 534 700 l 1,12,-1
 634 700 l 1,13,-1
 634 0 l 1,14,-1
 544 0 l 1,15,-1
 240 449 l 2,16,17
 214 487 214 487 198 550 c 1,18,-1
 192 571 l 1,19,-1
 176 568 l 1,20,21
 190 481 190 481 190 449 c 2,0,-1
410 -73.5 m 128,-1,23
 421 -85 421 -85 421 -98 c 128,-1,24
 421 -111 421 -111 419 -118 c 2,25,-1
 398 -205 l 2,26,27
 390 -237 390 -237 336 -311 c 1,28,-1
 319 -335 l 1,29,-1
 254 -305 l 1,30,31
 298 -208 298 -208 305 -184.5 c 128,-1,32
 312 -161 312 -161 313 -144 c 2,33,-1
 317 -58 l 1,34,-1
 378 -61 l 2,35,22
 399 -62 399 -62 410 -73.5 c 128,-1,23
EndSplineSet
EndChar

StartChar: ncommaaccent
Encoding: 326 326 261
Width: 611
GlyphClass: 2
Flags: W
LayerCount: 2
Fore
SplineSet
116 524 m 2,0,1
 143 524 143 524 158 498 c 2,2,-1
 172 472 l 1,3,-1
 188 472 l 1,4,5
 219 505 219 505 248 516.5 c 128,-1,6
 277 528 277 528 327 528 c 0,7,8
 432 528 432 528 480 478 c 128,-1,9
 528 428 528 428 528 319 c 2,10,-1
 528 0 l 1,11,-1
 428 0 l 1,12,-1
 428 318 l 2,13,14
 428 386 428 386 405 423 c 128,-1,15
 382 460 382 460 311.5 460 c 128,-1,16
 241 460 241 460 190 422 c 1,17,-1
 190 0 l 1,18,-1
 90 0 l 1,19,-1
 90 415 l 1,20,-1
 67 524 l 1,21,-1
 116 524 l 2,0,1
360 -73.5 m 128,-1,23
 371 -85 371 -85 371 -98 c 128,-1,24
 371 -111 371 -111 369 -118 c 2,25,-1
 348 -205 l 2,26,27
 340 -237 340 -237 286 -311 c 1,28,-1
 269 -335 l 1,29,-1
 204 -305 l 1,30,31
 248 -208 248 -208 255 -184.5 c 128,-1,32
 262 -161 262 -161 263 -144 c 2,33,-1
 267 -58 l 1,34,-1
 328 -61 l 2,35,22
 349 -62 349 -62 360 -73.5 c 128,-1,23
EndSplineSet
EndChar

StartChar: Ncaron
Encoding: 327 327 262
Width: 724
GlyphClass: 2
Flags: W
LayerCount: 2
Fore
SplineSet
190 449 m 2,0,-1
 190 0 l 1,1,-1
 90 0 l 1,2,-1
 90 700 l 1,3,-1
 180 700 l 1,4,-1
 482 252 l 2,5,6
 508 215 508 215 526 148 c 1,7,-1
 532 127 l 1,8,-1
 548 130 l 1,9,10
 534 216 534 216 534 248 c 2,11,-1
 534 700 l 1,12,-1
 634 700 l 1,13,-1
 634 0 l 1,14,-1
 544 0 l 1,15,-1
 240 449 l 2,16,17
 214 487 214 487 198 550 c 1,18,-1
 192 571 l 1,19,-1
 176 568 l 1,20,21
 190 481 190 481 190 449 c 2,0,-1
312 763 m 1,22,-1
 187 891 l 1,23,-1
 223 923 l 1,24,-1
 358 825 l 1,25,-1
 494 923 l 1,26,-1
 530 891 l 1,27,-1
 405 763 l 1,28,-1
 312 763 l 1,22,-1
EndSplineSet
EndChar

StartChar: ncaron
Encoding: 328 328 263
Width: 611
GlyphClass: 2
Flags: W
LayerCount: 2
Fore
SplineSet
116 524 m 2,0,1
 143 524 143 524 158 498 c 2,2,-1
 172 472 l 1,3,-1
 188 472 l 1,4,5
 219 505 219 505 248 516.5 c 128,-1,6
 277 528 277 528 327 528 c 0,7,8
 432 528 432 528 480 478 c 128,-1,9
 528 428 528 428 528 319 c 2,10,-1
 528 0 l 1,11,-1
 428 0 l 1,12,-1
 428 318 l 2,13,14
 428 386 428 386 405 423 c 128,-1,15
 382 460 382 460 311.5 460 c 128,-1,16
 241 460 241 460 190 422 c 1,17,-1
 190 0 l 1,18,-1
 90 0 l 1,19,-1
 90 415 l 1,20,-1
 67 524 l 1,21,-1
 116 524 l 2,0,1
477 744 m 1,22,-1
 352 596 l 1,23,-1
 259 596 l 1,24,-1
 134 744 l 1,25,-1
 170 776 l 1,26,-1
 306 663 l 1,27,-1
 441 776 l 1,28,-1
 477 744 l 1,22,-1
EndSplineSet
EndChar

StartChar: napostrophe
Encoding: 329 329 264
Width: 628
GlyphClass: 2
Flags: W
LayerCount: 2
Fore
SplineSet
133 525 m 2,0,1
 160 525 160 525 175 499 c 2,2,-1
 189 473 l 1,3,-1
 205 473 l 1,4,5
 236 506 236 506 265 517.5 c 128,-1,6
 294 529 294 529 344 529 c 0,7,8
 449 529 449 529 497 479 c 128,-1,9
 545 429 545 429 545 320 c 2,10,-1
 545 1 l 1,11,-1
 445 1 l 1,12,-1
 445 319 l 2,13,14
 445 387 445 387 422 424 c 128,-1,15
 399 461 399 461 328.5 461 c 128,-1,16
 258 461 258 461 207 423 c 1,17,-1
 207 1 l 1,18,-1
 107 1 l 1,19,-1
 107 416 l 1,20,-1
 84 525 l 1,21,-1
 133 525 l 2,0,1
121 747 m 0,22,23
 121 740 121 740 120 736 c 2,24,-1
 106 662 l 2,25,26
 100 634 100 634 50 574 c 1,27,-1
 34 554 l 1,28,-1
 -30 585 l 1,29,30
 -26 595 -26 595 -15 619 c 128,-1,31
 -4 643 -4 643 1 654 c 0,32,33
 15 687 15 687 17 715 c 2,34,-1
 21 787 l 1,35,-1
 84 783 l 2,36,37
 121 780 121 780 121 747 c 0,22,23
EndSplineSet
EndChar

StartChar: Eng
Encoding: 330 330 265
Width: 724
GlyphClass: 2
Flags: W
LayerCount: 2
Fore
SplineSet
190 449 m 2,0,-1
 190 0 l 1,1,-1
 90 0 l 1,2,-1
 90 700 l 1,3,-1
 180 700 l 1,4,-1
 482 252 l 2,5,6
 508 215 508 215 526 148 c 1,7,-1
 532 127 l 1,8,-1
 548 130 l 1,9,10
 534 216 534 216 534 248 c 2,11,-1
 534 700 l 1,12,-1
 634 700 l 1,13,-1
 634 -77 l 2,14,15
 634 -142 634 -142 598.5 -181 c 128,-1,16
 563 -220 563 -220 490 -220 c 0,17,18
 449 -220 449 -220 411 -204 c 1,19,-1
 430 -143 l 1,20,21
 455 -152 455 -152 484 -152 c 128,-1,22
 513 -152 513 -152 523.5 -132 c 128,-1,23
 534 -112 534 -112 534 -76 c 2,24,-1
 534 15 l 1,25,-1
 240 449 l 2,26,27
 214 487 214 487 198 550 c 1,28,-1
 192 571 l 1,29,-1
 176 568 l 1,30,31
 190 481 190 481 190 449 c 2,0,-1
EndSplineSet
EndChar

StartChar: eng
Encoding: 331 331 266
Width: 611
GlyphClass: 2
Flags: W
LayerCount: 2
Fore
SplineSet
528 319 m 2,0,-1
 528 -77 l 2,1,2
 528 -142 528 -142 492.5 -181 c 128,-1,3
 457 -220 457 -220 384 -220 c 0,4,5
 343 -220 343 -220 305 -204 c 1,6,-1
 324 -143 l 1,7,8
 349 -152 349 -152 378 -152 c 128,-1,9
 407 -152 407 -152 417.5 -132 c 128,-1,10
 428 -112 428 -112 428 -76 c 2,11,-1
 428 318 l 2,12,13
 428 386 428 386 405 423 c 128,-1,14
 382 460 382 460 311.5 460 c 128,-1,15
 241 460 241 460 190 422 c 1,16,-1
 190 0 l 1,17,-1
 90 0 l 1,18,-1
 90 415 l 1,19,-1
 67 524 l 1,20,-1
 116 524 l 2,21,22
 143 524 143 524 158 498 c 2,23,-1
 172 472 l 1,24,-1
 188 472 l 1,25,26
 219 505 219 505 248 516.5 c 128,-1,27
 277 528 277 528 327 528 c 0,28,29
 432 528 432 528 480 478 c 128,-1,30
 528 428 528 428 528 319 c 2,0,-1
EndSplineSet
EndChar

StartChar: Omacron
Encoding: 332 332 267
Width: 735
GlyphClass: 2
Flags: W
LayerCount: 2
Fore
SplineSet
675 350 m 0,0,1
 675 -12 675 -12 367.5 -12 c 128,-1,2
 60 -12 60 -12 60 350 c 128,-1,3
 60 712 60 712 367 712 c 0,4,5
 524 712 524 712 599.5 618 c 128,-1,6
 675 524 675 524 675 350 c 0,0,1
368 66 m 0,7,8
 570 66 570 66 570 350 c 128,-1,9
 570 634 570 634 368 634 c 0,10,11
 254 634 254 634 208 551 c 0,12,13
 167 476 167 476 167 350 c 0,14,15
 167 142 167 142 270 88 c 0,16,17
 311 66 311 66 368 66 c 0,7,8
210 786 m 1,18,-1
 210 855 l 1,19,-1
 524 855 l 1,20,-1
 524 786 l 1,21,-1
 210 786 l 1,18,-1
EndSplineSet
EndChar

StartChar: omacron
Encoding: 333 333 268
Width: 583
GlyphClass: 2
Flags: W
LayerCount: 2
Fore
SplineSet
533 258 m 128,-1,1
 533 129 533 129 473 58.5 c 128,-1,2
 413 -12 413 -12 291.5 -12 c 128,-1,3
 170 -12 170 -12 110 58.5 c 128,-1,4
 50 129 50 129 50 258 c 128,-1,5
 50 387 50 387 110 457.5 c 128,-1,6
 170 528 170 528 291.5 528 c 128,-1,7
 413 528 413 528 473 457.5 c 128,-1,0
 533 387 533 387 533 258 c 128,-1,1
156 258 m 128,-1,9
 156 56 156 56 291.5 56 c 128,-1,10
 427 56 427 56 427 258 c 128,-1,11
 427 460 427 460 291.5 460 c 128,-1,8
 156 460 156 460 156 258 c 128,-1,9
138 637 m 1,12,-1
 138 706 l 1,13,-1
 452 706 l 1,14,-1
 452 637 l 1,15,-1
 138 637 l 1,12,-1
EndSplineSet
EndChar

StartChar: Obreve
Encoding: 334 334 269
Width: 735
GlyphClass: 2
Flags: W
LayerCount: 2
Fore
SplineSet
675 350 m 0,0,1
 675 -12 675 -12 367.5 -12 c 128,-1,2
 60 -12 60 -12 60 350 c 128,-1,3
 60 712 60 712 367 712 c 0,4,5
 524 712 524 712 599.5 618 c 128,-1,6
 675 524 675 524 675 350 c 0,0,1
368 66 m 0,7,8
 570 66 570 66 570 350 c 128,-1,9
 570 634 570 634 368 634 c 0,10,11
 254 634 254 634 208 551 c 0,12,13
 167 476 167 476 167 350 c 0,14,15
 167 142 167 142 270 88 c 0,16,17
 311 66 311 66 368 66 c 0,7,8
369 754 m 128,-1,19
 187 754 187 754 187 901 c 1,20,-1
 244 910 l 1,21,22
 251 855 251 855 278.5 836.5 c 128,-1,23
 306 818 306 818 369 818 c 128,-1,24
 432 818 432 818 459.5 836.5 c 128,-1,25
 487 855 487 855 494 910 c 1,26,-1
 551 901 l 1,27,18
 551 754 551 754 369 754 c 128,-1,19
EndSplineSet
EndChar

StartChar: obreve
Encoding: 335 335 270
Width: 583
GlyphClass: 2
Flags: W
LayerCount: 2
Fore
SplineSet
533 258 m 128,-1,1
 533 129 533 129 473 58.5 c 128,-1,2
 413 -12 413 -12 291.5 -12 c 128,-1,3
 170 -12 170 -12 110 58.5 c 128,-1,4
 50 129 50 129 50 258 c 128,-1,5
 50 387 50 387 110 457.5 c 128,-1,6
 170 528 170 528 291.5 528 c 128,-1,7
 413 528 413 528 473 457.5 c 128,-1,0
 533 387 533 387 533 258 c 128,-1,1
156 258 m 128,-1,9
 156 56 156 56 291.5 56 c 128,-1,10
 427 56 427 56 427 258 c 128,-1,11
 427 460 427 460 291.5 460 c 128,-1,8
 156 460 156 460 156 258 c 128,-1,9
294 605 m 128,-1,13
 112 605 112 605 112 752 c 1,14,-1
 169 761 l 1,15,16
 176 706 176 706 203.5 687.5 c 128,-1,17
 231 669 231 669 294 669 c 128,-1,18
 357 669 357 669 384.5 687.5 c 128,-1,19
 412 706 412 706 419 761 c 1,20,-1
 476 752 l 1,21,12
 476 605 476 605 294 605 c 128,-1,13
EndSplineSet
EndChar

StartChar: Ohungarumlaut
Encoding: 336 336 271
Width: 735
GlyphClass: 2
Flags: W
LayerCount: 2
Fore
SplineSet
675 350 m 0,0,1
 675 -12 675 -12 367.5 -12 c 128,-1,2
 60 -12 60 -12 60 350 c 128,-1,3
 60 712 60 712 367 712 c 0,4,5
 524 712 524 712 599.5 618 c 128,-1,6
 675 524 675 524 675 350 c 0,0,1
368 66 m 0,7,8
 570 66 570 66 570 350 c 128,-1,9
 570 634 570 634 368 634 c 0,10,11
 254 634 254 634 208 551 c 0,12,13
 167 476 167 476 167 350 c 0,14,15
 167 142 167 142 270 88 c 0,16,17
 311 66 311 66 368 66 c 0,7,8
404 940 m 2,18,19
 417 929 417 929 417 909.5 c 128,-1,20
 417 890 417 890 395 871 c 2,21,-1
 249 746 l 1,22,-1
 207 781 l 1,23,-1
 361 974 l 1,24,-1
 404 940 l 2,18,19
582 940 m 2,25,26
 595 929 595 929 595 909.5 c 128,-1,27
 595 890 595 890 573 871 c 2,28,-1
 427 746 l 1,29,-1
 385 781 l 1,30,-1
 539 974 l 1,31,-1
 582 940 l 2,25,26
EndSplineSet
EndChar

StartChar: ohungarumlaut
Encoding: 337 337 272
Width: 583
GlyphClass: 2
Flags: W
LayerCount: 2
Fore
SplineSet
533 258 m 128,-1,1
 533 129 533 129 473 58.5 c 128,-1,2
 413 -12 413 -12 291.5 -12 c 128,-1,3
 170 -12 170 -12 110 58.5 c 128,-1,4
 50 129 50 129 50 258 c 128,-1,5
 50 387 50 387 110 457.5 c 128,-1,6
 170 528 170 528 291.5 528 c 128,-1,7
 413 528 413 528 473 457.5 c 128,-1,0
 533 387 533 387 533 258 c 128,-1,1
156 258 m 128,-1,9
 156 56 156 56 291.5 56 c 128,-1,10
 427 56 427 56 427 258 c 128,-1,11
 427 460 427 460 291.5 460 c 128,-1,8
 156 460 156 460 156 258 c 128,-1,9
331 781 m 2,12,13
 344 770 344 770 344 750.5 c 128,-1,14
 344 731 344 731 322 712 c 2,15,-1
 176 587 l 1,16,-1
 134 622 l 1,17,-1
 288 815 l 1,18,-1
 331 781 l 2,12,13
509 781 m 2,19,20
 522 770 522 770 522 750.5 c 128,-1,21
 522 731 522 731 500 712 c 2,22,-1
 354 587 l 1,23,-1
 312 622 l 1,24,-1
 466 815 l 1,25,-1
 509 781 l 2,19,20
EndSplineSet
EndChar

StartChar: OE
Encoding: 338 338 273
Width: 945
GlyphClass: 2
Flags: W
LayerCount: 2
Fore
SplineSet
885 0 m 1,0,-1
 468 0 l 1,1,2
 423 -12 423 -12 367 -12 c 0,3,4
 60 -12 60 -12 60 350 c 128,-1,5
 60 712 60 712 367 712 c 0,6,7
 422 712 422 712 469 700 c 1,8,-1
 885 700 l 1,9,-1
 885 617 l 1,10,-1
 568 617 l 1,11,-1
 568 416 l 1,12,-1
 855 416 l 1,13,-1
 855 332 l 1,14,-1
 568 332 l 1,15,-1
 568 83 l 1,16,-1
 885 83 l 1,17,-1
 885 0 l 1,0,-1
270.5 87.5 m 128,-1,19
 311 66 311 66 369 66 c 128,-1,20
 427 66 427 66 468 89 c 1,21,-1
 468 611 l 1,22,23
 427 634 427 634 369 634 c 128,-1,24
 311 634 311 634 270.5 612.5 c 128,-1,25
 230 591 230 591 208 551 c 128,-1,26
 186 511 186 511 176.5 462 c 128,-1,27
 167 413 167 413 167 350 c 128,-1,28
 167 287 167 287 176.5 238 c 128,-1,29
 186 189 186 189 208 149 c 128,-1,18
 230 109 230 109 270.5 87.5 c 128,-1,19
EndSplineSet
EndChar

StartChar: oe
Encoding: 339 339 274
Width: 915
GlyphClass: 2
Flags: W
LayerCount: 2
Fore
SplineSet
654 528 m 0,0,1
 870 528 870 528 870 273 c 2,2,-1
 870 236 l 1,3,-1
 533 236 l 1,4,5
 533 59 533 59 674 59 c 0,6,7
 748 59 748 59 831 87 c 1,8,-1
 851 27 l 1,9,10
 760 -12 760 -12 680.5 -12 c 128,-1,11
 601 -12 601 -12 559.5 12 c 128,-1,12
 518 36 518 36 489 80 c 1,13,-1
 473 80 l 1,14,15
 414 -12 414 -12 292 -12 c 128,-1,16
 170 -12 170 -12 110 58.5 c 128,-1,17
 50 129 50 129 50 258 c 128,-1,18
 50 387 50 387 110 457.5 c 128,-1,19
 170 528 170 528 295.5 528 c 128,-1,20
 421 528 421 528 473 437 c 1,21,-1
 489 437 l 1,22,23
 541 528 541 528 654 528 c 0,0,1
156 258 m 128,-1,25
 156 56 156 56 291.5 56 c 128,-1,26
 427 56 427 56 427 258 c 2,27,-1
 427 270 l 1,28,29
 422 460 422 460 292 460 c 0,30,24
 156 460 156 460 156 258 c 128,-1,25
770 298 m 1,31,32
 770 375 770 375 745 417.5 c 128,-1,33
 720 460 720 460 653.5 460 c 128,-1,34
 587 460 587 460 561.5 418 c 128,-1,35
 536 376 536 376 533 298 c 1,36,-1
 770 298 l 1,31,32
EndSplineSet
EndChar

StartChar: Racute
Encoding: 340 340 275
Width: 610
GlyphClass: 2
Flags: W
LayerCount: 2
Fore
SplineSet
188 0 m 1,0,-1
 88 0 l 1,1,-1
 88 700 l 1,2,-1
 307 700 l 2,3,4
 419 700 419 700 478 647.5 c 128,-1,5
 537 595 537 595 537 491 c 0,6,7
 537 345 537 345 411 298 c 1,8,-1
 595 0 l 1,9,-1
 484 0 l 1,10,-1
 320 278 l 1,11,12
 286 276 286 276 267 276 c 2,13,-1
 188 276 l 1,14,-1
 188 0 l 1,0,-1
188 352 m 1,15,-1
 284 352 l 2,16,17
 441 352 441 352 441 491 c 0,18,19
 441 626 441 626 299 626 c 2,20,-1
 188 626 l 1,21,-1
 188 352 l 1,15,-1
437 852 m 0,22,23
 437 822 437 822 395 811 c 2,24,-1
 210 760 l 1,25,-1
 187 810 l 1,26,-1
 410 917 l 1,27,-1
 433 867 l 2,28,29
 437 859 437 859 437 852 c 0,22,23
EndSplineSet
EndChar

StartChar: racute
Encoding: 341 341 276
Width: 361
GlyphClass: 2
Flags: W
LayerCount: 2
Fore
SplineSet
114 524 m 2,0,1
 141 524 141 524 156 498 c 2,2,-1
 170 472 l 1,3,-1
 186 472 l 1,4,5
 209 505 209 505 236.5 516.5 c 128,-1,6
 264 528 264 528 300.5 528 c 128,-1,7
 337 528 337 528 341 526 c 1,8,-1
 341 444 l 1,9,-1
 300 444 l 2,10,11
 222 444 222 444 190 411 c 1,12,-1
 190 0 l 1,13,-1
 90 0 l 1,14,-1
 90 415 l 1,15,-1
 67 524 l 1,16,-1
 114 524 l 2,0,1
349 711 m 0,17,18
 349 684 349 684 315 669 c 2,19,-1
 141 587 l 1,20,-1
 110 632 l 1,21,-1
 310 777 l 1,22,-1
 342 732 l 2,23,24
 349 722 349 722 349 711 c 0,17,18
EndSplineSet
EndChar

StartChar: Rcommaaccent
Encoding: 342 342 277
Width: 610
GlyphClass: 2
Flags: W
LayerCount: 2
Fore
SplineSet
188 0 m 1,0,-1
 88 0 l 1,1,-1
 88 700 l 1,2,-1
 307 700 l 2,3,4
 419 700 419 700 478 647.5 c 128,-1,5
 537 595 537 595 537 491 c 0,6,7
 537 345 537 345 411 298 c 1,8,-1
 595 0 l 1,9,-1
 484 0 l 1,10,-1
 320 278 l 1,11,12
 286 276 286 276 267 276 c 2,13,-1
 188 276 l 1,14,-1
 188 0 l 1,0,-1
188 352 m 1,15,-1
 284 352 l 2,16,17
 441 352 441 352 441 491 c 0,18,19
 441 626 441 626 299 626 c 2,20,-1
 188 626 l 1,21,-1
 188 352 l 1,15,-1
350 -73.5 m 128,-1,23
 361 -85 361 -85 361 -98 c 128,-1,24
 361 -111 361 -111 359 -118 c 2,25,-1
 338 -205 l 2,26,27
 330 -237 330 -237 276 -311 c 1,28,-1
 259 -335 l 1,29,-1
 194 -305 l 1,30,31
 238 -208 238 -208 245 -184.5 c 128,-1,32
 252 -161 252 -161 253 -144 c 2,33,-1
 257 -58 l 1,34,-1
 318 -61 l 2,35,22
 339 -62 339 -62 350 -73.5 c 128,-1,23
EndSplineSet
EndChar

StartChar: rcommaaccent
Encoding: 343 343 278
Width: 361
GlyphClass: 2
Flags: W
LayerCount: 2
Fore
SplineSet
185 -73.5 m 128,-1,1
 196 -85 196 -85 196 -98 c 128,-1,2
 196 -111 196 -111 194 -118 c 2,3,-1
 173 -205 l 2,4,5
 165 -237 165 -237 112 -311 c 1,6,-1
 94 -335 l 1,7,-1
 29 -305 l 1,8,9
 73 -208 73 -208 80 -184.5 c 128,-1,10
 87 -161 87 -161 88 -144 c 2,11,-1
 92 -58 l 1,12,-1
 153 -61 l 2,13,0
 174 -62 174 -62 185 -73.5 c 128,-1,1
114 524 m 2,14,15
 141 524 141 524 156 498 c 2,16,-1
 170 472 l 1,17,-1
 186 472 l 1,18,19
 209 505 209 505 236.5 516.5 c 128,-1,20
 264 528 264 528 300.5 528 c 128,-1,21
 337 528 337 528 341 526 c 1,22,-1
 341 444 l 1,23,-1
 300 444 l 2,24,25
 222 444 222 444 190 411 c 1,26,-1
 190 0 l 1,27,-1
 90 0 l 1,28,-1
 90 415 l 1,29,-1
 67 524 l 1,30,-1
 114 524 l 2,14,15
EndSplineSet
EndChar

StartChar: Rcaron
Encoding: 344 344 279
Width: 610
GlyphClass: 2
Flags: W
LayerCount: 2
Fore
SplineSet
188 0 m 1,0,-1
 88 0 l 1,1,-1
 88 700 l 1,2,-1
 307 700 l 2,3,4
 419 700 419 700 478 647.5 c 128,-1,5
 537 595 537 595 537 491 c 0,6,7
 537 345 537 345 411 298 c 1,8,-1
 595 0 l 1,9,-1
 484 0 l 1,10,-1
 320 278 l 1,11,12
 286 276 286 276 267 276 c 2,13,-1
 188 276 l 1,14,-1
 188 0 l 1,0,-1
188 352 m 1,15,-1
 284 352 l 2,16,17
 441 352 441 352 441 491 c 0,18,19
 441 626 441 626 299 626 c 2,20,-1
 188 626 l 1,21,-1
 188 352 l 1,15,-1
237 763 m 1,22,-1
 112 891 l 1,23,-1
 148 923 l 1,24,-1
 283 825 l 1,25,-1
 419 923 l 1,26,-1
 455 891 l 1,27,-1
 330 763 l 1,28,-1
 237 763 l 1,22,-1
EndSplineSet
EndChar

StartChar: rcaron
Encoding: 345 345 280
Width: 361
GlyphClass: 2
Flags: W
LayerCount: 2
Fore
SplineSet
114 524 m 2,0,1
 141 524 141 524 156 498 c 2,2,-1
 170 472 l 1,3,-1
 186 472 l 1,4,5
 209 505 209 505 236.5 516.5 c 128,-1,6
 264 528 264 528 300.5 528 c 128,-1,7
 337 528 337 528 341 526 c 1,8,-1
 341 444 l 1,9,-1
 300 444 l 2,10,11
 222 444 222 444 190 411 c 1,12,-1
 190 0 l 1,13,-1
 90 0 l 1,14,-1
 90 415 l 1,15,-1
 67 524 l 1,16,-1
 114 524 l 2,0,1
351 744 m 1,17,-1
 226 596 l 1,18,-1
 133 596 l 1,19,-1
 8 744 l 1,20,-1
 44 776 l 1,21,-1
 180 663 l 1,22,-1
 315 776 l 1,23,-1
 351 744 l 1,17,-1
EndSplineSet
EndChar

